<svg xmlns="http://www.w3.org/2000/svg" width="813.747" height="490.442" viewBox="0 0 813.747 490.442">
  <g id="Group_47" data-name="Group 47" transform="translate(-207.588 -878.548)" opacity="0.14">
    <path id="Path_842" data-name="Path 842" d="M492.108,734.53,98.291,732.608,59.16,640.827l138.368-10.045L173.412,530.154l273.675-35.472-262.065-91.1,23.149-5.5,421.4,68.747L606.36,623.868l-33.171,86.3Z" transform="translate(159.279 527.527)" fill="#3dc06e"/>
    <path id="Path_843" data-name="Path 843" d="M187,698.889s24.162-3.866,38.659,13.208c0,0-10.631,8.376-33.5-3.221Z" transform="translate(76.611 522.805)" fill="#3dc06e"/>
    <path id="Path_844" data-name="Path 844" d="M186.1,698.51s-15.418,18.973-7.824,40.1c0,0,12.564-5.028,13.933-30.64Z" transform="translate(74.98 522.805)" fill="#3dc06e"/>
    <path id="Path_845" data-name="Path 845" d="M172.76,672.2s9.665-17.73,48.324,7.087c0,0-5.155,11.92-22.229,10.953S177.27,681.546,172.76,672.2Z" transform="translate(74.466 517.92)" fill="#3dc06e"/>
    <path id="Path_846" data-name="Path 846" d="M173.469,670.292s-20.054-2.3-22,43.607c0,0,12.714,2.634,21.746-11.886S178.543,679.347,173.469,670.292Z" transform="translate(71.261 518.553)" fill="#3dc06e"/>
    <path id="Path_879" data-name="Path 879" d="M751.086,670.36S725,702.2,745.713,750.325L537.46,840.644l-19.985,4.188-9.2-40.27,6.155-50.821V725.967Z" transform="translate(124.984 518.566)" fill="#d5d6db"/>
    <path id="Path_880" data-name="Path 880" d="M59.16,615.937,347.4,563.39l381.932,60.842L492.108,709.639Z" transform="translate(159.279 552.417)" fill="#3dc06e"/>
    <path id="Path_881" data-name="Path 881" d="M59.16,615.937,347.4,563.39l381.932,60.842L492.108,709.639Z" transform="translate(159.279 552.417)" fill="#3dc06e"/>
    <path id="Path_882" data-name="Path 882" d="M149.16,652.47s-26.958,51.074,4.108,98.247L580.7,843.338s-26.532-40.684,1.369-97.154Z" transform="translate(69.279 515.872)" fill="#3dc06e"/>
    <path id="Path_883" data-name="Path 883" d="M149.16,652.47s-26.958,51.074,4.108,98.247L580.7,843.338s-26.532-40.684,1.369-97.154Z" transform="translate(69.279 515.872)" opacity="0.1"/>
    <path id="Path_884" data-name="Path 884" d="M159.706,667.86s-15.406,37.37,0,61.556" transform="translate(71.47 518.19)" opacity="0.1"/>
    <path id="Path_885" data-name="Path 885" d="M578.747,831.686,817.375,729.86s13.347,2.876,4.717,12.656-238.743,98.949-238.743,98.949L151.31,739.065Z" transform="translate(71.237 527.525)" fill="#3dc06e"/>
    <path id="Path_886" data-name="Path 886" d="M578.747,831.686,817.375,729.86s13.347,2.876,4.717,12.656-238.743,98.949-238.743,98.949L151.31,739.065Z" transform="translate(71.237 527.525)" opacity="0.1"/>
    <path id="Path_887" data-name="Path 887" d="M507.148,742.86s-23.011,27.613,0,69.034" transform="translate(123.275 529.482)" opacity="0.1"/>
    <rect id="Rectangle_60" data-name="Rectangle 60" width="108.809" height="1.151" transform="translate(638.616 1306.309) rotate(-18.45)" opacity="0.1"/>
    <rect id="Rectangle_61" data-name="Rectangle 61" width="132.58" height="1.151" transform="translate(638.577 1315.573) rotate(-20.82)" opacity="0.1"/>
    <rect id="Rectangle_62" data-name="Rectangle 62" width="153.67" height="1.151" transform="translate(639.27 1326.492) rotate(-22.26)" opacity="0.1"/>
    <rect id="Rectangle_63" data-name="Rectangle 63" width="176.889" height="1.151" transform="translate(640.929 1336.12) rotate(-24.31)" opacity="0.1"/>
    <rect id="Rectangle_64" data-name="Rectangle 64" width="193.468" height="1.151" transform="matrix(0.916, -0.401, 0.401, 0.916, 642.208, 1340.806)" opacity="0.1"/>
    <rect id="Rectangle_65" data-name="Rectangle 65" width="231.518" height="1.151" transform="translate(644.884 1348.675) rotate(-23.36)" opacity="0.1"/>
    <path id="Path_888" data-name="Path 888" d="M152.23,619.511l202.5-42.571,123.364,23.587-165.935,53.5Z" transform="translate(173.293 554.458)" fill="#fff" opacity="0.3"/>
    <path id="Path_889" data-name="Path 889" d="M761.259,659.69s10.47,4.223,4.326,10.746S524,745.1,524,745.1Z" transform="translate(127.353 516.96)" fill="#3dc06e"/>
    <path id="Path_890" data-name="Path 890" d="M850.375,574.18S824.3,606,845.013,654.145L636.76,744.464l-19.985,4.211-9.2-40.27,6.248-50.809V629.787Z" transform="translate(139.936 504.084)" fill="#d5d6db"/>
    <path id="Path_891" data-name="Path 891" d="M158.46,519.745,446.689,467.21l381.943,60.842L591.408,613.459Z" transform="translate(174.231 537.936)" fill="#3a3768"/>
    <path id="Path_892" data-name="Path 892" d="M248.421,556.29s-26.969,51.074,4.1,98.247l427.437,92.621s-26.521-40.719,1.415-97.165Z" transform="translate(84.224 501.391)" fill="#3a3768"/>
    <path id="Path_893" data-name="Path 893" d="M248.421,556.29s-26.969,51.074,4.1,98.247l427.437,92.621s-26.521-40.719,1.415-97.165L546.2,620.733Z" transform="translate(84.224 501.391)" opacity="0.1"/>
    <path id="Path_894" data-name="Path 894" d="M259,571.68s-15.395,37.359,0,61.556" transform="translate(86.421 503.708)" opacity="0.1"/>
    <path id="Path_895" data-name="Path 895" d="M678.037,735.505,916.676,633.68s13.335,2.876,4.706,12.656-238.743,98.949-238.743,98.949L250.6,642.884Z" transform="translate(86.187 513.043)" fill="#3a3768"/>
    <path id="Path_896" data-name="Path 896" d="M678.037,735.505,916.676,633.68s13.335,2.876,4.706,12.656-238.743,98.949-238.743,98.949L250.6,642.884Z" transform="translate(86.187 513.043)" opacity="0.1"/>
    <path id="Path_897" data-name="Path 897" d="M606.438,646.68s-23.012,27.613,0,69.034" transform="translate(138.226 515.001)" opacity="0.1"/>
    <rect id="Rectangle_66" data-name="Rectangle 66" width="108.809" height="1.151" transform="translate(752.865 1195.659) rotate(-18.45)" opacity="0.1"/>
    <rect id="Rectangle_67" data-name="Rectangle 67" width="132.58" height="1.151" transform="translate(752.841 1204.918) rotate(-20.82)" opacity="0.1"/>
    <rect id="Rectangle_68" data-name="Rectangle 68" width="153.67" height="1.151" transform="translate(753.516 1215.821) rotate(-22.26)" opacity="0.1"/>
    <rect id="Rectangle_69" data-name="Rectangle 69" width="176.889" height="1.151" transform="translate(755.189 1225.452) rotate(-24.31)" opacity="0.1"/>
    <rect id="Rectangle_70" data-name="Rectangle 70" width="193.468" height="1.151" transform="matrix(0.916, -0.401, 0.401, 0.916, 756.451, 1230.122)" opacity="0.1"/>
    <rect id="Rectangle_71" data-name="Rectangle 71" width="231.518" height="1.151" transform="translate(759.135 1237.991) rotate(-23.36)" opacity="0.1"/>
    <path id="Path_898" data-name="Path 898" d="M251.53,523.331l202.5-42.571,123.364,23.587-165.935,53.5Z" transform="translate(188.244 539.976)" fill="#fff" opacity="0.45"/>
    <path id="Path_899" data-name="Path 899" d="M860.554,563.51s10.459,4.223,4.326,10.735S623.33,648.906,623.33,648.906Z" transform="translate(142.309 502.478)" fill="#3a3768"/>
    <path id="Path_900" data-name="Path 900" d="M859.77,464.15S833.687,521.3,854.4,569.427L646.144,634.434,626.2,638.657l-9.2-40.27,6.155-50.821V519.757Z" transform="translate(141.356 487.517)" fill="#d5d6db"/>
    <path id="Path_901" data-name="Path 901" d="M167.89,409.727,456.131,357.18l381.943,60.842L600.838,503.429Z" transform="translate(175.651 521.368)" fill="#3dc06e"/>
    <path id="Path_902" data-name="Path 902" d="M257.894,446.26s-27,51.074,4.061,98.247l427.437,92.621s-26.532-40.719,1.4-97.154Z" transform="translate(85.647 484.823)" fill="#3dc06e"/>
    <path id="Path_903" data-name="Path 903" d="M257.894,446.26s-27,51.074,4.061,98.247l427.437,92.621s-26.532-40.719,1.4-97.154Z" transform="translate(85.647 484.823)" opacity="0.1"/>
    <path id="Path_904" data-name="Path 904" d="M268.436,461.65s-15.406,37.371,0,61.555" transform="translate(87.841 487.141)" opacity="0.1"/>
    <path id="Path_905" data-name="Path 905" d="M687.477,624.271,926.1,547.758s13.347,2.876,4.717,12.656-238.743,73.636-238.743,73.636L260.04,531.65Z" transform="translate(87.608 497.68)" fill="#3dc06e"/>
    <path id="Path_906" data-name="Path 906" d="M687.477,624.271,926.1,547.758s13.347,2.876,4.717,12.656-238.743,73.636-238.743,73.636L260.04,531.65Z" transform="translate(87.608 497.68)" opacity="0.1"/>
    <path id="Path_907" data-name="Path 907" d="M615.878,536.65s-23.011,27.614,0,69.034" transform="translate(139.647 498.433)" opacity="0.1"/>
    <rect id="Rectangle_72" data-name="Rectangle 72" width="108.809" height="1.151" transform="translate(763.729 1069.06) rotate(-18.45)" opacity="0.1"/>
    <rect id="Rectangle_73" data-name="Rectangle 73" width="132.58" height="1.151" transform="translate(763.698 1078.325) rotate(-20.82)" opacity="0.1"/>
    <rect id="Rectangle_74" data-name="Rectangle 74" width="153.67" height="1.151" transform="translate(764.362 1089.234) rotate(-22.26)" opacity="0.1"/>
    <rect id="Rectangle_75" data-name="Rectangle 75" width="176.889" height="1.151" transform="translate(766.051 1098.854) rotate(-24.31)" opacity="0.1"/>
    <rect id="Rectangle_76" data-name="Rectangle 76" width="193.468" height="1.151" transform="matrix(0.916, -0.401, 0.401, 0.916, 767.319, 1103.535)" opacity="0.1"/>
    <rect id="Rectangle_77" data-name="Rectangle 77" width="231.518" height="1.151" transform="translate(769.999 1111.412) rotate(-23.36)" opacity="0.1"/>
    <path id="Path_908" data-name="Path 908" d="M260.96,413.3l202.5-42.571,123.364,23.587-165.935,53.5Z" transform="translate(189.664 523.409)" fill="#fff" opacity="0.3"/>
    <path id="Path_909" data-name="Path 909" d="M869.984,453.48s10.47,4.223,4.326,10.746S632.76,538.887,632.76,538.887Z" transform="translate(143.729 485.91)" fill="#3dc06e"/>
    <path id="Path_969" data-name="Path 969" d="M650.52,464.768a88.1,88.1,0,0,1,13.209-8.2c6.9-3.325,19.56-11.954,19.56-11.954" transform="translate(146.403 484.575)" opacity="0.1"/>
  </g>
</svg>
