<svg xmlns="http://www.w3.org/2000/svg" xmlns:xlink="http://www.w3.org/1999/xlink" width="1077.89" height="830.313" viewBox="0 0 1077.89 830.313">
  <defs>
    <linearGradient id="linear-gradient" x1="0.5" y1="1" x2="0.5" gradientUnits="objectBoundingBox">
      <stop offset="0" stop-color="gray" stop-opacity="0.251"/>
      <stop offset="0.54" stop-color="gray" stop-opacity="0.122"/>
      <stop offset="1" stop-color="gray" stop-opacity="0.102"/>
    </linearGradient>
    <linearGradient id="linear-gradient-2" x1="0.505" y1="1" x2="0.505" y2="0" xlink:href="#linear-gradient"/>
    <linearGradient id="linear-gradient-3" x1="0.476" y1="1" x2="0.476" y2="-0.002" xlink:href="#linear-gradient"/>
    <linearGradient id="linear-gradient-4" x1="0.5" y1="1" x2="0.5" y2="0" xlink:href="#linear-gradient"/>
    <linearGradient id="linear-gradient-5" x1="0.5" y1="1" x2="0.5" y2="0" xlink:href="#linear-gradient"/>
    <linearGradient id="linear-gradient-6" x1="0.5" y1="1.001" x2="0.5" y2="0" xlink:href="#linear-gradient"/>
    <filter id="iconmonstr-whatsapp-1" x="602" y="120.575" width="104.505" height="104.918" filterUnits="userSpaceOnUse">
      <feOffset dy="3" input="SourceAlpha"/>
      <feGaussianBlur stdDeviation="3" result="blur"/>
      <feFlood flood-opacity="0.161"/>
      <feComposite operator="in" in2="blur"/>
      <feComposite in="SourceGraphic"/>
    </filter>
    <filter id="iconmonstr-instagram-11" x="738" y="275.587" width="140.385" height="140.385" filterUnits="userSpaceOnUse">
      <feOffset dy="3" input="SourceAlpha"/>
      <feGaussianBlur stdDeviation="3" result="blur-2"/>
      <feFlood flood-opacity="0.161"/>
      <feComposite operator="in" in2="blur-2"/>
      <feComposite in="SourceGraphic"/>
    </filter>
    <filter id="iconmonstr-twitter-1" x="6" y="281.903" width="144.252" height="120.601" filterUnits="userSpaceOnUse">
      <feOffset dy="3" input="SourceAlpha"/>
      <feGaussianBlur stdDeviation="3" result="blur-3"/>
      <feFlood flood-opacity="0.161"/>
      <feComposite operator="in" in2="blur-3"/>
      <feComposite in="SourceGraphic"/>
    </filter>
  </defs>
  <g id="Group_45" data-name="Group 45" transform="translate(-421 -125)">
    <path id="Path_409" data-name="Path 409" d="M724.89,146.18c-46.25,39.26-106.24,36.72-158.81,16.29S465.22,105.68,414,79.83A426.976,426.976,0,0,0,280.39,37.6c-65.28-9-138.18,2-183.66,65.44-50.65,70.68-46.76,198.16,8,263,27.87,33,64.36,49.2,96.18,75s61.28,68.56,58.57,118.29c-2.51,46-31.68,81.38-61.87,103.54-23.33,17.14-52.06,35.85-54.87,71.33-2.72,34.34,21.44,61.24,44.51,76.54,75.26,49.92,168,49.44,243-1.26,26.75-18.08,51.34-42.13,79.39-56.23,73.65-37,154.81.25,232.8,13.87,66,11.53,133.69,5.56,198-17.47,38.62-13.83,77.39-35,104.52-74.37,19.57-28.4,31.76-64.34,43.2-99.84q18.3-56.79,35.19-114.37c6.75-23,13.4-46.54,15.15-71.19,3.16-44.68-10.16-88.84-28.3-126.55C1067.1,173.82,994.56,110.87,916,94.87s-161.67,15.25-222.6,83.59" transform="translate(359.924 90.143)" fill="#3dc06e" opacity="0.1"/>
    <g id="Group_36" data-name="Group 36" transform="translate(420.984 124.983)" opacity="0.1">
      <path id="Path_410" data-name="Path 410" d="M335.65,272.34s-27.31,6.34-34.87,22l-8.29-2.93V301.6L275.18,297s11.7,6.34,5.12,14.63S254,334.77,254,334.77s-13.41-12.44,4.64-36.58S315.42,256.73,335.65,272.34Z" transform="translate(-61.06 -34.84)" fill="#3dc06e"/>
      <path id="Path_411" data-name="Path 411" d="M333.7,265.27s-47.11-66.57-112.31-12.19c0,0,20.38,1,25.75,4.63,0,0,.24-13.9,4.87-10.24l2.69,10.73,15.11,2.19s3.52-12.43,7.74-10.24l5.68,10.73,12.19.73s2.44-11.22,5.12-9.51,4.88,8.54,4.88,8.54S326.88,259.42,333.7,265.27Z" transform="translate(-61.06 -34.84)" fill="#3dc06e"/>
      <path id="Path_412" data-name="Path 412" d="M338.34,265.27,327.12,238s.49-9.51,3.66-10l-6.1,2.44-5.12-5.85,3.66-9.51s-7.32,7.07-9.76,7.07-17.55-9.51-17.55-9.51l7.56-9s-9.76,10.49-17.32,7.08S252,195.28,260.3,192.84s24.88-15.11,51.21-1.46S358.33,239.91,338.34,265.27Z" transform="translate(-61.06 -34.84)" fill="#3dc06e"/>
      <path id="Path_413" data-name="Path 413" d="M343.21,265.27l18.54-33.56,6.83,1.86-1.22-10.24,14.38-9.76,3.17,5.12V208l16.34-6.09,4.15,4.39s-2.44-9.51,10-8,17.32-.15,17.32-.15S421,214.79,413.93,220.77l-9.26-3.05,4,8.78-17.16,10s-10.24-6.64-10.73-4.78l4.14,8.48S342.24,260.64,343.21,265.27Z" transform="translate(-61.06 -34.84)" fill="#3dc06e"/>
      <path id="Path_414" data-name="Path 414" d="M349.8,269.41s10-18.28,25.36-16.82l4.63,5.85s-4.14-9.75,12.44-13.17,40.48-5.08,40.48-5.08l4.39,8.3,5.12-8.3,18.29,8.3s-4.15,14.58-33.41,16.78l-4.63-7.07-.74,7.07-16.58,5.36s-4.14-8.78-5.85-7.56-1,7.56-1,7.56S374.18,277,349.8,269.41Z" transform="translate(-61.06 -34.84)" fill="#3dc06e"/>
      <path id="Path_415" data-name="Path 415" d="M344.92,273.12s3.9,26.53,9.27,29.7,15.12,4.88,15.12,4.88l-15.85,1.95,8,12.68,14.88,6.83-11.22,2.19-.73,6.59,6.34,2.92L363.45,344s-4.87,18.29-11.94,27.07c0,0,18.77-4.63,24.87-14.63s9-25.61,9-25.61,1-22.92-3.17-29S349.55,271.47,344.92,273.12Z" transform="translate(-61.06 -34.84)" fill="#3dc06e"/>
      <path id="Path_416" data-name="Path 416" d="M277.76,244.82l-3.17,1.95-5.85,12.19h10.24Z" fill="#3dc06e"/>
      <path id="Path_417" data-name="Path 417" d="M337.85,296.24l-10,2.19v7.32s5.85,2.19,5.85,4.14Z" transform="translate(-61.06 -34.84)" fill="#3dc06e"/>
      <path id="Path_418" data-name="Path 418" d="M263.86,272.62l-2.44,10.49,8.78,4.13v-9.5Z" fill="#3dc06e"/>
      <path id="Path_419" data-name="Path 419" d="M321.63,320.62l-3.17,17.44s8.9-4.51,10.49-3.29l.85-9.27S324,319.28,321.63,320.62Z" transform="translate(-61.06 -34.84)" fill="#3dc06e"/>
      <path id="Path_420" data-name="Path 420" d="M317.61,341.23l.85,5.73L328.71,350V339.52l-2.57-3S317.23,338.65,317.61,341.23Z" transform="translate(-61.06 -34.84)" fill="#3dc06e"/>
      <path id="Path_421" data-name="Path 421" d="M316.15,350c.12.73,0,15.12,0,15.12h13l-.48-11.59Z" transform="translate(-61.06 -34.84)" fill="#3dc06e"/>
      <path id="Path_422" data-name="Path 422" d="M255.08,332l1.45,17.56,12.21-7.44-.61-8.42Z" fill="#3dc06e"/>
      <path id="Path_423" data-name="Path 423" d="M256.53,351.63l.87,12.07,14.87-.85-2.07-19.03Z" fill="#3dc06e"/>
      <path id="Path_424" data-name="Path 424" d="M257.4,367.11l2.44,11.34,14.75-2.56-2.32-10.61Z" fill="#3dc06e"/>
      <path id="Path_425" data-name="Path 425" d="M259.23,382.6l2.38,8.9L278,393.94l-2.68-13.54Z" fill="#3dc06e"/>
      <path id="Path_426" data-name="Path 426" d="M323,430.11l6.71,22.68s7.93-14.26,13.41-13.41l-2.68-8.54S324.32,428.28,323,430.11Z" transform="translate(-61.06 -34.84)" fill="#3dc06e"/>
      <path id="Path_427" data-name="Path 427" d="M330.66,455.6l5,13.29s16-6,18.29-4.39l-10-23.38S334.68,455.11,330.66,455.6Z" transform="translate(-61.06 -34.84)" fill="#3dc06e"/>
      <path id="Path_428" data-name="Path 428" d="M276.79,437.34l7.19,14.39,15.24-9.51-6.34-10.36Z" fill="#3dc06e"/>
      <path id="Path_429" data-name="Path 429" d="M285.93,454.29l5.97,9.39h24.27l-15.12-19.14Z" fill="#3dc06e"/>
      <path id="Path_430" data-name="Path 430" d="M292.88,466.85l17.07,23.29,17.19-14.64-8.41-8.65Z" fill="#3dc06e"/>
      <path id="Path_431" data-name="Path 431" d="M328.73,478.49,312.14,491.6l22.32,8.53,7.92-9.99Z" fill="#3dc06e"/>
      <path id="Path_432" data-name="Path 432" d="M487.48,333.27s21.06,4.88,26.89,16.92l6.39-2.26v7.9l13.35-3.58s-9,4.89-4,11.28,20.3,17.86,20.3,17.86,10.34-9.58-3.57-28.2S503.09,321.23,487.48,333.27Z" transform="translate(-61.06 -34.84)" fill="#3dc06e"/>
      <path id="Path_433" data-name="Path 433" d="M489,327.81s36.32-51.32,86.59-9.4c0,0-15.72.76-19.85,3.58,0,0-.19-10.72-3.76-7.9l-2.07,8.27-11.66,1.69s-2.71-9.58-6-7.89l-4.38,8.27-9.4.56s-1.88-8.64-4-7.33-3.76,6.58-3.76,6.58S494.25,323.3,489,327.81Z" transform="translate(-61.06 -34.84)" fill="#3dc06e"/>
      <path id="Path_434" data-name="Path 434" d="M485.41,327.81l8.65-21.05s-.37-7.33-2.82-7.71l4.7,1.88,3.95-4.51-2.82-7.33s5.64,5.45,7.52,5.45,13.54-7.33,13.54-7.33l-5.83-7s7.52,8.08,13.35,5.45S552,273.86,545.57,272s-19.17-11.66-39.48-1.13S470,308.26,485.41,327.81Z" transform="translate(-61.06 -34.84)" fill="#3dc06e"/>
      <path id="Path_435" data-name="Path 435" d="M481.65,327.81l-14.29-25.87-5.26,1.43.94-7.89L452,288l-2.45,4v-8.28l-12.59-4.7-3.2,3.39s1.88-7.33-7.71-6.21-13.34-.11-13.34-.11,9,12.9,14.47,17.5l7.15-2.35-3.09,6.77,13.24,7.71s7.89-5.12,8.27-3.69l-3.2,6.54S482.41,324.24,481.65,327.81Z" transform="translate(-61.06 -34.84)" fill="#3dc06e"/>
      <path id="Path_436" data-name="Path 436" d="M476.58,331s-7.71-14.1-19.56-13l-3.57,4.51s3.2-7.52-9.59-10.15-31.2-3.92-31.2-3.92l-3.39,6.4-3.95-6.4-14.1,6.4s3.2,11.24,25.76,12.93l3.57-5.45.57,5.45L433.9,332s3.2-6.77,4.51-5.83.75,5.83.75,5.83S457.78,336.84,476.58,331Z" transform="translate(-61.06 -34.84)" fill="#3dc06e"/>
      <path id="Path_437" data-name="Path 437" d="M480.34,333.87s-3,20.45-7.15,22.9-11.65,3.76-11.65,3.76l12.22,1.5-6.21,9.78-11.47,5.26,8.65,1.69.57,5.08-4.89,2.25,5.64,2.45s3.76,14.1,9.21,20.87c0,0-14.48-3.57-19.18-11.28s-6.95-19.74-6.95-19.74-.75-17.68,2.44-22.38S476.77,332.59,480.34,333.87Z" transform="translate(-61.06 -34.84)" fill="#3dc06e"/>
      <path id="Path_438" data-name="Path 438" d="M423.97,304.07l2.45,1.5,4.51,9.41h-7.9Z" fill="#3dc06e"/>
      <path id="Path_439" data-name="Path 439" d="M485.79,351.69l7.71,1.69V359s-4.51,1.69-4.51,3.2Z" transform="translate(-61.06 -34.84)" fill="#3dc06e"/>
      <path id="Path_440" data-name="Path 440" d="M434.69,325.5l1.88,8.09-6.77,3.18v-7.32Z" fill="#3dc06e"/>
      <path id="Path_441" data-name="Path 441" d="M498.29,370.49l2.45,13.44s-6.87-3.48-8.09-2.54l-.66-7.14S496.51,369.46,498.29,370.49Z" transform="translate(-61.06 -34.84)" fill="#3dc06e"/>
      <path id="Path_442" data-name="Path 442" d="M501.39,386.38l-.65,4.42-7.9,2.35v-8.09l2-2.35S501.69,384.39,501.39,386.38Z" transform="translate(-61.06 -34.84)" fill="#3dc06e"/>
      <path id="Path_443" data-name="Path 443" d="M502.52,393.15c-.09.56,0,11.65,0,11.65H492.46l.38-8.93Z" transform="translate(-61.06 -34.84)" fill="#3dc06e"/>
      <path id="Path_444" data-name="Path 444" d="M441.46,371.28l-1.12,13.54-9.41-5.74.47-6.48Z" fill="#3dc06e"/>
      <path id="Path_445" data-name="Path 445" d="M440.34,386.42l-.67,9.3-11.47-.66,1.6-14.66Z" fill="#3dc06e"/>
      <path id="Path_446" data-name="Path 446" d="M439.67,398.35l-1.88,8.75-11.37-1.98,1.78-8.18Z" fill="#3dc06e"/>
      <path id="Path_447" data-name="Path 447" d="M438.26,410.29l-1.83,6.86-12.65,1.89,2.07-10.44Z" fill="#3dc06e"/>
      <path id="Path_448" data-name="Path 448" d="M497.26,454.9l-5.17,17.49s-6.11-11-10.34-10.34l2.07-6.58S496.22,453.49,497.26,454.9Z" transform="translate(-61.06 -34.84)" fill="#3dc06e"/>
      <path id="Path_449" data-name="Path 449" d="M491.34,474.55l-3.86,10.25s-12.31-4.61-14.1-3.39l7.71-18S488.23,474.17,491.34,474.55Z" transform="translate(-61.06 -34.84)" fill="#3dc06e"/>
      <path id="Path_450" data-name="Path 450" d="M424.72,452.5l-5.54,11.09-11.75-7.33,4.89-7.99Z" fill="#3dc06e"/>
      <path id="Path_451" data-name="Path 451" d="M417.67,465.56l-4.6,7.24H394.36l11.66-14.75Z" fill="#3dc06e"/>
      <path id="Path_452" data-name="Path 452" d="M412.32,475.25,399.16,493.2,385.9,481.92l6.49-6.67Z" fill="#3dc06e"/>
      <path id="Path_453" data-name="Path 453" d="M384.68,484.22l12.78,10.11-17.2,6.58-6.11-7.71Z" fill="#3dc06e"/>
      <path id="Path_454" data-name="Path 454" d="M310.17,541.42s50.81-21.62,92.34-17a83.852,83.852,0,0,0,8.54.55c17,.18,77,1.85,104.69,16.43Z" transform="translate(-61.06 -34.84)" fill="#3dc06e"/>
    </g>
    <ellipse id="Ellipse_421" data-name="Ellipse 421" cx="111.1" cy="13.79" rx="111.1" ry="13.79" transform="matrix(0.987, -0.161, 0.161, 0.987, 1239.149, 782.374)" fill="#3dc06e" opacity="0.1"/>
    <ellipse id="Ellipse_425" data-name="Ellipse 425" cx="113.45" cy="12.53" rx="113.45" ry="12.53" transform="translate(432.904 918.103)" fill="#3dc06e" opacity="0.1"/>
    <ellipse id="Ellipse_426" data-name="Ellipse 426" cx="79.91" cy="11.03" rx="79.91" ry="11.03" transform="translate(876.954 662.343)" fill="#3dc06e" opacity="0.1"/>
    <path id="Path_597" data-name="Path 597" d="M332.47,485.89v-.07l-.09-.06h0l-.54-.37.11.09a1.79,1.79,0,0,0-2.36.51l-.22.32h0l-12.15,17.47-2.13,3.06c-6.41-1.93-16.82,6.2-22.09,10.85l-.93.82c-.41-.94-.66-1.53-.66-1.53-.26,2.86-10.36,7.14-12.72,8.7a8.66,8.66,0,0,1-3.52,1.19c.33-10.88-8.07-22.32-8.07-22.32L246.6,478.4a23.08,23.08,0,0,1,2.1-13.87c.17-.34.34-.67.53-1h.1a22.79,22.79,0,0,0-1.29,6.83c.05,1.78,1.69,10.35,4,10a1.25,1.25,0,0,0,1.18-.57c1.84-2.14,2-5.78,1.91-9.15a18.622,18.622,0,0,1-.33,2.95c.15-2.8-.17-5.76-.17-7.87,0-.84,0-1.67.06-2.51h.25v0h.27a27.59,27.59,0,0,0,12.55-5.81,6.77,6.77,0,0,0,4.72-2.21,4.59,4.59,0,0,1-.89,4.27c2.75-.13,5.08-2.27,6.14-4.78a16.68,16.68,0,0,0,.78-8,55.487,55.487,0,0,1-.59-8.13,29.772,29.772,0,0,0,.24-4.42,8.67,8.67,0,0,0-.24-1.35H278a1.89,1.89,0,0,0,1.43-.55c1.14-.88,1.51-2.61,1.8-3.92a33.42,33.42,0,0,0,1.06-9.31c-.06.95-.18,1.9-.32,2.85.25-3.6-.25-7.1-2.63-9.7-1.64-1.8-3.93-2.85-6.13-3.89a4.74,4.74,0,0,1-2-1.43,5.93,5.93,0,0,1-.61-2.48c-.77-5.27-5.72-8.92-10.65-11.06-6.34-2.75-14-3.94-20.05-.66-3,1.59-5.3,4.09-8,6.12-3.38,2.56-7.28,4.36-10.89,6.6s-7.05,5.08-8.77,8.94c-2.65,6-.66,12.81-.33,19.31.53,10.25-3.69,21-12.05,27a10.84,10.84,0,0,0-2.65,2.29,2.86,2.86,0,0,0-.22,3.27c.43.57,1.11.88,1.58,1.41.95,1.09.76,2.73.39,4.12a25.79,25.79,0,0,1-7,11.85c.15,1.07,1.46,1.49,2.53,1.64a56.915,56.915,0,0,0,8.55.62h1.23c-.13.33-.27.68-.41,1-1.55,4.09-3.56,10.36-2.89,14.2,1.05,6.07,4.2,33.78,2.62,38.63s2.45,40.35,2.45,40.35.55,2.72,1.5,6.78c-2.47,5.83-5.29,12.28-6.7,14.87-2.84,5.2-1.44,31.7,8.35,43.47,0,0,4.05,5.72,3,7.8s.18,5.71.18,5.71l1.55,34.3a87.574,87.574,0,0,1-.73,10.47c-4.17,5.17-10.61,12.71-13.64,14-4.69,1.9-39.67,44.33-39.67,44.33s.28.51.82,1.35l-1,1.13-6.71,7.78-.53.61c-1.26-.23-9.65-1.76-16.3-2.24h-.66V770a24.879,24.879,0,0,0-7,.19,2.26,2.26,0,0,0-1.16.61c-2.27,2.77-3.49,46.42-3.49,46.42s2.42,21.84,10,23.06a4.4,4.4,0,0,0,1.2.23,3,3,0,0,0,.42,0,10.31,10.31,0,0,0,9-5.61,9.34,9.34,0,0,0,.75-2s-.88-3.9,1.48-9.27,6.74-14.72,6.74-14.72,8-8.4,6.56-12.49l.77-1.1c3-4.27,9.08-12.72,14-18.37l1-1.08a25.16,25.16,0,0,0,5.57,1.62s7.53-3,10.32-9.53c1.19-2.8,5.86-7.75,10.83-12.53l-.16,1.28-.17,41.73a29,29,0,0,0,5.14,2.83v1a134.259,134.259,0,0,1-1.08,17.8l-.15.92c-.62-.44-1.16-.59-1.5-.24-1.54,1.55-2.5,11.52-2.59,16.1v.46c-.25,4.59-2.86,11.24,5,11.58,5.88.25,31.22.64,44.79.83a30,30,0,0,0,20-7.09c4.31-3.69,6.92-8.08,1-11.31-.36-.19-.74-.38-1.16-.57l-13-2L236.4,817.41s-.13-6.86-2.8-5.72a7.388,7.388,0,0,0-2.25.9c-.13-.26-.27-.52-.4-.8a25.59,25.59,0,0,1-2.74-11.56q0-.555,0-1.11a19.5,19.5,0,0,0,1.84-1.89s-.17-15.58,1.58-18.53,7.19-32.7,7.19-32.7.17-5.55,3.67-8.84,2.27-12.82,2.27-12.82,4.9-2.59,6.47-11.08,6.65-27,6.65-27,10.49-27.36,9.8-44.68,1.05-26.33,1.05-26.33L270.91,575v-.62c.87.67,1.46,1.2,1.46,1.2v-.43c.32.26.5.43.5.43s1.12-18.26.74-25.5c6.12-2.08,15.44-5.5,16-7.23.79-2.6,11.29-10.78,11.29-10.78a1.94,1.94,0,0,1-.64-.24c.33-.16.67-.33,1-.53,6.88-3.68,19.66-14.44,17.51-21l14-20.08a3.42,3.42,0,0,0-.3-4.33Z" transform="translate(359.924 90.143)" fill="url(#linear-gradient)"/>
    <path id="Path_598" data-name="Path 598" d="M299.89,534.42a9.12,9.12,0,0,1-3.35,1.27c-4.37.13-8-11.71-8-11.71s1.24-1.26,3.22-3c5.86-5.21,18.15-14.84,23.91-9.45C322.17,517.54,307.42,530.35,299.89,534.42Z" transform="translate(359.924 90.143)" fill="#ecb4b6"/>
    <path id="Path_599" data-name="Path 599" d="M233.48,816.55,217.35,834s-14.92.17-12-8.06a30.169,30.169,0,0,0,1.24-5.47,134.746,134.746,0,0,0,1-17.62c0-3.87-.06-6.57-.06-6.57s23.49-10.29,21.09.42a20.15,20.15,0,0,0-.48,4.08,27.47,27.47,0,0,0,5.29,15.82Z" transform="translate(359.924 90.143)" fill="#ecb4b6"/>
    <path id="Path_600" data-name="Path 600" d="M233.48,816.55,217.35,834s-14.92.17-12-8.06a30.169,30.169,0,0,0,1.24-5.47c2.13,1.64,5.19,6.5,5.19,6.5s10.29,3,13.12-6c1.58-5,4.08-7.53,6-8.74a25.781,25.781,0,0,0,2.58,4.32Z" transform="translate(359.924 90.143)" opacity="0.1"/>
    <path id="Path_601" data-name="Path 601" d="M270.88,842.76a29.29,29.29,0,0,1-19.64,7c-13.3-.19-38.15-.57-43.92-.82-7.72-.33-5.16-6.92-4.91-11.47v-.45c.09-4.54,1-14.41,2.54-15.95s6.81,6.86,6.81,6.86,10.29,3,13.12-6,8.58-9.86,8.58-9.86c2.61-1.13,2.74,5.66,2.74,5.66L258,829l12.77,2c.42.19.79.38,1.14.57C277.67,834.76,275.11,839.1,270.88,842.76Z" transform="translate(359.924 90.143)" fill="#c17174"/>
    <circle id="Ellipse_427" data-name="Ellipse 427" cx="0.94" cy="0.94" r="0.94" transform="translate(589.624 913.733)" fill="#fff" opacity="0.25"/>
    <circle id="Ellipse_428" data-name="Ellipse 428" cx="0.94" cy="0.94" r="0.94" transform="translate(598.454 918.103)" fill="#fff" opacity="0.25"/>
    <circle id="Ellipse_429" data-name="Ellipse 429" cx="0.94" cy="0.94" r="0.94" transform="translate(603.004 920.143)" fill="#fff" opacity="0.25"/>
    <circle id="Ellipse_430" data-name="Ellipse 430" cx="0.94" cy="0.94" r="0.94" transform="translate(612.434 923.763)" fill="#fff" opacity="0.25"/>
    <circle id="Ellipse_431" data-name="Ellipse 431" cx="0.94" cy="0.94" r="0.94" transform="translate(607.634 922.213)" fill="#fff" opacity="0.25"/>
    <path id="Path_602" data-name="Path 602" d="M270.88,842.76a29.29,29.29,0,0,1-19.64,7c-13.3-.19-38.15-.57-43.92-.82-7.72-.33-5.16-6.92-4.91-11.47l48.47,3s19.85-3,21-8.92C277.67,834.76,275.11,839.1,270.88,842.76Z" transform="translate(359.924 90.143)" fill="#c17174"/>
    <path id="Path_603" data-name="Path 603" d="M270.88,842.76a29.29,29.29,0,0,1-19.64,7c-13.3-.19-38.15-.57-43.92-.82-7.72-.33-5.16-6.92-4.91-11.47l48.47,3s19.85-3,21-8.92C277.67,834.76,275.11,839.1,270.88,842.76Z" transform="translate(359.924 90.143)" fill="#fff" opacity="0.25"/>
    <path id="Path_604" data-name="Path 604" d="M180.65,772.82a32.8,32.8,0,0,0-4.86,4.87c-4.81,5.59-10.76,13.95-13.71,18.19-1.14,1.64-1.83,2.66-1.83,2.66l-6.44-.94S146.87,787,147,786.71s5.49-11.66,5.49-11.66l2.09-2.45,6.58-7.7,3-3.49S186.48,768.61,180.65,772.82Z" transform="translate(359.924 90.143)" fill="#ecb4b6"/>
    <path id="Path_605" data-name="Path 605" d="M162.08,795.88c-1.14,1.64-1.83,2.66-1.83,2.66l-6.44-.94S146.87,787,147,786.71s5.49-11.66,5.49-11.66l2.09-2.45.68.12h1.63c-5.74,6,.43,19.21.43,19.21S160,792.18,162.08,795.88Z" transform="translate(359.924 90.143)" opacity="0.1"/>
    <path id="Path_606" data-name="Path 606" d="M154.89,809.33s-4.3,9.26-6.61,14.58-1.46,9.17-1.46,9.17a9,9,0,0,1-.73,2,10.12,10.12,0,0,1-8.78,5.55,3,3,0,0,1-.42,0c-7.82-.21-10.3-22.9-10.3-22.9s1.2-43.22,3.43-46a2.21,2.21,0,0,1,1.13-.6A24.408,24.408,0,0,1,138,771c7.07.51,16.16,2.25,16.16,2.25h1.63c-5.75,6,.42,19.2.42,19.2s2.75.26,4.89,4.12S154.89,809.33,154.89,809.33Z" transform="translate(359.924 90.143)" fill="#c17174"/>
    <circle id="Ellipse_432" data-name="Ellipse 432" cx="0.94" cy="0.94" r="0.94" transform="translate(504.424 885.693)" fill="#fff" opacity="0.25"/>
    <circle id="Ellipse_433" data-name="Ellipse 433" cx="0.94" cy="0.94" r="0.94" transform="translate(503.964 893.173)" fill="#fff" opacity="0.25"/>
    <path id="Path_607" data-name="Path 607" d="M145.45,834.92a10.11,10.11,0,0,1-8.78,5.55,2.855,2.855,0,0,1-.41,0c-7.82-.21-10.31-22.9-10.31-22.9s1.2-43.22,3.43-46a2.21,2.21,0,0,1,1.13-.6,24.41,24.41,0,0,1,6.89-.18c-.13,7.76-.5,32.32,0,34.75S142.34,828.38,145.45,834.92Z" transform="translate(359.924 90.143)" fill="#c17174"/>
    <path id="Path_608" data-name="Path 608" d="M145.45,834.92a10.11,10.11,0,0,1-8.78,5.55,2.855,2.855,0,0,1-.41,0c-7.82-.21-10.31-22.9-10.31-22.9s1.2-43.22,3.43-46a2.21,2.21,0,0,1,1.13-.6,24.41,24.41,0,0,1,6.89-.18c-.13,7.76-.5,32.32,0,34.75S142.34,828.38,145.45,834.92Z" transform="translate(359.924 90.143)" fill="#fff" opacity="0.25"/>
    <path id="Path_609" data-name="Path 609" d="M136.26,840.48c-7.82-.21-10.31-22.9-10.31-22.9s1.2-43.22,3.43-46a2.21,2.21,0,0,1,1.13-.6c1.64,2.45,3.08,7.84,1.78,19.73-2.44,22.51.5,23.92.5,23.92S136.44,833.76,136.26,840.48Z" transform="translate(359.924 90.143)" fill="#c17174"/>
    <path id="Path_610" data-name="Path 610" d="M136.26,840.48c-7.82-.21-10.31-22.9-10.31-22.9s1.2-43.22,3.43-46a2.21,2.21,0,0,1,1.13-.6c1.64,2.45,3.08,7.84,1.78,19.73-2.44,22.51.5,23.92.5,23.92S136.44,833.76,136.26,840.48Z" transform="translate(359.924 90.143)" opacity="0.1"/>
    <path id="Path_611" data-name="Path 611" d="M299.89,534.42a9.12,9.12,0,0,1-3.35,1.27c-4.37.13-8-11.71-8-11.71s1.24-1.26,3.22-3C293.19,524.18,297.13,532.82,299.89,534.42Z" transform="translate(359.924 90.143)" opacity="0.1"/>
    <path id="Path_612" data-name="Path 612" d="M271.85,530.16s3.6.25,5.91-1.29,12.22-5.79,12.48-8.62c0,0,5.91,14.41,9.26,14.92,0,0-10.29,8.1-11.06,10.68s-20.84,8.87-20.84,8.87Z" transform="translate(359.924 90.143)" fill="#9f9eff"/>
    <path id="Path_613" data-name="Path 613" d="M271.85,530.16s3.6.25,5.91-1.29,12.22-5.79,12.48-8.62c0,0,5.91,14.41,9.26,14.92,0,0-10.29,8.1-11.06,10.68s-20.84,8.87-20.84,8.87Z" transform="translate(359.924 90.143)" opacity="0.1"/>
    <path id="Path_614" data-name="Path 614" d="M180.65,772.82a32.8,32.8,0,0,0-4.86,4.87c-7.76-3.25-12.76-9.88-14.67-12.79l3-3.49S186.48,768.61,180.65,772.82Z" transform="translate(359.924 90.143)" opacity="0.1"/>
    <path id="Path_615" data-name="Path 615" d="M217.35,699.85s-12.58,16.8-17.18,18.69-38.89,43.9-38.89,43.9,7.37,13.55,20.92,15.78c0,0,7.37-2.92,10.12-9.43s24.35-24.87,24.35-24.87Z" transform="translate(359.924 90.143)" fill="#5e5a6b"/>
    <path id="Path_616" data-name="Path 616" d="M217.35,699.85s-12.58,16.8-17.18,18.69-38.89,43.9-38.89,43.9,7.37,13.55,20.92,15.78c0,0,7.37-2.92,10.12-9.43s24.35-24.87,24.35-24.87Z" transform="translate(359.924 90.143)" opacity="0.1"/>
    <path id="Path_617" data-name="Path 617" d="M179.24,756.14a54.839,54.839,0,0,0,11.45,0C197.5,755.5,192.36,759.61,179.24,756.14Z" transform="translate(359.924 90.143)" opacity="0.1"/>
    <path id="Path_618" data-name="Path 618" d="M176.15,760.51s9,5.15,12.48,2.57S185.28,765.56,176.15,760.51Z" transform="translate(359.924 90.143)" opacity="0.1"/>
    <path id="Path_619" data-name="Path 619" d="M228.67,796.65a20.149,20.149,0,0,0-.48,4.08c-6.95,6.32-15.32,4.37-20.55,2.07,0-3.87-.06-6.57-.06-6.57S231.07,785.94,228.67,796.65Z" transform="translate(359.924 90.143)" opacity="0.1"/>
    <path id="Path_620" data-name="Path 620" d="M270.34,572.94l-.25,4.75L268,617.53s-1.72,8.92-1,26.07-9.61,44.24-9.61,44.24-5,18.35-6.52,26.75-6.34,11-6.34,11,1.2,9.43-2.23,12.69-3.6,8.75-3.6,8.75-5.32,29.49-7,32.41-1.7,18.33-1.7,18.33C218.9,811,202.61,799,202.61,799l.17-41.33s4.63-38.07,8.06-43.39,3.43-19.89,3.43-19.89l-1.53-34s-1.22-3.61-.17-5.66-2.94-7.72-2.94-7.72c-9.6-11.66-11-37.9-8.18-43s11.12-25.72,11.12-25.72L224,571.57l20.73.62Z" transform="translate(359.924 90.143)" fill="#5e5a6b"/>
    <path id="Path_621" data-name="Path 621" d="M221.56,775.05s2.71,9.38,4.89,10.41S221.56,775.05,221.56,775.05Z" transform="translate(359.924 90.143)" opacity="0.1"/>
    <path id="Path_622" data-name="Path 622" d="M225.29,743.79s7,5.55,10,5.53S225.29,743.79,225.29,743.79Z" transform="translate(359.924 90.143)" opacity="0.1"/>
    <path id="Path_623" data-name="Path 623" d="M267.6,511.63V523l-7.47-3.22-7.45-3.21-16.21-15.95s-12.82-8.33-19.68-15.92c-3.92-4.33-5.89-8.42-2.44-10.57a21.82,21.82,0,0,0,4.49-3.94A74.089,74.089,0,0,0,227.78,457l.32-.58c3.34-6.13,5.55-11.36,5.55-11.36s9.39,3,15.44,7.28c.49.34.95.69,1.39,1,3.37,2.77,5.05,6,1.94,9.16a25,25,0,0,0-2.21,2.65h0a20.7,20.7,0,0,0-1.38,2.17c-.18.33-.36.67-.52,1a23.06,23.06,0,0,0-2.06,13.73Z" transform="translate(359.924 90.143)" fill="#ecb4b6"/>
    <path id="Path_624" data-name="Path 624" d="M266.23,430.85c.39.67.93,1.25,1.29,1.94a9.41,9.41,0,0,1,.57,4.81,27,27,0,0,0,.5,7.66c.53,2.25,1.52,4.43,1.6,6.75.11,3.28-1.59,6.3-3.24,9.13a6.59,6.59,0,0,0,4.71-2.19,4.55,4.55,0,0,1-.86,4.23c2.69-.12,5-2.24,6-4.73a16.49,16.49,0,0,0,.77-8,54.4,54.4,0,0,1-.58-8.05,29.225,29.225,0,0,0,.23-4.38c-.25-2.92-2-5.44-3.76-7.81L270,425.48a2.49,2.49,0,0,0-1-.92C265.69,423.17,265.31,429.24,266.23,430.85Z" transform="translate(359.924 90.143)" fill="#464353"/>
    <path id="Path_625" data-name="Path 625" d="M252.42,462.5a25,25,0,0,0-2.21,2.65h0a20.689,20.689,0,0,0-1.38,2.17c-.18.33-.36.67-.52,1A26.94,26.94,0,0,1,228.1,457.4l-.32-.45.32-.58c3.34-6.13,5.55-11.36,5.55-11.36s9.39,3,15.44,7.28c.49.34.95.69,1.39,1C253.85,456.11,255.53,459.31,252.42,462.5Z" transform="translate(359.924 90.143)" opacity="0.1"/>
    <path id="Path_626" data-name="Path 626" d="M276.84,440.33a27,27,0,0,1-22.11,26.57,28.26,28.26,0,0,1-4.9.44h-1a27,27,0,1,1,28-27Z" transform="translate(359.924 90.143)" fill="#ecb4b6"/>
    <path id="Path_627" data-name="Path 627" d="M253.37,507.09s13.6,7.68,10.11,1.2l-17.74-26.24h0L265.89,508s12.86,17.66,5.83,29.84c0,0-1,10.12.17,12.52s-.35,28-.35,28-4.8-4.46-7.37-3.6-20.75,2.4-20.75,2.4Z" transform="translate(359.924 90.143)" opacity="0.1"/>
    <path id="Path_628" data-name="Path 628" d="M270.34,572.94l-.25,4.75c-1.63-1.19-3.9-2.51-5.41-2-2.57.86-20.75,2.4-20.75,2.4l.84-5.9Z" transform="translate(359.924 90.143)" opacity="0.1"/>
    <path id="Path_629" data-name="Path 629" d="M253.88,507.09s13.61,7.68,10.12,1.2l-17.75-26.24h0L266.4,508s12.86,17.66,5.83,29.84c0,0-1,10.12.17,12.52s-.34,28-.34,28-4.8-4.46-7.37-3.6-20.76,2.4-20.76,2.4Z" transform="translate(359.924 90.143)" fill="#464353"/>
    <path id="Path_630" data-name="Path 630" d="M261.15,520.25c-.79,8.24-4.18,18-4.18,18s-2.4,24.36-5.49,31.56-1.72,17.15-3.43,35.5c-.62,6.6-2.75,11.14-5.62,14.21-4.72,5-11.46,6.08-16.78,5.77-.44,0-.85-.05-1.27-.09-8.57-.86-16.8-42.19-16.8-42.19s-3.94-35.15-2.4-39.95-1.54-32.25-2.57-38.25c-.66-3.8,1.31-10,2.83-14.06.89-2.34,1.62-3.95,1.62-3.95s2.92-9.26,7.72-14.06a7,7,0,0,1,5.09-2.13,12.559,12.559,0,0,1,6.35,2l.22.14s31.22,31.9,34.13,39.27C261.38,514.12,261.46,517.07,261.15,520.25Z" transform="translate(359.924 90.143)" opacity="0.1"/>
    <path id="Path_631" data-name="Path 631" d="M260.13,519.73c-.8,8.24-4.19,18.06-4.19,18.06s-2.4,24.35-5.49,31.55-1.72,17.15-3.43,35.5c-.62,6.61-2.75,11.15-5.62,14.21-4.72,5-11.46,6.09-16.78,5.78l-1.26-.1c-8.58-.85-16.81-42.19-16.81-42.19s-3.94-35.15-2.4-39.95-1.54-32.24-2.57-38.25c-.66-3.8,1.31-10,2.83-14.06.89-2.33,1.62-3.94,1.62-3.94s2.92-9.26,7.72-14.06a7.08,7.08,0,0,1,5.09-2.14,12.62,12.62,0,0,1,6.35,2,1.767,1.767,0,0,1,.22.15s31.22,31.89,34.13,39.27C260.35,513.61,260.43,516.55,260.13,519.73Z" transform="translate(359.924 90.143)" fill="#9f9eff"/>
    <path id="Path_632" data-name="Path 632" d="M225.16,645.27s-7.08,6.3-9.52,6S225.16,645.27,225.16,645.27Z" transform="translate(359.924 90.143)" opacity="0.1"/>
    <path id="Path_633" data-name="Path 633" d="M227,651.32s-7.46,3.47-9.69,4S224.16,650.43,227,651.32Z" transform="translate(359.924 90.143)" opacity="0.1"/>
    <path id="Path_634" data-name="Path 634" d="M255.9,556.65s11.06.13,12.73,3.6S259.5,555.24,255.9,556.65Z" transform="translate(359.924 90.143)" opacity="0.1"/>
    <path id="Path_635" data-name="Path 635" d="M254.35,562.7s8.49,1.8,11.06,3.85S254.35,562.7,254.35,562.7Z" transform="translate(359.924 90.143)" opacity="0.1"/>
    <path id="Path_636" data-name="Path 636" d="M240.08,541.73s-1,34.86-4.82,39.36S240.08,541.73,240.08,541.73Z" transform="translate(359.924 90.143)" opacity="0.1"/>
    <path id="Path_637" data-name="Path 637" d="M230.56,640.25S223.5,671,237.7,672.92s9.84-35,9.84-35Z" transform="translate(359.924 90.143)" opacity="0.1"/>
    <path id="Path_638" data-name="Path 638" d="M230,639.74s-7.06,30.74,7.15,32.67,9.83-35,9.83-35Z" transform="translate(359.924 90.143)" fill="#ecb4b6"/>
    <path id="Path_639" data-name="Path 639" d="M276.67,437.35a10.08,10.08,0,0,1-1-1.87c-1.89-3.93-6.75-2-10.31-.13-.63.82-1.27,1.63-1.91,2.45a15.249,15.249,0,0,0-2.17,3.35,25.924,25.924,0,0,0-.91,3c-.49,1.75-1.21,3.41-1.86,5.1a59.35,59.35,0,0,0-3.81,17.65,28.26,28.26,0,0,1-4.9.44h-.12v-.13c.18-.68.33-1.37.47-2.06h0a35.751,35.751,0,0,0,.27-11.81c0-.08,0-.17,0-.25-.13-.88-.3-1.75-.37-2.63l-1,1.83c-2.15,4-4.41,8-8.47,9.75a17.381,17.381,0,0,1-5.15,1.17,28.8,28.8,0,0,0-6.44,1.07,4,4,0,0,0-1.87,1.12,5.55,5.55,0,0,0-.94,2.82,22.488,22.488,0,0,1-1,3.91,34.19,34.19,0,0,1-8.4,12.52l-.94.91a17.23,17.23,0,0,1-5.55,3.84,17,17,0,0,1-5.89.88c.89-2.33,1.62-3.94,1.62-3.94s2.92-9.26,7.72-14.06a7.08,7.08,0,0,1,5.09-2.14,75.189,75.189,0,0,0,9.26-13.77,27,27,0,1,1,48.57-19Z" transform="translate(359.924 90.143)" opacity="0.1"/>
    <path id="Path_640" data-name="Path 640" d="M278.39,416.28c-1.6-1.78-3.85-2.82-6-3.85a4.49,4.49,0,0,1-1.95-1.42,5.94,5.94,0,0,1-.6-2.45c-.75-5.22-5.61-8.83-10.44-10.95-6.22-2.72-13.69-3.89-19.66-.65-2.9,1.57-5.19,4.05-7.81,6.05-3.32,2.55-7.14,4.33-10.68,6.54s-6.92,5-8.6,8.86c-2.6,5.9-.65,12.68-.32,19.12.51,10.15-3.62,20.77-11.82,26.77a10.318,10.318,0,0,0-2.6,2.27,2.86,2.86,0,0,0-.21,3.24c.41.56,1.09.87,1.54,1.39.94,1.08.75,2.7.38,4.08A25.47,25.47,0,0,1,192.75,487c.14,1.06,1.42,1.47,2.47,1.63a56.1,56.1,0,0,0,8.39.61,14.05,14.05,0,0,0,11.73-4.72c5-4.71,9.23-10.58,10.36-17.33a5.71,5.71,0,0,1,.94-2.83,4.16,4.16,0,0,1,1.87-1.12c3.73-1.29,8-.66,11.59-2.23,4.68-2,7-7,9.45-11.59.08.88.24,1.76.38,2.63a35.75,35.75,0,0,1-.7,14.12c-.67,2.62-1.64,5.21-1.57,7.91.05,2,2.08,12.44,4.75,9.31s1.69-10,1.69-13.93a59.63,59.63,0,0,1,3.9-21.24c.64-1.69,1.37-3.36,1.86-5.1a28,28,0,0,1,.9-3,15.922,15.922,0,0,1,2.18-3.35l1.91-2.45c3.56-1.88,8.42-3.8,10.31.13.72,1.51,1.11,3.18,3,1.72,1.12-.88,1.48-2.59,1.77-3.89C281.15,426.84,282.13,420.43,278.39,416.28Z" transform="translate(359.924 90.143)" fill="#464353"/>
    <path id="Path_641" data-name="Path 641" d="M242.2,510.7c-.73-18.48-26.58-22.3-32.61-4.82-.05.12-.09.23-.13.35-3.94,11.84-2.22,41.8-2.22,41.8s.51,20.11,2.4,26.8,7.2,25.89,7.2,29,4.93,14.92,7,15.78,3.12,7.54,3.63,8.74,2.05,16.81,2.05,16.81,19.38-1.2,19.72-4.29S245,622.68,245,622.68s-3.41-6.18-3.85-11.15-3.18-7.2-2.66-10.63-1.55-5.15-1.55-7.38-1.54-8.23-1.54-8.23-3.26-2.57-2.74-5.66-4.63-9.26-3.26-11.49,1.71-7.72,1.71-7.72S232.79,535.73,234,529s8.23-17.49,8.23-17.49Z" transform="translate(359.924 90.143)" opacity="0.1"/>
    <path id="Path_642" data-name="Path 642" d="M241.4,619.05c-4.72,5-11.46,6.09-16.78,5.78-.62-2.34-1.52-5.21-2.83-5.76-2.08-.85-7-12.68-7-15.77s-5.32-22.3-7.2-29-2.4-26.8-2.4-26.8-1.72-30,2.23-41.79a1.02,1.02,0,0,1,.12-.36c6-17.47,31.88-13.65,32.61,4.82v.85s-7,10.81-8.23,17.49-2.92,31.4-2.92,31.4-.35,5.49-1.72,7.71,3.77,8.41,3.26,11.5,2.74,5.66,2.74,5.66,1.54,6,1.54,8.23,2.06,3.94,1.55,7.37,2.23,5.66,2.67,10.64a27.66,27.66,0,0,0,2.36,8.03Z" transform="translate(359.924 90.143)" opacity="0.1"/>
    <path id="Path_643" data-name="Path 643" d="M241.17,510.18c-.73-18.47-26.58-22.29-32.61-4.82l-.12.36c-3.95,11.83-2.23,41.79-2.23,41.79s.51,20.12,2.4,26.8,7.2,25.9,7.2,29,4.93,14.92,7,15.77,3.12,7.55,3.63,8.75,2.05,16.81,2.05,16.81,19.38-1.2,19.72-4.29-4.29-18.18-4.29-18.18-3.4-6.17-3.84-11.17-3.18-7.2-2.66-10.63-1.55-5.14-1.55-7.37-1.54-8.23-1.54-8.23-3.26-2.58-2.74-5.66-4.63-9.26-3.26-11.49,1.71-7.72,1.71-7.72,1.72-24.7,2.92-31.38,8.23-17.5,8.23-17.5S241.19,510.73,241.17,510.18Z" transform="translate(359.924 90.143)" fill="#9f9eff"/>
    <path id="Path_644" data-name="Path 644" d="M209.34,557.68c.51-.51,10.29-11.32,13.37-7.46S209.34,557.68,209.34,557.68Z" transform="translate(359.924 90.143)" opacity="0.1"/>
    <path id="Path_645" data-name="Path 645" d="M210.24,566c.38-.39,9.77-.77,12.09-6S210.24,566,210.24,566Z" transform="translate(359.924 90.143)" opacity="0.1"/>
    <g id="Group_39" data-name="Group 39" transform="translate(420.984 124.983)" opacity="0.1">
      <path id="Path_646" data-name="Path 646" d="M199.54,471.2a2.69,2.69,0,0,1,.51.94,4,4,0,0,0-.51-3.51c-.46-.52-1.13-.84-1.55-1.39l-.08-.15a2.67,2.67,0,0,0,.08,2.72C198.41,470.37,199.08,470.68,199.54,471.2Z" transform="translate(-61.06 -34.84)"/>
      <path id="Path_647" data-name="Path 647" d="M212.63,437.87v-2.92c-.18-3.49-.83-7.09-1-10.59-.2,4.29.76,8.8,1,13.17C212.63,437.64,212.62,437.75,212.63,437.87Z" transform="translate(-61.06 -34.84)"/>
      <path id="Path_648" data-name="Path 648" d="M252.71,480.83c-2.38,2.79-4.25-5.24-4.66-8.4a13.088,13.088,0,0,0-.09,1.66c.06,2,2.08,12.44,4.75,9.31,1.81-2.11,2-5.72,1.88-9.06C254.49,476.84,254.06,479.25,252.71,480.83Z" transform="translate(-61.06 -34.84)"/>
      <path id="Path_649" data-name="Path 649" d="M250.23,452.06a34.579,34.579,0,0,1,.37,4.07,35.091,35.091,0,0,0-.37-6.64c-.13-.88-.3-1.75-.38-2.63-2.47,4.61-4.76,9.55-9.44,11.58-3.63,1.58-7.86.95-11.6,2.24a4.21,4.21,0,0,0-1.87,1.12,5.7,5.7,0,0,0-.93,2.82c-1.14,6.76-5.38,12.63-10.37,17.33a14.1,14.1,0,0,1-11.73,4.73,55.991,55.991,0,0,1-8.38-.61,5.707,5.707,0,0,1-1.26-.33c-.39.44-.8.87-1.22,1.27.14,1.06,1.43,1.47,2.48,1.63a56,56,0,0,0,8.38.61,14.05,14.05,0,0,0,11.73-4.72c5-4.71,9.23-10.58,10.37-17.33a5.7,5.7,0,0,1,.93-2.83,4.211,4.211,0,0,1,1.87-1.12c3.74-1.29,8-.66,11.6-2.23,4.68-2,7-7,9.44-11.59C249.93,450.31,250.1,451.19,250.23,452.06Z" transform="translate(-61.06 -34.84)"/>
      <path id="Path_650" data-name="Path 650" d="M280.25,429.71c-.29,1.3-.66,3-1.77,3.88-1.88,1.47-2.26-.2-3-1.71-1.89-3.94-6.75-2-10.31-.13l-1.91,2.45a15.249,15.249,0,0,0-2.17,3.35,25.924,25.924,0,0,0-.91,3c-.49,1.74-1.21,3.41-1.86,5.1a59.771,59.771,0,0,0-3.93,21.25c0,.33,0,.69,0,1.05a59.749,59.749,0,0,1,3.91-19.73c.65-1.69,1.37-3.36,1.86-5.1a25.917,25.917,0,0,1,.91-3,15.492,15.492,0,0,1,2.17-3.35l1.91-2.45c3.56-1.88,8.42-3.8,10.31.13.73,1.51,1.11,3.18,3,1.72,1.11-.88,1.48-2.59,1.77-3.89a33.84,33.84,0,0,0,1-9.21,44.145,44.145,0,0,1-.98,6.64Z" transform="translate(-61.06 -34.84)"/>
    </g>
    <path id="Path_651" data-name="Path 651" d="M303.64,527.07l.53.36a2.12,2.12,0,0,1-.55-2.95l23.84-34.6a2.12,2.12,0,0,1,3-.54l-.53-.37a3.41,3.41,0,0,1,.87,4.74L308.38,526.2A3.41,3.41,0,0,1,303.64,527.07Z" transform="translate(359.924 90.143)" fill="#464353"/>
    <path id="Path_652" data-name="Path 652" d="M317.09,484.69h.49v46.26h-.49a1.74,1.74,0,0,1-1.74-1.74V486.43A1.74,1.74,0,0,1,317.09,484.69Z" transform="translate(703.864 0.243) rotate(34.56)" fill="#9f9eff"/>
    <rect id="Rectangle_5" data-name="Rectangle 5" width="0.43" height="3.77" rx="0.17" transform="translate(686.901 584.326) rotate(34.56)" fill="#464353"/>
    <g id="Group_40" data-name="Group 40" transform="translate(420.984 124.983)" opacity="0.1">
      <path id="Path_653" data-name="Path 653" d="M980.48,422.53a4.579,4.579,0,0,0,.31-1.66l.62-.31C981.11,421.22,980.81,421.88,980.48,422.53Z" transform="translate(-61.06 -34.84)" fill="url(#linear-gradient-2)"/>
    </g>
    <g id="Group_41" data-name="Group 41" transform="translate(420.984 124.983)" opacity="0.1">
      <path id="Path_654" data-name="Path 654" d="M1071,642.15a3.965,3.965,0,0,0-.16-.89c-.67-2.78-1.42-6-2.08-9,.32,1.42,1.42,6.21,2.33,10Z" transform="translate(-61.06 -34.84)" fill="url(#linear-gradient-3)"/>
    </g>
    <g id="Group_42" data-name="Group 42" transform="translate(420.984 124.983)" opacity="0.1">
      <path id="Path_655" data-name="Path 655" d="M972.64,288.48l.29-.19.05-.05Z" transform="translate(-61.06 -34.84)" fill="url(#linear-gradient-4)"/>
    </g>
    <path id="Path_656" data-name="Path 656" d="M1073.62,663.39c-1-1.33-1.65-5.9-1-7.6s1.56-19.45.82-20.77-4.8-3.18-4.85-3.21l-.18-.81c-.08-.37-.16-.74-.23-1.1a32.362,32.362,0,0,0,4.44-5.27,15.28,15.28,0,0,1-6.28-12.6c0-8.62-9.4-36.25-9.4-36.25s-5.38-7.74-3.36-11.49.22-14.81.22-14.81l4.26-6.86s.67-6.63,1.34-13.48-4-14.37-1.79-17.68-.9-19.88-.9-19.88-2-21.05-5.27-28.1v-.05a59.88,59.88,0,0,1-1.42-9.14c0-.78-.09-1.58-.1-2.39,5.28-9.47,13-23.53,12.74-24.77-.34-1.88,1.79-8.18,1.79-8.18l1.68-15.47s2.69-24.87,2.91-39.23-7.84-19.9-7.84-19.9a6,6,0,0,0-5.54,1.2,5.689,5.689,0,0,1,2.46-1.52l.57-.12a5.25,5.25,0,0,1,2.46.42h0c-.11-.09-.46-.33-1-.67a4.791,4.791,0,0,0,1.35-.4,3.62,3.62,0,0,0,1.66-1.75,4.161,4.161,0,0,0,.77-1.38h-.16a4.878,4.878,0,0,0,.27-2,9.159,9.159,0,0,0-2-4.5c-4.54-6-12.1-9.59-15.64-16.22-3-5.71-2.51-12.57-1.51-18.93s2.4-12.91.86-19.17a25.381,25.381,0,0,0-10-14.12,40.629,40.629,0,0,0-16.34-6.63c-2.73-.51-5.62-.82-8.25.06-2,.68-3.78,2-5.77,2.83-4.52,1.83-9.72.73-14.46,1.9a19.49,19.49,0,0,0-10.7,7.63,30.292,30.292,0,0,0-2.76,4.65,48.888,48.888,0,0,0-3.28,8.25c-.53,1.69-.24,2.76-.47,3.68a3.45,3.45,0,0,1-.81.71,4.29,4.29,0,0,0-1.21,1.74,5.9,5.9,0,0,0,0,5.83,8.7,8.7,0,0,0,.18,2.3,20.639,20.639,0,0,0,1.24,3.19,53.111,53.111,0,0,1,1.41,38.39c-.58.27-1.16.55-1.77.86,0,0-.38.3-1,.88-2.65,2.52-9.62,10.15-9.08,20.56.67,12.82,0,31.16,0,31.16S961.11,405.8,962,410c-.25,3.88,0,11,4.55,15.66a7.37,7.37,0,0,0,8.43,1.43c2.15-1,4.54-2.58,5.45-4.56-1.6,3.23-3.53,6.23-5.92,7.32-3.36,1.55-2.53,8.85-2.53,8.85s-3.74,4.42-3.07,6.41-5.37,4.2-2.24,7.07c.18.17.47.41.84.72h0a20.1,20.1,0,0,0-6,11,160.748,160.748,0,0,1-4.15,19.1,1.46,1.46,0,0,0-.85,2.46,8,8,0,0,1-1.23,2.31,42.32,42.32,0,0,0-4.07,5.12,1.46,1.46,0,0,0-1,1.39,1.267,1.267,0,0,0,0,.28c-1.22,2.26-1.85,4.58-.75,6.25,2.46,3.76,2.91,16.58,2.91,16.58s-.9,11.49,1.57,15.25,4.48,27.63-.9,34.7c0,0-1.79,16.36-1.12,17.9s-2.91,5.53-1.79,8.85,6.49,64.32,5.82,66.75c0,0,1.86-.27,4.51-.48-.06.44-.12.89-.19,1.35-.16,1.1-.34,2.26-.55,3.4a3.325,3.325,0,0,1-.13.7c-1-1.49-2.54-2.29-4.65-.5l-3.13,5.59s-4.59,8.73-9.57,9.5c-3.59.56-7.08,2.86-8.77,4.1-.65.49-1,.82-1,.82s-6.05,5,1.9,7.13a55.368,55.368,0,0,0,6.28,1.21,76.2,76.2,0,0,0,24.71-.65,41.262,41.262,0,0,1,6-.67c7.73-.28,10.36-2.21,10.36-2.21s.78-8.07,0-8.85a2.172,2.172,0,0,1-.29-.44C980.23,678.71,977,670,977,670s-.36,0-.81.54l-.15-.69a48.691,48.691,0,0,1-.94-7.36v-1.33a6.861,6.861,0,0,1,2.41,1.28s.9-6.64,0-11.28.68-23,2.69-27.63,2.47-22.32,1.79-24.09c0,0,3.59-15.69,2.24-18.79S990,549,990,549s3.58-6.85,2.69-7.73c0,0,5.82-3.76,5.15-6.63s5.37-6.19,5.37-6.19,5.38,13,7.17,15,1.86,14.81,4.07,17.46,5.11,16.58,8,20.34,14.56,13.7,16.36,25c0,0,10.52,16.14,10.07,21.22-.18,2.14,1.9,5,5.25,6.36l-.16,1.27-.42,3.53h0s-3.17.36-3.69,7.28-.38,14.52-1.87,16.51a22.777,22.777,0,0,0-2.74,4.2c-1.66,3.59-1.73,8.23,8.3,9.72,15.34,2.29,19.08-6.19,19.08-6.19a25.625,25.625,0,0,0,1.21-5,2.88,2.88,0,0,0-.22-1.76Z" transform="translate(359.924 90.143)" fill="url(#linear-gradient-5)"/>
    <path id="Path_657" data-name="Path 657" d="M972.67,303.44a19.92,19.92,0,0,0,1.2,3.14,53,53,0,0,1,.65,39.87c3.59-.23,7.17.35,10.76.63s7.29.23,10.62-1.17,6.24-4.41,6.72-8.12c.66-5-3-9.37-6.19-13.17s-6.4-8.15-7.37-13.2c-1.06-5.55.45-12.06-3.06-16.38a3.479,3.479,0,0,0-1.16-1c-1.89-.86-6.79-.83-8.69.24C973.23,295.92,972,300.26,972.67,303.44Z" transform="translate(359.924 90.143)" fill="#3e373a"/>
    <path id="Path_658" data-name="Path 658" d="M1072,665.58a25.27,25.27,0,0,1-1.18,4.91s-3.63,8.36-18.58,6.1c-9.76-1.47-9.69-6.05-8.07-9.59a22.8,22.8,0,0,1,2.66-4.15c1.45-2,1.31-9.45,1.82-16.28s3.59-7.19,3.59-7.19l.19,7.69c5.82-7.63,9.89,1.31,9.89,1.31s8.27.18,7.26-4.07c-1.08-4.51-2.69-11.67-2.69-11.67s4,1.86,4.73,3.17-.14,18.83-.8,20.5,0,6.18,1,7.49a2.839,2.839,0,0,1,.18,1.78Z" transform="translate(359.924 90.143)" fill="#e7c7ca"/>
    <path id="Path_659" data-name="Path 659" d="M1072,665.58a25.27,25.27,0,0,1-1.18,4.91s-3.63,8.36-18.58,6.1c-9.76-1.47-9.69-6.05-8.07-9.59,1.37,2,4.46,3.6,11.09,3C1065.4,669.2,1069.79,667.5,1072,665.58Z" transform="translate(359.924 90.143)" fill="#e7c7ca"/>
    <path id="Path_660" data-name="Path 660" d="M1072,665.58a25.27,25.27,0,0,1-1.18,4.91s-3.63,8.36-18.58,6.1c-9.76-1.47-9.69-6.05-8.07-9.59,1.37,2,4.46,3.6,11.09,3C1065.4,669.2,1069.79,667.5,1072,665.58Z" transform="translate(359.924 90.143)" opacity="0.1"/>
    <path id="Path_661" data-name="Path 661" d="M1069.21,643.86a8.14,8.14,0,0,1-5.7,7.77,11,11,0,0,1-9.58-1.46,5.65,5.65,0,0,1-2.37-5.28l.23-1.93.84-7,1.15-9.71s12.38-6.31,11.56-3.92c-.31.89.37,4.89,1.36,9.56.69,3.33,1.54,7,2.29,10.12a8.182,8.182,0,0,1,.22,1.85Z" transform="translate(359.924 90.143)" fill="#be6f72"/>
    <path id="Path_662" data-name="Path 662" d="M1050.8,643.33s10.72-12.59,19.5,1.15l-1.47,8.8h-18Z" transform="translate(359.924 90.143)" opacity="0.1"/>
    <path id="Path_663" data-name="Path 663" d="M1050.8,644.2s10.72-12.59,19.5,1.15l-1.47,8.8h-18Z" transform="translate(359.924 90.143)" fill="#e7c7ca"/>
    <circle id="Ellipse_434" data-name="Ellipse 434" cx="1.09" cy="1.09" r="1.09" transform="translate(1423.564 739.943)" fill="#4b4b5b"/>
    <circle id="Ellipse_435" data-name="Ellipse 435" cx="1.09" cy="1.09" r="1.09" transform="translate(1409.624 738.193)" fill="#4b4b5b"/>
    <circle id="Ellipse_436" data-name="Ellipse 436" cx="1.09" cy="1.09" r="1.09" transform="translate(1419.804 747.333)" fill="#4b4b5b"/>
    <circle id="Ellipse_437" data-name="Ellipse 437" cx="1.09" cy="1.09" r="1.09" transform="translate(1410.294 746.043)" fill="#4b4b5b"/>
    <circle id="Ellipse_438" data-name="Ellipse 438" cx="1.09" cy="1.09" r="1.09" transform="translate(1421.914 743.863)" fill="#4b4b5b"/>
    <circle id="Ellipse_439" data-name="Ellipse 439" cx="1.09" cy="1.09" r="1.09" transform="translate(1409.624 742.123)" fill="#4b4b5b"/>
    <circle id="Ellipse_440" data-name="Ellipse 440" cx="1.09" cy="1.09" r="1.09" transform="translate(1418.714 751.383)" fill="#4b4b5b"/>
    <circle id="Ellipse_441" data-name="Ellipse 441" cx="1.09" cy="1.09" r="1.09" transform="translate(1410.294 749.973)" fill="#4b4b5b"/>
    <path id="Path_664" data-name="Path 664" d="M979,678.77l-14.83,5s-7.85-7.85-5.67-10.25c.93-1,1.74-4.43,2.36-8,.2-1.12.38-2.27.54-3.36.51-3.55.81-6.53.81-6.53s17.23-8.28,14.39,0a20.56,20.56,0,0,0-.81,7.25,48.339,48.339,0,0,0,.92,7.26,68.52,68.52,0,0,0,2.29,8.63Z" transform="translate(359.924 90.143)" fill="#be6f72"/>
    <path id="Path_665" data-name="Path 665" d="M979,678.77l-14.83,5s-7.85-7.85-5.67-10.25c.93-1,1.74-4.43,2.36-8a15.392,15.392,0,0,1,1.73,4.84c12.82,7,13,2.83,13,2.83a7.71,7.71,0,0,1,1.09-3.05,68.523,68.523,0,0,0,2.32,8.63Z" transform="translate(359.924 90.143)" opacity="0.1"/>
    <path id="Path_666" data-name="Path 666" d="M982.25,690.22s-2.57,1.91-10.09,2.18a40.881,40.881,0,0,0-5.87.66,73,73,0,0,1-24,.65,50.7,50.7,0,0,1-6.12-1.2c-7.74-2.13-1.86-7-1.86-7s.38-.32,1-.81c1.64-1.23,5-3.49,8.53-4,4.85-.77,9.32-9.38,9.32-9.38l3-5.51c4.74-4.09,6.38,5.51,6.38,5.51,12.82,7,13,2.83,13,2.83.71-3.76,2-3.76,2-3.76s3.2,8.6,4.35,10.74a2.166,2.166,0,0,0,.29.44C983,682.26,982.25,690.22,982.25,690.22Z" transform="translate(359.924 90.143)" fill="#e7c7ca"/>
    <path id="Path_667" data-name="Path 667" d="M982.25,690.22s-2.57,1.91-10.09,2.18a40.881,40.881,0,0,0-5.87.66,73,73,0,0,1-24,.65,50.7,50.7,0,0,1-6.12-1.2c-7.74-2.13-1.86-7-1.86-7s.38-.32,1-.81c4.37,1,11.84,2.57,16.54,2.28,7-.43,13.74-1.56,13.74-1.56s12-3.77,16.4-4.33a2.172,2.172,0,0,0,.29.44C983,682.26,982.25,690.22,982.25,690.22Z" transform="translate(359.924 90.143)" fill="#e7c7ca"/>
    <path id="Path_668" data-name="Path 668" d="M982.25,690.22s-2.57,1.91-10.09,2.18a40.881,40.881,0,0,0-5.87.66,73,73,0,0,1-24,.65,50.7,50.7,0,0,1-6.12-1.2c-7.74-2.13-1.86-7-1.86-7s.38-.32,1-.81c4.37,1,11.84,2.57,16.54,2.28,7-.43,13.74-1.56,13.74-1.56s12-3.77,16.4-4.33a2.172,2.172,0,0,0,.29.44C983,682.26,982.25,690.22,982.25,690.22Z" transform="translate(359.924 90.143)" opacity="0.1"/>
    <circle id="Ellipse_442" data-name="Ellipse 442" cx="1.09" cy="1.09" r="1.09" transform="translate(1321.334 763.903)" fill="#4b4b5b"/>
    <circle id="Ellipse_443" data-name="Ellipse 443" cx="1.09" cy="1.09" r="1.09" transform="translate(1315.094 766.953)" fill="#4b4b5b"/>
    <circle id="Ellipse_444" data-name="Ellipse 444" cx="1.09" cy="1.09" r="1.09" transform="translate(1318.444 765.393)" fill="#4b4b5b"/>
    <circle id="Ellipse_445" data-name="Ellipse 445" cx="1.09" cy="1.09" r="1.09" transform="translate(1311.574 768.753)" fill="#4b4b5b"/>
    <path id="Path_669" data-name="Path 669" d="M976.57,655.65a20.56,20.56,0,0,0-.81,7.25c-3.87-1.3-10.21-1.07-14.39-.72.51-3.55.81-6.53.81-6.53S979.41,647.37,976.57,655.65Z" transform="translate(359.924 90.143)" opacity="0.1"/>
    <path id="Path_670" data-name="Path 670" d="M1066.7,631.85c-5.36,5.25-10.49,5.58-14.07,4.07l1.15-9.71s12.38-6.31,11.56-3.92C1065,623.18,1065.71,627.18,1066.7,631.85Z" transform="translate(359.924 90.143)" opacity="0.1"/>
    <path id="Path_671" data-name="Path 671" d="M972.65,452.83s-8.51,4.79-10,14.17-4.15,21.38-6.11,23.56-8.07,9.16-5.67,12.86,2.83,16.36,2.83,16.36-.87,11.34,1.53,15.05,4.36,27.26-.87,34.24c0,0-1.75,16.14-1.09,17.67s-2.84,5.45-1.75,8.72,6.33,63.47,5.67,65.87c0,0,16.58-2.4,20.94,1.52,0,0,.87-6.54,0-11.12s.66-22.68,2.62-27.26,2.4-22,1.74-23.78c0,0,3.49-15.48,2.18-18.53S990.31,551,990.31,551s3.49-6.76,2.62-7.63c0,0,5.67-3.71,5-6.55s5.23-6.1,5.23-6.1,5.24,12.86,7,14.83,1.81,14.61,4,17.23,5,16.35,7.82,20.06,14.17,13.52,15.92,24.65c0,0,10.25,15.92,9.81,20.93s11.56,14.18,23.12-2.83a15.13,15.13,0,0,1-6.1-12.43c0-8.51-9.16-35.77-9.16-35.77s-5.24-7.63-3.28-11.34.22-14.61.22-14.61l4.15-6.77s.65-6.54,1.3-13.3-3.92-14.18-1.74-17.45-.87-19.61-.87-19.61-2.72-28.18-6.76-29.89S972.65,452.83,972.65,452.83Z" transform="translate(359.924 90.143)" fill="#4b4b5b"/>
    <path id="Path_672" data-name="Path 672" d="M992.52,413.35s-4.48.51-9.92,1c-7.87.74-17.75,1.49-18.92.72-2-1.31,0-17.89,0-17.89s.68-18.1,0-30.75c-.54-10.26,6.26-17.8,8.84-20.28a12.635,12.635,0,0,1,1-.87l2.18,1.74,12.43,21.16Z" transform="translate(359.924 90.143)" fill="#be6f72"/>
    <path id="Path_673" data-name="Path 673" d="M1041.13,343.78l-12.21,7.41-20.07,15.27s-20.72-10.9-15.48-17.23a9.75,9.75,0,0,0,1.91-4.28c1.58-7.28-1.91-17.75-1.91-17.75s27.29-36.86,25.73-8.28c-.62,11.48,2.81,17.74,7.14,21.14C1032.69,345.11,1041.13,343.78,1041.13,343.78Z" transform="translate(359.924 90.143)" fill="#be6f72"/>
    <ellipse id="Ellipse_446" data-name="Ellipse 446" cx="25.26" cy="26.76" rx="25.26" ry="26.76" transform="translate(1338.314 374.383)" opacity="0.1"/>
    <ellipse id="Ellipse_447" data-name="Ellipse 447" cx="25.26" cy="26.76" rx="25.26" ry="26.76" transform="translate(1338.314 373.513)" fill="#be6f72"/>
    <path id="Path_674" data-name="Path 674" d="M1041.13,343.78l-12.21,7.41-20.07,15.27s-20.72-10.9-15.48-17.23a9.75,9.75,0,0,0,1.91-4.28c22.86,19.54,29.8-.68,31-4.89C1032.69,345.11,1041.13,343.78,1041.13,343.78Z" transform="translate(359.924 90.143)" opacity="0.1"/>
    <path id="Path_675" data-name="Path 675" d="M992.52,413.35s-4.48.51-9.92,1c-.21-4.7-.92-10-.79-13.24.22-5.45.22-6.11-1.53-9.16s-1.52-5.45-1.31-9.38c.21-3.76-.78-4.52-4.32-10.53l-.47-.81c-1.74-3-2.24-8.41-2.26-13.52a.06.06,0,0,0,0-.06c0-1.21,0-2.41.07-3.55V354c.13-3.45.41-6.4.56-7.8a12.635,12.635,0,0,1,1-.87l2.18,1.74,12.43,21.16Z" transform="translate(359.924 90.143)" opacity="0.1"/>
    <path id="Path_676" data-name="Path 676" d="M1059.67,349h-.05c-7.9-3.41-12.38,13.75-13.58,19.15-.22,1-.33,1.59-.33,1.59s.14,1.45.31,3.75c.59,7.72,1.61,25-.75,29.18a7.172,7.172,0,0,0-.56,1.4c-.74,2.56-.65,6.39-.27,10.12a99.718,99.718,0,0,0,1.93,11.38s5.23,13.31,3.05,22a32.261,32.261,0,0,0-.64,9.89,59.378,59.378,0,0,0,1.38,9c.21.87.35,1.36.35,1.36q-4.93,1.69-9.65,2.81a93.723,93.723,0,0,1-18.65,2.52c-29.49.94-49.12-13.19-53.76-17.05-.37-.3-.64-.54-.82-.71-3-2.83,2.84-5,2.18-7s3-6.32,3-6.32-.81-7.2,2.47-8.72,5.67-6.77,7.51-11.13-.32-15.7-.1-21.15.22-6.11-1.53-9.16-1.52-5.45-1.3-9.38c.21-3.76-.79-4.52-4.33-10.53l-.47-.81c-1.74-3-2.24-8.41-2.25-13.52v-.06c0-1.21,0-2.41.06-3.55V354c.18-4.84.66-8.67.66-8.67,17.45-8.95,21.59.37,21.59.37,25.52,22,31.31-5.48,31.31-5.48,13.89-4.75,32.16,8,33.2,8.78Z" transform="translate(359.924 90.143)" fill="#e7c7ca"/>
    <path id="Path_677" data-name="Path 677" d="M963.38,411.13s-2.18,11.64,4.13,18.14a7.08,7.08,0,0,0,8.21,1.41c2.1-1,4.45-2.56,5.33-4.52C982.78,422.29,977.34,403.39,963.38,411.13Z" transform="translate(359.924 90.143)" fill="#be6f72"/>
    <path id="Path_678" data-name="Path 678" d="M1045.27,402.66a7.172,7.172,0,0,0-.56,1.4l1-25.5.31-5.08C1046.61,381.2,1047.63,398.46,1045.27,402.66Z" transform="translate(359.924 90.143)" opacity="0.1"/>
    <path id="Path_679" data-name="Path 679" d="M1049.42,447.59a32.257,32.257,0,0,0-.64,9.89c-1.41,2.57-2.62,4.74-3.41,6.15l-1,1.74a40.9,40.9,0,0,0-3.54,5.31,10.362,10.362,0,0,0-1.47,4.31c0,3.35-3.38,25.71-19.41,20.15-10.36-3.59-3.75-14.59,2.23-21.94a82.838,82.838,0,0,1,6.38-7s1.85-2.36,3.63-4.82a29,29,0,0,0,3.13-5c.76-2.18,5.8-11.77,5.8-11.77s5-10.58,3.91-15.49c-.61-2.75-.68-9.54-.62-15a99.718,99.718,0,0,0,1.93,11.38S1051.6,438.87,1049.42,447.59Z" transform="translate(359.924 90.143)" opacity="0.1"/>
    <path id="Path_680" data-name="Path 680" d="M1059.67,349s7.85,5.46,7.63,19.63-2.83,38.71-2.83,38.71l-1.64,15.27s-2.07,6.22-1.74,8.07S1044,463.62,1044,463.62s-5,6.27-5,9.63-3.38,25.7-19.41,20.14,8.61-28.9,8.61-28.9,6-7.63,6.77-9.81,5.79-11.78,5.79-11.78,5-10.57,3.91-15.48-.44-22.72-.44-22.72l1.09-27.88.44-7.09S1049.75,346.18,1059.67,349Z" transform="translate(359.924 90.143)" fill="#be6f72"/>
    <path id="Path_681" data-name="Path 681" d="M976.38,401.05l11.91-4.32a5.61,5.61,0,0,1,5.79,1.2l15.79,14.91s.87,2.4-.29,2.29S991.41,398,991.41,398l-16.87,5.67h0a2.8,2.8,0,0,1,1.84-2.62Z" transform="translate(359.924 90.143)" fill="#9f9eff"/>
    <path id="Path_682" data-name="Path 682" d="M932.16,386.22l16.35-5.92-18.17-17.12-16.87,5.67Z" transform="translate(420.984 124.983)" fill="#4b4b5b"/>
    <circle id="Ellipse_448" data-name="Ellipse 448" cx="1.45" cy="1.45" r="1.45" transform="translate(1327.124 557.303)" fill="#e7c7ca"/>
    <circle id="Ellipse_449" data-name="Ellipse 449" cx="1.45" cy="1.45" r="1.45" transform="translate(1317.234 575.983)" fill="#e7c7ca"/>
    <circle id="Ellipse_450" data-name="Ellipse 450" cx="1.45" cy="1.45" r="1.45" transform="translate(1396.214 582.773)" fill="#e7c7ca"/>
    <circle id="Ellipse_451" data-name="Ellipse 451" cx="1.45" cy="1.45" r="1.45" transform="translate(1404.434 609.163)" fill="#e7c7ca"/>
    <circle id="Ellipse_452" data-name="Ellipse 452" cx="1.45" cy="1.45" r="1.45" transform="translate(1401.234 601.743)" fill="#e7c7ca"/>
    <circle id="Ellipse_453" data-name="Ellipse 453" cx="1.45" cy="1.45" r="1.45" transform="translate(1398.454 592.253)" fill="#e7c7ca"/>
    <circle id="Ellipse_454" data-name="Ellipse 454" cx="1.45" cy="1.45" r="1.45" transform="translate(1321.844 566.143)" fill="#e7c7ca"/>
    <circle id="Ellipse_455" data-name="Ellipse 455" cx="1.45" cy="1.45" r="1.45" transform="translate(1311.464 585.683)" fill="#e7c7ca"/>
    <path id="Path_683" data-name="Path 683" d="M1059.62,349h0c-7.9-3.41-12.38,13.75-13.58,19.15l-12.4-17.74s-5.08,8.14-21.52,9.37-20.42-12.5-20.42-12.5c-2.26-.18-12.47,18.2-16.18,24.8l-.47-.81c-1.74-3-2.24-8.41-2.25-13.52v-.06c0-1.18,0-2.37.06-3.55V354c.18-4.84.66-8.67.66-8.67,17.45-8.95,21.59.37,21.59.37,25.52,22,31.31-5.48,31.31-5.48C1040.31,335.45,1058.58,348.24,1059.62,349Z" transform="translate(359.924 90.143)" fill="#464353"/>
    <path id="Path_684" data-name="Path 684" d="M962.83,508.44c.22.55,18.54,21.7,25.3,22.79S962.83,508.44,962.83,508.44Z" transform="translate(359.924 90.143)" opacity="0.1"/>
    <path id="Path_685" data-name="Path 685" d="M976,476s.19,14.92-4.39,18.29S976,476,976,476Z" transform="translate(359.924 90.143)" opacity="0.1"/>
    <path id="Path_686" data-name="Path 686" d="M984.43,481.29s-.44,17.55,6.1,21.7C990.53,503,978.54,491.32,984.43,481.29Z" transform="translate(359.924 90.143)" opacity="0.1"/>
    <path id="Path_687" data-name="Path 687" d="M976.36,571.47s-12.22,9-15.6,9.71S976.36,571.47,976.36,571.47Z" transform="translate(359.924 90.143)" opacity="0.1"/>
    <path id="Path_688" data-name="Path 688" d="M973.31,294.52c-2.63,2.22-1.69,6.82,1,9s6.37,2.48,9.81,2.56c6.62.18,13.35-.21,19.77,1.42a16.13,16.13,0,0,1,7.58,3.88,17.1,17.1,0,0,1,3.94,7.85,43.069,43.069,0,0,1,1.35,13.14c-.16,3-.62,6-.2,8.91a29,29,0,0,0,2.78,7.93,329.683,329.683,0,0,0,16.85,31.25,5.9,5.9,0,0,0,2.2,2.41c1.57.76,3.42,0,5-.78a37.5,37.5,0,0,1-1.55-9.47,4.23,4.23,0,0,0,4.48-1.56,12.547,12.547,0,0,0,2-4.58l2.93-10.12c.91-3.12,2.26-6.71,5.38-7.63a20.3,20.3,0,0,0,3.3-.77,4.22,4.22,0,0,0,2-4.16,9,9,0,0,0-2-4.44c-4.41-5.94-11.77-9.46-15.22-16-3-5.63-2.45-12.4-1.47-18.68s2.34-12.74.83-18.91a25,25,0,0,0-9.72-13.93,39.27,39.27,0,0,0-15.91-6.54c-2.66-.51-5.47-.82-8,.05-2,.67-3.68,2-5.62,2.79-4.39,1.81-9.46.73-14.08,1.88a18.94,18.94,0,0,0-10.41,7.53,40,40,0,0,0-5.45,11.86c-.85,2.77.51,3.88-2,5.39" transform="translate(359.924 90.143)" opacity="0.1"/>
    <path id="Path_689" data-name="Path 689" d="M973.74,293.65c-2.63,2.22-1.68,6.82,1,9s6.36,2.47,9.8,2.56c6.62.17,13.35-.21,19.77,1.42a16,16,0,0,1,7.58,3.88,17.13,17.13,0,0,1,4,7.84,42.85,42.85,0,0,1,1.34,13.15c-.15,3-.62,6-.19,8.91a28.482,28.482,0,0,0,2.78,7.93,329.656,329.656,0,0,0,16.85,31.25,5.729,5.729,0,0,0,2.19,2.4c1.58.77,3.43,0,5-.77a38,38,0,0,1-1.54-9.47,4.26,4.26,0,0,0,4.48-1.56,12.511,12.511,0,0,0,2-4.59l2.94-10.11c.91-3.13,2.25-6.71,5.37-7.63a19.818,19.818,0,0,0,3.3-.77,4.23,4.23,0,0,0,2-4.16,8.889,8.889,0,0,0-2-4.44c-4.41-5.94-11.78-9.47-15.22-16-3-5.62-2.45-12.39-1.47-18.67s2.33-12.74.83-18.91a25.121,25.121,0,0,0-9.73-13.94,39.22,39.22,0,0,0-15.9-6.54,15.86,15.86,0,0,0-8,.06c-2,.67-3.68,2-5.62,2.79-4.4,1.81-9.47.73-14.08,1.88a18.92,18.92,0,0,0-10.41,7.52,39.92,39.92,0,0,0-5.46,11.87c-.85,2.77.52,3.88-2,5.39" transform="translate(359.924 90.143)" fill="#3e373a"/>
    <path id="Path_690" data-name="Path 690" d="M971,412.48s20-13.31,25.63-5.13-17.56,18.21-17.56,18.21Z" transform="translate(359.924 90.143)" fill="#be6f72"/>
    <path id="Path_691" data-name="Path 691" d="M977.54,349.26c-.08,1.28-.32,2.85-1,3.09,1.86-.05,3.7,1.32,5.55.91,1.37-.3,2.67-1.64,3.5-3.61a1.64,1.64,0,0,1,.47-.77c.19-.11.4,0,.6.12a58.305,58.305,0,0,1,10,7.57c1,1,2.16,2,3.28,1.49a25,25,0,0,0-2.14-10.49,13.38,13.38,0,0,0-5.72-6.26,17.54,17.54,0,0,0-6.72-1.75,6.58,6.58,0,0,1-2.9-.72c-1-.58-4.15-4.36-4.86-1.61-.35,1.33.09,4.16.1,5.64C977.71,345,977.66,347.14,977.54,349.26Z" transform="translate(359.924 90.143)" fill="#3e373a"/>
    <g id="Group_43" data-name="Group 43" transform="translate(420.984 124.983)" opacity="0.1">
      <path id="Path_692" data-name="Path 692" d="M1040.69,379.78a5.731,5.731,0,0,1-2.19-2.4,327.463,327.463,0,0,1-16.85-31.25,28.482,28.482,0,0,1-2.78-7.93c-.43-2.95,0-5.94.19-8.92a42.832,42.832,0,0,0-1.35-13.14,17.06,17.06,0,0,0-3.94-7.84,16,16,0,0,0-7.58-3.88c-6.42-1.63-13.15-1.25-19.77-1.42-3.44-.09-7.12-.42-9.8-2.56a6.78,6.78,0,0,1-2.24-7.19,4.569,4.569,0,0,1-.56.45c-2.57,2.23-1.62,6.78,1,8.92s6.37,2.47,9.8,2.56c6.63.17,13.35-.21,19.77,1.42a16,16,0,0,1,7.59,3.88,17.111,17.111,0,0,1,3.94,7.84,43.174,43.174,0,0,1,1.35,13.15c-.16,3-.63,6-.2,8.91a28.48,28.48,0,0,0,2.78,7.93,329.711,329.711,0,0,0,16.85,31.25,5.689,5.689,0,0,0,2.2,2.4c1.57.77,3.42,0,5-.77-.14-.44-.26-.88-.37-1.32a4,4,0,0,1-2.84-.09Z" transform="translate(-61.06 -34.84)"/>
      <path id="Path_693" data-name="Path 693" d="M973.53,293.89l.29-.19v-.05Z" transform="translate(-61.06 -34.84)"/>
      <path id="Path_694" data-name="Path 694" d="M975.56,291.51l-.28.19.33-.23h-.05c2.07-1.41.87-2.54,1.68-5.2a40.539,40.539,0,0,1,5.32-11.66,25.288,25.288,0,0,0-1.61,2,40.139,40.139,0,0,0-5.45,11.87,18.582,18.582,0,0,0-.43,3.53,4.785,4.785,0,0,1,.49-.5Z" transform="translate(-61.06 -34.84)"/>
      <path id="Path_695" data-name="Path 695" d="M1062.27,344.88a19.808,19.808,0,0,1-3.3.76,6.42,6.42,0,0,0-3.65,3.23,5.071,5.071,0,0,1,1.91-1,19.937,19.937,0,0,0,3.29-.77,3.69,3.69,0,0,0,1.81-2.22Z" transform="translate(-61.06 -34.84)"/>
      <path id="Path_696" data-name="Path 696" d="M1044.15,369.54c0,.75.07,1.51.14,2.26a4.94,4.94,0,0,0,2.59-1.64,7.705,7.705,0,0,0,.86-1.35A3.87,3.87,0,0,1,1044.15,369.54Z" transform="translate(-61.06 -34.84)"/>
    </g>
    <path id="Path_697" data-name="Path 697" d="M966.19,409.88s5.26-2.13,8.35-1.65" transform="translate(359.924 90.143)" opacity="0.1"/>
    <path id="Path_698" data-name="Path 698" d="M981.36,433.85s2.67,4.15,16.17,5.89S981.36,433.85,981.36,433.85Z" transform="translate(359.924 90.143)" opacity="0.1"/>
    <path id="Path_699" data-name="Path 699" d="M976.5,449.34s12.15,10.68,31.63,6.76S976.5,449.34,976.5,449.34Z" transform="translate(359.924 90.143)" opacity="0.1"/>
    <path id="Path_700" data-name="Path 700" d="M656.12,303c-.28-.31-.57-.62-.86-.92,2.25-2.55,4.58-5.17,4.56-8.45,0-4-3.56-7-4.88-10.83-1.8-5.13.69-10.63,1.72-16a30,30,0,0,0-6.49-24.66,8.65,8.65,0,0,0-3.8-2.9c-2.35-.74-4.86.29-7.31.59-8.1,1-15.47-6-23.6-5.35a4.43,4.43,0,0,0-1.57.35,6.6,6.6,0,0,0-2.27,2.57c-2.53,3.72-6.78,5.57-11,7.48a5.939,5.939,0,0,0-1.5.68,41.406,41.406,0,0,0-3.69,1.91c-8,4.72-6.82,11.32-2.12,15.4-.92,4.58-5.6,8.61-4.79,13.31.63,3.69,4.47,6.2,5.21,9.88a9.87,9.87,0,0,1-1.18,6.17c-8.92,2.07-19,5.87-19.79,12.58-1.37,11.68-5.49,43.92-5.49,43.92s-4.77,25.83,13.36,13.62l-.23.68a149.672,149.672,0,0,0-6.65,30.45c-.19,1.54-.56,2.75-1.23,3.15-.24.14.24.37,1.29.66-.12.43-.25.86-.36,1.3a123.354,123.354,0,0,0-3.81,23.06,161.182,161.182,0,0,1-2.84,20.54c-4.3,21.6,0,49.31,0,49.31l9.37,44.12,1.6,7.55a11.23,11.23,0,0,0,3.8,2.74,59.353,59.353,0,0,1,1.3,8.21,4.17,4.17,0,0,0,.07.93,3.89,3.89,0,0,0-2.78,1.74c-3.34,4.69.47,8.45-12.41,17.84-3.33,2.43-4.93,4.64-5.34,6.51h0a4.39,4.39,0,0,0,2.21,4.76h0a7.744,7.744,0,0,0,.9.5h0c.16.07.32.15.49.21h0l.51.19h0l.5.16h0l.54.14h0l.51.11h.06l.56.09h.06l.5.06H572l.57-.06h.07l.51-.07h.14l.56-.11h.06l.51-.12h.14l.55-.16h0l.52-.18.14-.06.54-.21c8.59-3.76,26.24-13.62,26.24-13.62v-1.23a1.763,1.763,0,0,0,0-.23V571h0c-.09-4.1-.5-13.53-2.36-13.16-.64.12-1.07,1-1.52,2.05l-.22-.42c-1.82-3.51-4.45-9.53-4.71-15.41a27.718,27.718,0,0,0,4.06-3.6s-1-4-1.78-8.3c-.7-3.69-1.3-7.55-1.08-9.08.47-3.29-5.73-28.65-5.73-28.65s.64-5.58,1.92-13.33c2.5-15.07,7.41-38.36,14.75-44.95.17-.15.34-.3.51-.43,0,0,5.25.94,9.54,30.53l1.25,13.18A75,75,0,0,0,619,490.21a57,57,0,0,1,1.19,17.32c-.54,7.77-.77,16.91-.87,23.33-.08,4.84-.08,8.14-.08,8.14a18.464,18.464,0,0,0,2.86,2v4.31a3.61,3.61,0,0,1-1,2.45h0a6.759,6.759,0,0,0-1.44,2.65c-.83,1.5-1.54,3.94-1.83,7.86-1,12.68-1.43,11.27-1.43,11.27a16.712,16.712,0,0,0-1.08,4.27h0a7.683,7.683,0,0,0-.05.83v.51a1.149,1.149,0,0,1,0,.19v.7a.705.705,0,0,0,.07.34c.07.11,0,.1,0,.14a3.358,3.358,0,0,0,.1.34s0,.07,0,.11l.12.3a.556.556,0,0,0,0,.08,2.2,2.2,0,0,0,.18.34l.06.08a3.489,3.489,0,0,0,.22.31l.06.07.29.3h0l.33.26h.06a3.612,3.612,0,0,0,.39.22h.08a3.007,3.007,0,0,0,.45.18h.08a2.983,2.983,0,0,1,.53.14h0a4.9,4.9,0,0,0,.59.09h1.95l.82-.09c10-1.41,14.79-2.35,14.31-8-.29-3.4-1.1-8.33-1.69-11.72a17.86,17.86,0,0,0-1.65-4.94c0-.26.05-.53.07-.81a17.91,17.91,0,0,0-.55-7l.22-4.11a13.1,13.1,0,0,0,6.46-3.87s.07-3,.28-7.09c.32-6.24,1-14.85,2.11-18.27,1.91-5.64,0-25.36,0-25.36s-7.16-33.82-.48-48.38c5.89-12.84,5.84-25.69.17-38.21a2.233,2.233,0,0,0,.31-.3s-1.43-.94-1-11.74c.37-8.25-2-16.76-3.21-20.33a49.768,49.768,0,0,0,5.6,2c11,3.29,11.93-8.92,11.93-8.92L657,344.09l2.83-27.3h0C660.58,314.64,661.62,309.29,656.12,303Zm-48.51-18.09a6.806,6.806,0,0,1-.06.9,12.371,12.371,0,0,1-.61,2.85,18.672,18.672,0,0,0,.59-3.81Zm28.85,66.67c.17.31.33.62.48.91l-1.2-.61a27.109,27.109,0,0,1,2.15-6.4,44.646,44.646,0,0,0,2.91-7.38,74.314,74.314,0,0,0,.43,8.79c.95,7.53-4.77,4.71-4.77,4.71Z" transform="translate(359.924 90.143)" fill="url(#linear-gradient-6)"/>
    <path id="Path_701" data-name="Path 701" d="M596,249.49c-1.53,1-3.12,2.24-3.67,4-.87,2.84,1.33,5.7,1.54,8.67.4,5.4-5.71,9.86-4.81,15.2.62,3.66,4.37,6.15,5.09,9.79,1.06,5.31-4.7,10-4.24,15.38.24,2.88,2.24,5.32,4.5,7.1a21.93,21.93,0,0,0,11,4.51c-.27-4.62-3.69-8.82-3.11-13.41.41-3.14,2.62-5.71,3.9-8.62,2.25-5.09,1.53-11,.18-16.39S603.1,265,603,259.41c-.06-3.35,1.51-8.27.36-11.45C602,244.09,598.61,247.71,596,249.49Z" transform="translate(359.924 90.143)" fill="#7e656a"/>
    <path id="Path_702" data-name="Path 702" d="M596,249.62c-1.53,1-3.12,2.24-3.67,4-.87,2.85,1.33,5.71,1.54,8.68.4,5.4-5.71,9.86-4.81,15.2.62,3.66,4.37,6.15,5.09,9.79,1.06,5.31-4.7,10-4.24,15.38.24,2.87,2.24,5.31,4.5,7.09a21.85,21.85,0,0,0,11,4.52c-.27-4.62-3.69-8.82-3.11-13.41.41-3.14,2.62-5.72,3.9-8.62,2.25-5.09,1.53-11,.18-16.39s-3.29-10.75-3.39-16.32c-.06-3.35,1.51-8.28.36-11.46C602,244.22,598.61,247.84,596,249.62Z" transform="translate(359.924 90.143)" opacity="0.1"/>
    <path id="Path_703" data-name="Path 703" d="M600.46,561.24l-4.19,4.19s-14.91,7.92-13-2.79a38.561,38.561,0,0,0,.32-9.63,59.723,59.723,0,0,0-2.65-13.19l14-2.8c-2.32,7.3,1.51,16.5,3.9,21.18A30.371,30.371,0,0,0,600.46,561.24Z" transform="translate(359.924 90.143)" fill="#ffb9b9"/>
    <path id="Path_704" data-name="Path 704" d="M632.2,552.77a42,42,0,0,1-.53,4.28S620,565,619.09,556.12c-.6-5.77.77-8.37,1.8-9.49h0a3.63,3.63,0,0,0,1-2.43V533.76L632.13,537l-.46,8.85A18,18,0,0,1,632.2,552.77Z" transform="translate(359.924 90.143)" fill="#ffb9b9"/>
    <path id="Path_705" data-name="Path 705" d="M600.46,561.24l-4.19,4.19s-14.91,7.92-13-2.79a38.561,38.561,0,0,0,.32-9.63c3.26-.48,7.13,3.11,7.13,3.11,5.46,7.7,6.93,4.79,8.09,2.08A33.992,33.992,0,0,0,600.46,561.24Z" transform="translate(359.924 90.143)" opacity="0.05"/>
    <path id="Path_706" data-name="Path 706" d="M590.68,557.05s-6.52-6.06-9.78-1.4.46,8.39-12.11,17.7,0,15.37,8.38,11.65,25.62-13.51,25.62-13.51,0-15.37-2.33-14.91S598.6,568.23,590.68,557.05Z" transform="translate(359.924 90.143)" fill="#8189a6"/>
    <path id="Path_707" data-name="Path 707" d="M632.2,552.77a42,42,0,0,1-.53,4.28S620,565,619.09,556.12c-.6-5.77.77-8.37,1.8-9.49a2.79,2.79,0,0,1,2.86-.29c1.86-.83,3.91.55,5.61,2.34A16.659,16.659,0,0,1,632.2,552.77Z" transform="translate(359.924 90.143)" opacity="0.05"/>
    <path id="Path_708" data-name="Path 708" d="M623.75,547.27s-5.12-2.8-6.06,9.78-1.39,11.18-1.39,11.18-4.66,11.18,5.12,9.78,14.44-2.33,14-7.92c-.28-3.37-1.06-8.26-1.65-11.61a17,17,0,0,0-4.38-8.87C627.66,547.82,625.61,546.44,623.75,547.27Z" transform="translate(359.924 90.143)" fill="#8189a6"/>
    <path id="Path_709" data-name="Path 709" d="M640.52,487.65s1.86,19.56,0,25.15c-1.13,3.39-1.75,11.93-2.06,18.12-.2,4-.27,7-.27,7-8.85,9.32-19.1,0-19.1,0s0-3.27.08-8.06c.09-6.37.32-15.44.85-23.14a57.219,57.219,0,0,0-1.17-17.18,76.672,76.672,0,0,1-1.8-10.74l-1.22-13.07c-4.19-29.35-9.31-30.28-9.31-30.28-.17.13-.33.28-.5.42-7.16,6.54-12,29.63-14.39,44.58-1.26,7.69-1.88,13.22-1.88,13.22s6,25.16,5.59,28.42c-.22,1.51.37,5.34,1.06,9,.8,4.22,1.73,8.23,1.73,8.23-11.64,12.58-19.56,2.79-19.56,2.79L577,534.66l-9.14-43.75s-4.2-27.48,0-48.91a163.948,163.948,0,0,0,2.78-20.37,123.808,123.808,0,0,1,3.71-22.87q.85-3.31,1.89-6.6a229.879,229.879,0,0,1,34-3c12.35,0,24.13,1.71,27.52,7.7q1.18,2.07,2.14,4.15a44.62,44.62,0,0,1,.19,38.7C633.53,454.11,640.52,487.65,640.52,487.65Z" transform="translate(359.924 90.143)" fill="#4b4b5b"/>
    <path id="Path_710" data-name="Path 710" d="M601.39,318.57s-24.68-25.15-6-23.29c4.22.42,7.08-.33,9-1.75a9,9,0,0,0,3.32-6.65,27.52,27.52,0,0,0-1.59-10.7s25.15-20,20,5.13a43.268,43.268,0,0,0-1,7.77c-.08,5.34,1.67,7.38,4.14,8.22,4.15,1.42,10.33-.57,13.14,4C647.5,309.72,601.39,318.57,601.39,318.57Z" transform="translate(359.924 90.143)" fill="#ffb9b9"/>
    <path id="Path_711" data-name="Path 711" d="M626.08,281.31a43.263,43.263,0,0,0-1,7.77,18.209,18.209,0,0,1-2,.58,19.66,19.66,0,0,1-4.43.5,19.93,19.93,0,0,1-11-3.28,27.52,27.52,0,0,0-1.59-10.7S631.2,256.16,626.08,281.31Z" transform="translate(359.924 90.143)" opacity="0.05"/>
    <path id="Path_712" data-name="Path 712" d="M638.65,269.2a20,20,0,0,1-15.59,19.53,19.659,19.659,0,0,1-4.43.5,20,20,0,0,1-20-20v-1.12a20.008,20.008,0,1,1,40,1.12Z" transform="translate(359.924 90.143)" fill="#ffb9b9"/>
    <path id="Path_713" data-name="Path 713" d="M601.39,318.57s-24.68-25.15-6-23.29c4.22.42,7.08-.33,9-1.75-3.61,6-7.66,16.74,10.58,15.72,16.7-.92,16.41-7.58,14.34-11.95,4.15,1.42,10.33-.57,13.14,4C647.5,309.72,601.39,318.57,601.39,318.57Z" transform="translate(359.924 90.143)" opacity="0.05"/>
    <path id="Path_714" data-name="Path 714" d="M640.52,402.88c-4.24,5.51-58.27-1.72-66.17-4.12q.85-3.31,1.89-6.6a229.883,229.883,0,0,1,34-3c12.35,0,24.13,1.71,27.52,7.7q1.18,2.07,2.14,4.15C640.15,402.63,640.52,402.88,640.52,402.88Z" transform="translate(359.924 90.143)" opacity="0.1"/>
    <path id="Path_715" data-name="Path 715" d="M606.52,291.09s-31.44,2.56-32.84,14.67c-1.34,11.58-5.36,43.55-5.36,43.55s-4.66,25.62,13,13.51l-.22.68a151.1,151.1,0,0,0-6.5,30.2c-.18,1.52-.54,2.73-1.19,3.12-2.33,1.4,62.41,10.71,67.07,4.66,0,0-1.4-.93-.93-11.65s-3.73-21.89-3.73-21.89-3.73-11.18,1.4-21.89,3.26-14,3.26-14l17.7-13.51s3.82-6.55-3.17-14.64a24.2,24.2,0,0,0-16.63-8.2l-12.21-.87s13.38,14.39-11.78,15.79S606.52,291.09,606.52,291.09Z" transform="translate(359.924 90.143)" fill="#c3c7d9"/>
    <path id="Path_716" data-name="Path 716" d="M585.56,316.71s.93,7.45-.94,9.78-2.32,13,0,19.56" transform="translate(359.924 90.143)" opacity="0.05"/>
    <path id="Path_717" data-name="Path 717" d="M606,435.9c-7.16,6.54-12,29.63-14.39,44.58-3.4-20.81,10.69-55.25,10.69-55.25Z" transform="translate(359.924 90.143)" opacity="0.1"/>
    <path id="Path_718" data-name="Path 718" d="M598.13,539.35c-11.64,12.58-19.56,2.79-19.56,2.79L577,534.66c4.41,2.29,11.84,4.07,19.4-3.54C597.2,535.34,598.13,539.35,598.13,539.35Z" transform="translate(359.924 90.143)" opacity="0.1"/>
    <path id="Path_719" data-name="Path 719" d="M638.46,530.92c-.2,4-.27,7-.27,7-8.85,9.32-19.1,0-19.1,0s0-3.27.08-8.06A19.19,19.19,0,0,0,638.46,530.92Z" transform="translate(359.924 90.143)" opacity="0.1"/>
    <rect id="Rectangle_6" data-name="Rectangle 6" width="31.67" height="13.04" rx="3.75" transform="translate(947.804 422.693)" fill="#cdd0db"/>
    <rect id="Rectangle_7" data-name="Rectangle 7" width="31.67" height="13.04" rx="3.75" transform="translate(947.804 422.693)" opacity="0.05"/>
    <rect id="Rectangle_8" data-name="Rectangle 8" width="31.67" height="13.04" rx="3.75" transform="translate(947.804 423.153)" fill="#5e5a6b"/>
    <circle id="Ellipse_456" data-name="Ellipse 456" cx="1.4" cy="1.4" r="1.4" transform="translate(971.324 428.043)" fill="#9da7c0"/>
    <path id="Path_720" data-name="Path 720" d="M574.4,353.2a9.1,9.1,0,0,1,5.27-5.55,8.25,8.25,0,0,0,4.51-4c1.84-4.07,5.1-8.26,13.49-5.47s-2.33,4.66-2.33,4.66,19.09-2.79,11.64,2.8a71.7,71.7,0,0,1-16.77,8.85l-4.58,4.85a6.86,6.86,0,0,1-10.24-.2,5.92,5.92,0,0,1-.99-5.94Z" transform="translate(359.924 90.143)" opacity="0.05"/>
    <path id="Path_721" data-name="Path 721" d="M573.94,352.26a9.06,9.06,0,0,1,5.26-5.54,8.28,8.28,0,0,0,4.52-4.06c1.84-4.06,5.1-8.25,13.48-5.46s-2.33,4.66-2.33,4.66,19.1-2.8,11.65,2.79a71.46,71.46,0,0,1-16.77,8.85l-4.59,4.86a6.86,6.86,0,0,1-10.24-.2,6,6,0,0,1-.98-5.9Z" transform="translate(359.924 90.143)" fill="#ffb9b9"/>
    <path id="Path_722" data-name="Path 722" d="M639.59,361.89l-3.26,7.92-4.18-3.07-11.66-8.58L612.57,353c-11.18-8.39,0-9.78,0-9.78-4.19-1.87,0-3.73,0-3.73,14.91-3.26,12.11,8.85,12.11,8.85l9.44,4.9,3.14,1.62Z" transform="translate(359.924 90.143)" opacity="0.05"/>
    <path id="Path_723" data-name="Path 723" d="M640.52,361l-3.26,7.91-4.18-3.07-11.66-8.57-7.92-5.12c-11.18-8.39,0-9.79,0-9.79-4.19-1.86,0-3.72,0-3.72,14.91-3.26,12.11,8.85,12.11,8.85l9.44,4.89,3.14,1.63Z" transform="translate(359.924 90.143)" fill="#ffb9b9"/>
    <path id="Path_724" data-name="Path 724" d="M640.52,361l-3.26,7.91-4.18-3.07c3.78.14,8.24-1.69,2-13.46l3.14,1.63Z" transform="translate(359.924 90.143)" opacity="0.05"/>
    <path id="Path_725" data-name="Path 725" d="M657.75,313.91l.9,3.67-2.76,27.07-2.33,18.17s-.93,12.11-11.64,8.85-11.65-6.52-11.65-6.52,15.37,5.12,5.59-13c0,0,5.59,2.79,4.66-4.66s0-20.5,0-20.5Z" transform="translate(359.924 90.143)" fill="#c3c7d9"/>
    <path id="Path_726" data-name="Path 726" d="M638.65,269.2a20,20,0,0,1-15.59,19.53,10.119,10.119,0,0,1-.66-5.82c.94-3.81,5.34-6.59,4.85-10.48a2.639,2.639,0,0,0-.44-1.22c-1-1.29-3-.65-4.58-.33a8.72,8.72,0,0,1-9.75-6,13.6,13.6,0,0,1-13.85,3.2,20.008,20.008,0,1,1,40,1.12Z" transform="translate(359.924 90.143)" opacity="0.05"/>
    <path id="Path_727" data-name="Path 727" d="M613,263.94a8.71,8.71,0,0,0,9.74,6c1.59-.32,3.6-1,4.58.33a2.539,2.539,0,0,1,.44,1.22c.49,3.89-3.9,6.67-4.84,10.47s1.88,7.71,2.49,11.7a44.326,44.326,0,0,1,0,6.62c0,2.21.52,4.59,2.16,6.07s4.67,1.5,5.76-.42c5.25,2.77,3.15,11.35,7.13,15.75,2.2,2.42,5.81,3,9.06,2.69a3.82,3.82,0,0,0,2.13-.68,3.71,3.71,0,0,0,1-2,15.86,15.86,0,0,0-.4-9.42c-.52-1.45-1.27-2.91-1.08-4.44a6.55,6.55,0,0,1,1.62-3.17c2.5-3.1,5.91-6.1,5.89-10.08s-3.48-7-4.77-10.73c-1.76-5.09.68-10.55,1.68-15.84a30,30,0,0,0-6.34-24.45,8.39,8.39,0,0,0-3.7-2.88c-2.3-.74-4.74.29-7.14.59-7.9,1-15.1-5.93-23-5.31a4.22,4.22,0,0,0-1.53.35,6.5,6.5,0,0,0-2.22,2.55c-3.51,5.24-10.4,6.73-15.8,10C580,258.38,600.88,275.56,613,263.94Z" transform="translate(359.924 90.143)" fill="#7e656a"/>
    <path id="Path_728" data-name="Path 728" d="M577.17,583.13c-5.44,2.42-12.65.72-13.6-3.32-1.14,5.33,7.38,8,13.6,5.19,8.39-3.73,25.62-13.51,25.62-13.51v-1.85C602.26,569.92,585.43,579.46,577.17,583.13Z" transform="translate(359.924 90.143)" fill="#fff" opacity="0.3"/>
    <path id="Path_729" data-name="Path 729" d="M635.37,569.82c-.54,4.19-5.18,5.07-14,6.33-4.46.63-5.91-1.34-6.18-3.68-.29,3,.56,6.34,6.18,5.54,9.78-1.4,14.44-2.33,14-7.92A2.46,2.46,0,0,0,635.37,569.82Z" transform="translate(359.924 90.143)" fill="#fff" opacity="0.3"/>
    <g id="Group_44" data-name="Group 44" transform="translate(420.984 124.983)" opacity="0.1">
      <path id="Path_730" data-name="Path 730" d="M651.34,322.33c-3.26.31-6.87-.27-9.07-2.69-4-4.4-1.88-13-7.12-15.75-1.1,1.92-4.13,1.9-5.77.42s-2.13-3.86-2.16-6.07.33-4.43,0-6.62c-.61-4-3.47-7.78-2.49-11.7s5.34-6.58,4.84-10.47a2.44,2.44,0,0,0-.44-1.22c-1-1.29-3-.65-4.58-.33a8.71,8.71,0,0,1-9.74-6c-10.79,10.39-28.59-2.24-21-11.81-11.88,9.65,7.61,24.75,19.12,13.68a8.71,8.71,0,0,0,9.74,6c1.59-.32,3.6-1,4.58.34a2.46,2.46,0,0,1,.44,1.21c.49,3.89-3.9,6.67-4.84,10.47s1.88,7.71,2.49,11.71a44.326,44.326,0,0,1,0,6.62c0,2.21.52,4.58,2.16,6.06s4.67,1.5,5.76-.42c5.24,2.77,3.15,11.36,7.13,15.75,2.2,2.42,5.81,3,9.06,2.69a3.82,3.82,0,0,0,2.13-.68,3,3,0,0,0,.86-1.37,6.1,6.1,0,0,1-1.1.18Z" transform="translate(-61.06 -34.84)"/>
      <path id="Path_731" data-name="Path 731" d="M613.47,236.85l.48-.73h-.12a6.57,6.57,0,0,0-2.22,2.55c-.22.32-.45.64-.69.93A13.131,13.131,0,0,0,613.47,236.85Z" transform="translate(-61.06 -34.84)"/>
    </g>
    <path id="Path_732" data-name="Path 732" d="M587.88,367.15s-1.2,4.2,6.72,6.06S587.88,367.15,587.88,367.15Z" transform="translate(359.924 90.143)" opacity="0.1"/>
    <path id="Path_733" data-name="Path 733" d="M584.42,379.57s-4,2.95,5.71,8.08S584.42,379.57,584.42,379.57Z" transform="translate(359.924 90.143)" opacity="0.1"/>
    <path id="Path_734" data-name="Path 734" d="M575.35,428.79s11-3.1,12.47-7.76S575.35,428.79,575.35,428.79Z" transform="translate(359.924 90.143)" opacity="0.1"/>
    <path id="Path_735" data-name="Path 735" d="M575.35,487.79s4.72,2.33,7.72,2S575.35,487.79,575.35,487.79Z" transform="translate(359.924 90.143)" opacity="0.1"/>
    <path id="Path_736" data-name="Path 736" d="M577,494.31a15.779,15.779,0,0,0,6.07,1.24C587,495.71,577,494.31,577,494.31Z" transform="translate(359.924 90.143)" opacity="0.1"/>
    <ellipse id="Ellipse_457" data-name="Ellipse 457" cx="19.1" cy="2.62" rx="19.1" ry="2.62" transform="translate(1175.364 780.343)" fill="#3dc06e" opacity="0.1"/>
    <ellipse id="Ellipse_458" data-name="Ellipse 458" cx="19.1" cy="2.62" rx="19.1" ry="2.62" transform="translate(1102.214 787.763)" fill="#3dc06e" opacity="0.1"/>
    <ellipse id="Ellipse_459" data-name="Ellipse 459" cx="19.1" cy="2.62" rx="19.1" ry="2.62" transform="translate(1016.054 777.723)" fill="#3dc06e" opacity="0.1"/>
    <ellipse id="Ellipse_460" data-name="Ellipse 460" cx="13.58" cy="1.86" rx="13.58" ry="1.86" transform="translate(1137.014 809.643)" fill="#3dc06e" opacity="0.1"/>
    <ellipse id="Ellipse_461" data-name="Ellipse 461" cx="13.58" cy="1.86" rx="13.58" ry="1.86" transform="translate(1061.094 807.783)" fill="#3dc06e" opacity="0.1"/>
    <path id="Path_737" data-name="Path 737" d="M761,699.65s26.79-87.8-4.19-123c-23.17-26.31-49.47-23.16-61.25-19.9a21.74,21.74,0,0,0-14,11.67c-4.12,8.89-3.37,23.31,25.7,40.14,48.67,28.18,51.7,66.84,51.7,66.84Z" transform="translate(359.924 90.143)" fill="#3dc06e"/>
    <path id="Path_738" data-name="Path 738" d="M699.73,569.23S778.68,593.91,761,699.65" transform="translate(359.924 90.143)" fill="none" stroke="#565987" stroke-miterlimit="10" stroke-width="1"/>
    <path id="Path_739" data-name="Path 739" d="M745.85,578.08s-10.87,7.32-7.42,18.33" transform="translate(359.924 90.143)" fill="none" stroke="#565987" stroke-miterlimit="10" stroke-width="1"/>
    <path id="Path_740" data-name="Path 740" d="M707.65,584.6s6.65-6.76,14.74-3" transform="translate(359.924 90.143)" fill="none" stroke="#565987" stroke-miterlimit="10" stroke-width="1"/>
    <path id="Path_741" data-name="Path 741" d="M738.86,618.6s11.67-5.92,14.69,1.5" transform="translate(359.924 90.143)" fill="none" stroke="#565987" stroke-miterlimit="10" stroke-width="1"/>
    <path id="Path_742" data-name="Path 742" d="M767.74,630.94s-8.76-.69-8.92,3.5" transform="translate(359.924 90.143)" fill="none" stroke="#565987" stroke-miterlimit="10" stroke-width="1"/>
    <path id="Path_743" data-name="Path 743" d="M762.07,700.35s-31.37-63.82-40-62.42c-4.09.67-6,4.69-6.83,8.74A25.67,25.67,0,0,0,717,662.2C721.41,672.41,733.37,691.8,762.07,700.35Z" transform="translate(359.924 90.143)" fill="#3dc06e"/>
    <path id="Path_744" data-name="Path 744" d="M722.32,650s32.92,47.75,39.28,49.84" transform="translate(359.924 90.143)" fill="none" stroke="#565987" stroke-miterlimit="10" stroke-width="1"/>
    <line id="Line_11" data-name="Line 11" x2="7.69" transform="translate(1079.204 747.643)" fill="none" stroke="#565987" stroke-miterlimit="10" stroke-width="1"/>
    <line id="Line_12" data-name="Line 12" x2="12.04" y2="0.51" transform="translate(1088.414 765.113)" fill="none" stroke="#565987" stroke-miterlimit="10" stroke-width="1"/>
    <line id="Line_13" data-name="Line 13" x1="1.31" y2="6.28" transform="translate(1094.434 751.133)" fill="none" stroke="#565987" stroke-miterlimit="10" stroke-width="1"/>
    <line id="Line_14" data-name="Line 14" x1="0.23" y2="5.7" transform="translate(1108.324 770.233)" fill="none" stroke="#565987" stroke-miterlimit="10" stroke-width="1"/>
    <path id="Path_745" data-name="Path 745" d="M761.14,700.35s31.36-63.82,40-62.42c4.09.67,6,4.69,6.83,8.74a25.67,25.67,0,0,1-1.71,15.53C801.79,672.41,789.84,691.8,761.14,700.35Z" transform="translate(359.924 90.143)" fill="#3dc06e"/>
    <path id="Path_746" data-name="Path 746" d="M800.89,650S768,697.79,761.6,699.88" transform="translate(359.924 90.143)" fill="none" stroke="#565987" stroke-miterlimit="10" stroke-width="1"/>
    <line id="Line_15" data-name="Line 15" x1="7.68" transform="translate(1156.154 747.643)" fill="none" stroke="#565987" stroke-miterlimit="10" stroke-width="1"/>
    <line id="Line_16" data-name="Line 16" x1="12.05" y2="0.51" transform="translate(1142.584 765.113)" fill="none" stroke="#565987" stroke-miterlimit="10" stroke-width="1"/>
    <line id="Line_17" data-name="Line 17" x2="1.3" y2="6.28" transform="translate(1147.304 751.133)" fill="none" stroke="#565987" stroke-miterlimit="10" stroke-width="1"/>
    <line id="Line_18" data-name="Line 18" x2="0.23" y2="5.7" transform="translate(1134.494 770.233)" fill="none" stroke="#565987" stroke-miterlimit="10" stroke-width="1"/>
    <path id="Path_747" data-name="Path 747" d="M707.28,715.25a5.39,5.39,0,0,1-1.79-2.69,2.41,2.41,0,0,1,1.25-2.75c1.14-.44,2.37.36,3.3,1.16s2,1.72,3.2,1.55a4.93,4.93,0,0,1-1.51-4.57,1.93,1.93,0,0,1,.42-.93c.64-.68,1.79-.39,2.55.15,2.43,1.7,3.1,5,3.12,8a15.612,15.612,0,0,0,0-3.28,3.36,3.36,0,0,1,1.23-2.89,3.79,3.79,0,0,1,1.88-.45,3.85,3.85,0,0,1,3,.87,3,3,0,0,1-.12,3.74,11.59,11.59,0,0,1-3.15,2.52,7.111,7.111,0,0,0-2.25,2.15,2.3,2.3,0,0,0-.17.39H711.5a19.26,19.26,0,0,1-4.22-2.97Z" transform="translate(359.924 90.143)" fill="#3dc06e"/>
    <path id="Path_748" data-name="Path 748" d="M826.8,689.55a5.44,5.44,0,0,1-1.78-2.69,2.4,2.4,0,0,1,1.25-2.75c1.14-.44,2.37.36,3.29,1.16s2,1.72,3.21,1.55a4.88,4.88,0,0,1-1.51-4.57,1.928,1.928,0,0,1,.42-.93c.64-.68,1.79-.39,2.55.15,2.42,1.7,3.1,5,3.11,7.95a15,15,0,0,0,0-3.28,3.31,3.31,0,0,1,1.23-2.89,3.789,3.789,0,0,1,1.88-.45,3.87,3.87,0,0,1,3,.87,3,3,0,0,1-.12,3.74,11.74,11.74,0,0,1-3.15,2.52,7,7,0,0,0-2.25,2.15,2.6,2.6,0,0,0-.17.38H831A19.112,19.112,0,0,1,826.8,689.55Z" transform="translate(359.924 90.143)" fill="#3dc06e"/>
    <path id="Path_749" data-name="Path 749" d="M787,715.25a5.46,5.46,0,0,1-1.79-2.69,2.41,2.41,0,0,1,1.25-2.75c1.15-.44,2.37.36,3.3,1.16s2,1.72,3.21,1.55a4.88,4.88,0,0,1-1.51-4.57,1.839,1.839,0,0,1,.42-.93c.63-.68,1.78-.39,2.55.15,2.42,1.7,3.09,5,3.11,8a15,15,0,0,0,0-3.28,3.36,3.36,0,0,1,1.23-2.89,3.79,3.79,0,0,1,1.88-.45,3.85,3.85,0,0,1,3,.87,3,3,0,0,1-.12,3.74,11.59,11.59,0,0,1-3.15,2.52,7.22,7.22,0,0,0-2.25,2.15,2.3,2.3,0,0,0-.17.39h-6.82A19.265,19.265,0,0,1,787,715.25Z" transform="translate(359.924 90.143)" fill="#3dc06e"/>
    <path id="Path_750" data-name="Path 750" d="M674,663.3s-2.56,3.35,1.18,8.4,6.83,9.31,5.58,12.46c0,0-5.64-9.38-10.24-9.51S668.94,668.94,674,663.3Z" transform="translate(359.924 90.143)" fill="#3dc06e"/>
    <path id="Path_751" data-name="Path 751" d="M674,663.3a4.191,4.191,0,0,0-.52,1.05c-4.48,5.26-6.87,10.18-2.56,10.3,4,.11,8.82,7.29,10,9.1a1.247,1.247,0,0,1-.14.41c-.05.13-5.64-9.38-10.24-9.51S668.94,668.94,674,663.3Z" transform="translate(359.924 90.143)" opacity="0.1"/>
    <path id="Path_752" data-name="Path 752" d="M669.23,667.56c0,1.18.14,2.14.3,2.14s.3-1,.3-2.14-.17-.62-.33-.62S669.23,666.39,669.23,667.56Z" transform="translate(359.924 90.143)" fill="#ffd037"/>
    <path id="Path_753" data-name="Path 753" d="M667.6,669c1,.56,1.94.9,2,.76s-.7-.72-1.74-1.28-.62-.15-.7,0S666.57,668.41,667.6,669Z" transform="translate(359.924 90.143)" fill="#ffd037"/>
    <path id="Path_754" data-name="Path 754" d="M687.51,663.3s2.56,3.35-1.18,8.4-6.83,9.31-5.58,12.46c0,0,5.64-9.38,10.23-9.51S692.56,668.94,687.51,663.3Z" transform="translate(359.924 90.143)" fill="#3dc06e"/>
    <path id="Path_755" data-name="Path 755" d="M687.51,663.3a4.191,4.191,0,0,1,.52,1.05c4.48,5.26,6.87,10.18,2.56,10.3-4,.11-8.82,7.29-10,9.1a1.247,1.247,0,0,0,.14.41c.05.13,5.64-9.38,10.23-9.51S692.56,668.94,687.51,663.3Z" transform="translate(359.924 90.143)" opacity="0.1"/>
    <path id="Path_756" data-name="Path 756" d="M692.26,667.56c0,1.18-.13,2.14-.29,2.14s-.3-1-.3-2.14.17-.62.33-.62S692.26,666.39,692.26,667.56Z" transform="translate(359.924 90.143)" fill="#ffd037"/>
    <path id="Path_757" data-name="Path 757" d="M693.9,669c-1,.56-1.94.9-2,.76s.7-.72,1.73-1.28.63-.15.71,0S694.93,668.41,693.9,669Z" transform="translate(359.924 90.143)" fill="#ffd037"/>
    <path id="Path_758" data-name="Path 758" d="M691.45,683.73s-7.16-.23-9.31-1.76-11-3.37-11.54-.91-10.75,12.25-2.68,12.31,18.77-1.25,20.92-2.56S691.45,683.73,691.45,683.73Z" transform="translate(359.924 90.143)" fill="#a8a8a8"/>
    <path id="Path_759" data-name="Path 759" d="M667.78,692.52c8.08.06,18.77-1.26,20.92-2.57,1.64-1,2.29-4.58,2.51-6.23h.24s-.45,5.77-2.61,7.08-12.84,2.63-20.92,2.56c-2.33,0-3.13-.84-3.09-2.07C665.16,692,666.05,692.5,667.78,692.52Z" transform="translate(359.924 90.143)" opacity="0.2"/>
    <ellipse id="Ellipse_462" data-name="Ellipse 462" cx="34.72" cy="5.13" rx="34.72" ry="5.13" transform="translate(927.994 880.553)" fill="#3dc06e" opacity="0.1"/>
    <ellipse id="Ellipse_463" data-name="Ellipse 463" cx="34.72" cy="5.13" rx="34.72" ry="5.13" transform="translate(1012.054 926.603)" fill="#3dc06e" opacity="0.1"/>
    <ellipse id="Ellipse_464" data-name="Ellipse 464" cx="22.99" cy="2.57" rx="22.99" ry="2.57" transform="translate(1383.684 860.173)" fill="#3dc06e" opacity="0.1"/>
    <ellipse id="Ellipse_465" data-name="Ellipse 465" cx="22.99" cy="2.57" rx="22.99" ry="2.57" transform="translate(1287.214 883.113)" fill="#3dc06e" opacity="0.1"/>
    <ellipse id="Ellipse_466" data-name="Ellipse 466" cx="22.99" cy="2.57" rx="22.99" ry="2.57" transform="translate(1238.764 929.163)" fill="#3dc06e" opacity="0.1"/>
    <ellipse id="Ellipse_467" data-name="Ellipse 467" cx="27.19" cy="4.67" rx="27.19" ry="4.67" transform="translate(684.874 945.973)" fill="#3dc06e" opacity="0.1"/>
    <path id="Path_760" data-name="Path 760" d="M364.27,813.57s-37.85,19.56-18.29,42.6c0,0,1.84,5,7.16,4.65,0,0-1.06-1.94,3-3.49a19.771,19.771,0,0,0,4.09-2.17,9.64,9.64,0,0,0,3.66-4.9h0s7.74-10.36,1.74-29.53c0,0,.77-5.42.1-6.29l-4.6,6.31s4.75,3.19,5.3,7.87c0,0-5-7.86-6-7-.22.18-2.29,3.45-2.29,3.45s8.25,5.59,8.86,12.85c0,0-4.64-10.16-9.65-11.61l-2.84,5.12s9,5.48,10,13.72c0,0-5.22-10.46-10.56-12.56L351.83,838s8.68,5.52,9.48,12.38c0,0-7.26-11.48-9.88-11.11,0,0-1.63,5.08-1.41,6.64,0,0,6.13,4.1,6.24,8.13,0,0-5.66-7.15-6.53-6.68,0,0-.37,7.19,1.38,10.93,0,0-3-5.33-2.51-10.93a12,12,0,0,0-3.63,5.85s-1.63-4,3.74-7.59c0,0,.51-5.59,1.13-6.28,0,0-5.81,2.83-8.28,6.32,0,0,.91-5.19,8.78-7.77l2-5.48s-7.88,3.34-10.31,6.28c0,0,1.75-5.16,10.93-7.63l2.72-5s-7,2.36-10.42,5c0,0,2.65-4.43,11.26-6.46l2.21-3.16s-5.08,1.82-6.5,2.47-1.7.33-1.7.33a18.29,18.29,0,0,1,9.11-4.14S364.62,813.91,364.27,813.57Z" transform="translate(359.924 90.143)" fill="#3dc06e"/>
    <g transform="matrix(1, 0, 0, 1, 421, 125)" filter="url(#iconmonstr-whatsapp-1)">
      <path id="iconmonstr-whatsapp-1-2" data-name="iconmonstr-whatsapp-1" d="M.057,86.918,6.167,64.6a43.067,43.067,0,1,1,16.724,16.33L.057,86.918ZM23.949,73.131c6.07,3.6,11.864,5.762,19.528,5.766A35.812,35.812,0,1,0,7.691,43.068c0,8.058,2.358,14.092,6.323,20.4L10.4,76.683l13.552-3.553ZM65.187,53.342c-.268-.449-.985-.717-2.064-1.257s-6.367-3.144-7.355-3.5-1.7-.54-2.423.54-2.781,3.5-3.408,4.219-1.257.808-2.332.268a29.373,29.373,0,0,1-8.656-5.342,32.4,32.4,0,0,1-5.986-7.457c-.627-1.076-.065-1.659.471-2.195.485-.482,1.076-1.257,1.615-1.887a7.059,7.059,0,0,0,1.086-1.793,1.979,1.979,0,0,0-.091-1.887c-.272-.536-2.423-5.834-3.317-7.989-.876-2.1-1.764-1.814-2.423-1.847l-2.064-.036a3.943,3.943,0,0,0-2.868,1.347A12.076,12.076,0,0,0,21.605,33.5c0,5.3,3.857,10.416,4.393,11.133s7.587,11.589,18.383,16.25a62.27,62.27,0,0,0,6.135,2.267,14.792,14.792,0,0,0,6.78.427c2.068-.308,6.367-2.6,7.265-5.117s.9-4.672.627-5.121Z" transform="translate(610.94 126.57)" fill="#3dc06e"/>
    </g>
    <g transform="matrix(1, 0, 0, 1, 421, 125)" filter="url(#iconmonstr-instagram-11)">
      <path id="iconmonstr-instagram-11-2" data-name="iconmonstr-instagram-11" d="M61.193,11.03c16.338,0,18.276.061,24.732.357,16.583.755,24.329,8.623,25.084,25.084.3,6.451.352,8.389.352,24.727s-.061,18.276-.352,24.727c-.76,16.446-8.485,24.329-25.084,25.084-6.456.3-8.383.357-24.732.357s-18.276-.061-24.727-.357c-16.624-.76-24.329-8.664-25.084-25.089-.3-6.451-.357-8.383-.357-24.727s.066-18.271.357-24.727c.76-16.456,8.485-24.329,25.084-25.084,6.456-.291,8.389-.352,24.727-.352Zm0-11.03c-16.619,0-18.7.071-25.227.367C13.743,1.387,1.392,13.717.372,35.961.071,42.493,0,44.574,0,61.193S.071,79.9.367,86.425c1.02,22.223,13.35,34.574,35.594,35.594,6.532.3,8.613.367,25.232.367s18.7-.071,25.232-.367c22.2-1.02,34.584-13.35,35.589-35.594.3-6.527.372-8.613.372-25.232s-.071-18.7-.367-25.227c-1-22.2-13.345-34.574-35.589-35.594C79.9.071,77.812,0,61.193,0Zm0,29.77A31.425,31.425,0,1,0,92.615,61.193,31.424,31.424,0,0,0,61.193,29.77Zm0,51.82a20.4,20.4,0,1,1,20.4-20.4A20.4,20.4,0,0,1,61.193,81.59Zm32.667-60.4a7.343,7.343,0,1,0,7.338,7.343A7.346,7.346,0,0,0,93.86,21.188Z" transform="translate(747 281.59)" fill="#3dc06e"/>
    </g>
    <g transform="matrix(1, 0, 0, 1, 421, 125)" filter="url(#iconmonstr-twitter-1)">
      <path id="iconmonstr-twitter-1-2" data-name="iconmonstr-twitter-1" d="M126.252,14.395a51.714,51.714,0,0,1-14.877,4.077,25.944,25.944,0,0,0,11.389-14.33,51.888,51.888,0,0,1-16.45,6.286,25.919,25.919,0,0,0-44.141,23.62A73.532,73.532,0,0,1,8.79,6.988,25.936,25.936,0,0,0,16.8,41.57,25.792,25.792,0,0,1,5.076,38.33,25.921,25.921,0,0,0,25.85,64.054a25.962,25.962,0,0,1-11.7.442,25.921,25.921,0,0,0,24.2,17.986A52.08,52.08,0,0,1,0,93.213a73.327,73.327,0,0,0,39.706,11.636c48.092,0,75.262-40.616,73.621-77.045a52.735,52.735,0,0,0,12.925-13.409Z" transform="translate(15 285.65)" fill="#3dc06e"/>
    </g>
  </g>
</svg>
