<svg id="undraw_connected_world_wuay" xmlns="http://www.w3.org/2000/svg" width="825.187" height="419.838" viewBox="0 0 825.187 419.838">
  <g id="undraw_connected_world_wuay-2" data-name="undraw_connected_world_wuay" transform="translate(-21.697 -63.952)" opacity="0.05">
    <path id="Path_762" data-name="Path 762" d="M271.659,257.241a27.3,27.3,0,0,0-1.785-6.832,3.092,3.092,0,0,0-1.572-1.936,3.239,3.239,0,0,0-1.56-.017l-8.01,1.226a3.07,3.07,0,0,0-1.827.71c-1.043,1.1-.016,2.864-.048,4.377a4.115,4.115,0,0,1-3.188,3.541,12.051,12.051,0,0,1-5.066-.063l-11.2-1.74a18.467,18.467,0,0,0,8.473-5.654c1.474-1.746,2.258-5.006.128-5.833a5.23,5.23,0,0,0-1.945-.156c-5.074.04-9.067-4.2-13.818-5.982a15.278,15.278,0,0,0-17.194,5.126l5.966.288a2.648,2.648,0,0,1,1.589.424c1.307,1.074-.318,3.138-.134,4.82.239,2.186,3.141,2.652,5.329,2.873s4.963,2,3.91,3.929c-10.995,3.787-22.183-7.4-33.73-6.025-2.922.349-5.682,1.5-8.535,2.219-17.43,4.41-35.449-7.356-53.254-4.864a67.626,67.626,0,0,0-11.625,3.066c-2.423.8-4.951,1.656-6.712,3.5s-2.431,5-.763,6.931a39.008,39.008,0,0,1-13.67-1.3,7.658,7.658,0,0,1,3.937,6.749,81.108,81.108,0,0,0-20.778,6.335,34.992,34.992,0,0,0,4.3,5.729l-9.088,5.839a5.186,5.186,0,0,1,2.872,7.575c3.184-1.416,5.157-5.08,8.561-5.823,2.23-.487,4.5.426,6.615,1.283s4.441,1.688,6.631,1.045,3.806-3.483,2.414-5.293a113.325,113.325,0,0,1,28.786-4.5,3.609,3.609,0,0,1,2.18.414c1.269.88.935,2.782.867,4.325s1.134,3.571,2.513,2.876c-1.623,1.407-.236,4.056,1.321,5.535s3.433,3.521,2.48,5.446c-.249.5-.671.9-.91,1.411-.706,1.5.415,3.24,1.738,4.234s2.943,1.688,3.862,3.064.5,3.784-1.142,3.976l-4.671-5.93a12.16,12.16,0,0,0-3.155,5.979,12.546,12.546,0,0,1,1.551,17.162c-2.119,2.489-5.132,4-7.762,5.944s-5.064,4.707-5.057,7.976c.011,5.648-.45,10.9,1.666,16.132A248.5,248.5,0,0,0,144.645,385.5c1.335,2.387,3.06,5,5.763,5.414q-5.125-12.477-9.228-25.343c1.781.007,3.84.148,4.884,1.592.865,1.195.679,2.82.948,4.27A13.229,13.229,0,0,0,148.7,375.4l16.317,29.065c1.353,2.409,2.9,5,5.489,5.972,1.653.624,3.565.506,5.086,1.4,1.192.7,2,1.954,3.211,2.617,3.437,1.875,8.217-1.721,11.429.518a32.16,32.16,0,0,1,2.349,2.39c2.967,2.569,7.833.851,11.258,2.767,2.207,1.235,3.351,3.706,4.528,5.944,2.949,5.608,7.721,11.1,14.041,11.548,1.985.14,4.013-.236,5.954.205s3.851,2.135,3.539,4.1c-.534,3.37,1.131,7.06.684,10.442-.814,6.161-9.554,8.869-10.3,15.038a34.9,34.9,0,0,1-.229,4.067c-.394,1.621-1.611,2.94-2.044,4.551-.82,3.052,1.367,6.09,3.77,8.144s5.268,3.824,6.582,6.7c1.388,3.038.706,6.581,1.158,9.891.986,7.226,7.227,12.583,13.65,16.037,1.957,1.052,4.058,2.071,5.325,3.9,1.653,2.383,1.488,5.524,2.041,8.371,1.352,6.973,7.222,12.718,7.389,19.819.118,5.047-2.687,9.625-4.363,14.388A33.553,33.553,0,0,0,258.3,591.1a44.57,44.57,0,0,1,3.64,6.408c1.583,4.1,1.069,8.751,2.528,12.891,1.929,5.475,7.23,10,6.723,15.779,2.407,5,7.721,7.453,13.065,8.941l9.577,2.666a12.307,12.307,0,0,0,5.617.655c1.867-.37,3.649-1.92,3.6-3.823-4.7-1.059-9.544-2.185-13.415-5.047s-6.524-7.958-5.055-12.543c.681-2.126,2.13-4.581.753-6.338-.789-1.006-2.231-1.269-3.121-2.186-1.388-1.431-.911-3.836.087-5.562s2.44-3.268,2.842-5.221a5.448,5.448,0,0,0-2.553-5.668,13.541,13.541,0,0,0,4.74-3.041c1.247-1.424,1.822-3.618.842-5.237,2.912.369,6.35.55,8.262-1.678,1.527-1.779,1.422-4.438.819-6.7s-1.623-4.465-1.654-6.809a124.081,124.081,0,0,0,20.131-.683,13.054,13.054,0,0,0-6.121-7.665c3.026-.512,5.782-4.134,6.738-7.05a18.14,18.14,0,0,0,.121-9.1,4.885,4.885,0,0,1-.091-2.385,4.648,4.648,0,0,1,2.394-2.315l15.019-8.625a8.748,8.748,0,0,0,2.4-1.773c1.573-1.848,1.34-4.638.535-6.928s-2.1-4.443-2.407-6.85c-.928-7.2,6.779-12.366,9.38-19.143a28.845,28.845,0,0,0,1.426-8.393c.212-3.052.228-6.6-2.116-8.565-2.247-1.886-5.757-1.465-8.108-3.219-2.155-1.608-2.9-4.731-5.254-6.03-2.138-1.179-4.819-.429-7.2-.984-4.187-.977-6.823-5.8-11.1-6.25-2.413-.252-5.144.927-7.121-.478-1.743-1.238-1.812-3.727-2.144-5.839a16.306,16.306,0,0,0-13.161-13.2c-2.488-.4-5.2-.247-7.312-1.615-2.143-1.384-3.126-3.976-4.809-5.894-2.713-3.09-6.986-4.188-10.989-5.129l-16.282-3.828c-2.89-.68-6.616-1.04-8.167,1.492a11.7,11.7,0,0,0-.966,3.038,9.41,9.41,0,0,1-8.849,6.661,10.465,10.465,0,0,0-6.171-4.775c-1.651-.46-3.418-.511-4.993-1.188a7.014,7.014,0,0,1-3.043-9.729,8.73,8.73,0,0,0-1.492-10.5c-2.769-2.486-6.774-3.086-10.487-2.838-.972-2.122.653-4.516,2.406-6.057s3.88-3.058,4.261-5.36c.6-3.622-4.021-6.373-7.53-5.293s-5.748,4.488-7.229,7.848a23.1,23.1,0,0,1-2.911,5.583c-1.34,1.625-3.5,2.789-5.538,2.268-2.889-.738-4.005-4.171-4.645-7.084-.858-3.908-1.721-7.87-1.541-11.867s1.527-8.1,4.475-10.807c4.8-4.409,12.171-3.977,18.653-3.274a4.737,4.737,0,0,1,.486-6.257,7.114,7.114,0,0,1,6.448-1.584,8.885,8.885,0,0,1,5,2.987c1.842,2.246,2.366,5.278,3.758,7.827s4.523,4.723,7.085,3.356c2.213-1.181,2.565-4.25,2.014-6.7s-1.721-4.828-1.521-7.328c.381-4.772,5.327-7.644,9.692-9.609s9.363-4.608,10.055-9.345a8.522,8.522,0,0,1,.518-2.716,5.327,5.327,0,0,1,1.954-1.838C263.986,335.123,276.938,326.6,291.5,322c.758-.239.846.027,1.618-.161,1.08-.624.365-2.352-.671-3.048s-2.421-1.23-2.683-2.45c-.193-.9.335-1.777.472-2.684a3.351,3.351,0,0,0-4.4-3.4c-1.17-1.549,1.145-3.349,3.016-3.864a81.9,81.9,0,0,1,17.207-2.811,3.1,3.1,0,0,1,1.958.333c.977.677.853,2.23.16,3.2a18.813,18.813,0,0,1-2.633,2.391,7.188,7.188,0,0,0-1.865,7.23c3.038,1.545,6.341,3.136,9.706,2.592s6.351-4.325,4.77-7.344c-1.473-2.812-5.9-3.446-6.657-6.527-.891-3.608,4.217-6.817,3.066-10.35-.5-1.548-2.047-2.459-3.23-3.576a9.7,9.7,0,0,1-2.124-10.76,12.243,12.243,0,0,1-10.737-3.36c-2.568-2.592-4.617-6.681-8.264-6.565-3.347.106-6.229,4.011-9.359,2.82-.77-.293-1.582-.889-2.328-.54a1.923,1.923,0,0,0-.868,1.441c-.8,3.8.573,8.134-1.5,11.42-2.255,3.575-7.471,4.071-10.2,7.295-1.484,1.75-2.059,4.108-3.423,5.954s-4.259,3.018-5.9,1.41a8.127,8.127,0,0,0-2.208-9.882,21.68,21.68,0,0,0-4.876-2.372,28.918,28.918,0,0,1-5.448-3.036,5.365,5.365,0,0,1-2-2.14,4.877,4.877,0,0,1,.137-3.384,13.836,13.836,0,0,1,11.011-9.126c2.179-.3,4.716-.192,6.159-1.853.763-.879,1.164-2.207,2.271-2.564a3.35,3.35,0,0,1,2.1.258l8.135,2.863a5.71,5.71,0,0,0,2.9.479,1.965,1.965,0,0,0,1.7-2.065c-.26-1.351-2.339-2-2.15-3.362a2.245,2.245,0,0,1,.681-1.145,29.085,29.085,0,0,1,23.068-9.109c1.027,1.686-.6,3.683-1.948,5.123s-2.437,4.012-.8,5.12a4.48,4.48,0,0,0,2.166.488,18.912,18.912,0,0,1,5.765,1.749q4.217,1.835,8.272,4.016a10.487,10.487,0,0,1,.209-5.327c.676-1.667,2.6-2.974,4.273-2.325,1.616.625,2.445,2.766,4.167,2.962,2.3.262,3.2-3.132,2.244-5.235s-2.859-3.865-3.017-6.171c-.107-1.556.485-3.486-.758-4.428a3.383,3.383,0,0,0-1.466-.514l-31.034-5.711c-1.843-.339-4.505-.079-4.587,1.793-.046,1.045.888,2.079.474,3.039-.441,1.025-1.891.932-2.946,1.294-1.638.563-2.46,2.508-2.3,4.233a11.779,11.779,0,0,0,1.944,4.77C276.734,258.241,273.678,258.085,271.659,257.241Z" transform="translate(-58.095 -154.774)" fill="#3dc06e"/>
    <path id="Path_763" data-name="Path 763" d="M287.2,228.919a10.049,10.049,0,0,0-11.039,3.306,2.211,2.211,0,0,0-.512,2.329c.613,1.044,2.176.632,3.328.258a8.376,8.376,0,0,1,5.257-.125c1.082.371,2.05,1.028,3.136,1.385a3.158,3.158,0,0,0,3.22-.471,4.193,4.193,0,0,0,.794-3.008,2.419,2.419,0,0,0-.617-1.988,3.16,3.16,0,0,0-1.426-.422,4.911,4.911,0,0,1-2.874-1.679" transform="translate(-98.4 -152.795)" fill="#3dc06e"/>
    <path id="Path_764" data-name="Path 764" d="M303.638,225.126a2.556,2.556,0,0,0-2.471,3.6A10.362,10.362,0,0,0,305.3,229a3.531,3.531,0,0,0,2.888-2.647,6.648,6.648,0,0,1-4.707-.9" transform="translate(-103.645 -152.118)" fill="#3dc06e"/>
    <path id="Path_765" data-name="Path 765" d="M348.872,217.7a47.527,47.527,0,0,0-10.594,3.6,7.96,7.96,0,0,1,5.084,7.995,4.163,4.163,0,0,0,.048,1.977c.389.943,1.517,1.3,2.508,1.539a16.535,16.535,0,0,0,5.5.7,5.6,5.6,0,0,0,4.553-2.782,19.814,19.814,0,0,1,.947-2.238c2.376-3.618,9.434.757,11.985-2.74.9-1.232.816-3.086,1.988-4.063a4.465,4.465,0,0,1,2.043-.78,143.513,143.513,0,0,1,15.522-2.211c2.469-.215,5.687-1.1,5.707-3.579a43,43,0,0,0-27.427,3.69c-3.057,1.531-7.1,4.753-10.046,2.722-1.1-.76-1.048-2.807-2.566-3.662C352.573,216.99,350.519,217.345,348.872,217.7Z" transform="translate(-111.335 -149.891)" fill="#3dc06e"/>
    <path id="Path_766" data-name="Path 766" d="M389.519,223.261l4.365.839A5.657,5.657,0,0,0,388,230.23c4.088,1.366,8.544.037,12.85.218s9.316,3.257,8.581,7.5c-.222,1.284-.964,2.567-.578,3.812a14.193,14.193,0,0,0,1.474,2.3c.9,1.674.182,3.792-.961,5.314s-2.679,2.736-3.682,4.354c-2.495,4.023-1.077,9.224.409,13.718a12.1,12.1,0,0,0,2.326,4.644c2.2,2.341,5.79,2.545,9,2.591,2.339.034,5.018-.081,6.5-1.894,1.931-2.366.581-6.057,1.852-8.833,1.155-2.522,4.1-3.6,6.761-4.371,4.882-1.406,9.858-2.6,14.474-4.724,5.732-2.636,11.089-6.745,17.389-7.084a23.868,23.868,0,0,0,5.281-.371c1.7-.484,3.32-1.956,3.191-3.721-.11-1.508-1.386-2.616-2.383-3.753s-1.78-2.886-.864-4.089l16.513-3.084c-1.171-3.19-2.083-7.391.607-9.468.97-.749,2.27-1.049,3.1-1.954,1.408-1.544.7-4.2-.926-5.516S485.085,214.2,483,214.03a158.475,158.475,0,0,0-21.777.194l-42.544,2.332c-2.855.156-6.151-.083-8.769.891-2.217.825-3.793,2.338-6.328,2.87C398.9,221.3,393.754,220.634,389.519,223.261Z" transform="translate(-121.571 -149.77)" fill="#3dc06e"/>
    <path id="Path_767" data-name="Path 767" d="M487.941,268.362a1.756,1.756,0,0,0-1.271.288,1.6,1.6,0,0,0-.413.98,6.469,6.469,0,0,0,.94,4.631,4.535,4.535,0,0,0,4.151,1.99c1.965-.251,3.414-1.928,5.221-2.746,2.785-1.26,14.612-3.224,6.431-7.644-2.819-1.523-4.641-.179-6.864.825A15.618,15.618,0,0,1,487.941,268.362Z" transform="translate(-141.794 -160.368)" fill="#3dc06e"/>
    <path id="Path_768" data-name="Path 768" d="M578,221.866a4.672,4.672,0,0,0-2.273,1.978,2,2,0,0,0,.749,2.648,2.98,2.98,0,0,0,1.115.177l3.884.116c1.65.049,3.712.4,4.155,1.991.329,1.181-.408,2.7.482,3.542a2.505,2.505,0,0,0,1.321.515,9.005,9.005,0,0,0,3.914.126c2.826-.758,1.341-2.483,2.231-4.019,1.362-2.35,1.126-.928,3.526-2.274,1.772-.995,4.063-2.8,2.583-5.335C597.119,216.923,581.8,219.972,578,221.866Z" transform="translate(-160.195 -150.87)" fill="#3dc06e"/>
    <path id="Path_769" data-name="Path 769" d="M670.71,219.691l-2.256.3a90.853,90.853,0,0,0-15.1,2.891,25.134,25.134,0,0,0,6.613,1.623,20.321,20.321,0,0,1,3.7.527c2.164.644,4.344,2.308,6.435,1.455,1.3-.528,1.719-1.878,2.793-2.593.741-.494,3.553-1.293,3.868-1.792C679.307,218.072,672.663,219.43,670.71,219.691Z" transform="translate(-176.23 -150.911)" fill="#3dc06e"/>
    <path id="Path_770" data-name="Path 770" d="M684.995,232.17a42.3,42.3,0,0,0-8.324,6.1c-1.06,1-2.142,2.235-2.046,3.687.128,1.929,2.183,3.048,3.963,3.8l7.211,3.053c.875-1.233.074-2.935-.83-4.146s-1.978-2.613-1.579-4.071c.456-1.664,2.485-2.231,4.186-2.517,2.772-.467,10.249-.43,9.35-4.9C695.866,227.912,687.777,230.615,684.995,232.17Z" transform="translate(-180.61 -153.139)" fill="#3dc06e"/>
    <path id="Path_771" data-name="Path 771" d="M685.732,600.019a6.881,6.881,0,0,0,.436,6.064,6.143,6.143,0,0,0,6.306,2.179,11.359,11.359,0,0,0,5.855-3.764,20.167,20.167,0,0,0,3.368-5.164,40.319,40.319,0,0,0,2.5-9.133l2.239-11.755c.5-2.627.481-10.682-4.347-8.057-1.319.717-4.373,6.377-5.756,7.982-2.491,2.893-2.821,5.7-4.133,9.2C690.553,591.964,687.252,595.623,685.732,600.019Z" transform="translate(-182.798 -223.125)" fill="#3dc06e"/>
    <path id="Path_772" data-name="Path 772" d="M1005.246,683.03a35.21,35.21,0,0,1-4.588-2.184,38.674,38.674,0,0,0-2.326,12.677l10.812-6.118c1.627-.92,3.47-2.2,3.435-4.067a1.286,1.286,0,0,0-.6-1.17,1.455,1.455,0,0,0-.758-.089,18.294,18.294,0,0,0-4.577,1.471,5.588,5.588,0,0,1-4.668.025" transform="translate(-247.285 -245.983)" fill="#3dc06e"/>
    <path id="Path_773" data-name="Path 773" d="M1074.327,687.192a23.4,23.4,0,0,0-3.467,1.244c-2.481,1.262-4.169,3.66-6.4,5.323a25.4,25.4,0,0,1-7.233,3.314,1.734,1.734,0,0,0,.4,2.555,5.014,5.014,0,0,0,2.856.642c2.623.058,5.386.083,7.684-1.184a24.244,24.244,0,0,0,3.618-2.871,38.3,38.3,0,0,1,9.106-5.149,10.453,10.453,0,0,0,3.174-1.9c2.006-1.977,2.148-5.027-.746-5.7C1080.981,682.924,1076.55,686.471,1074.327,687.192Z" transform="translate(-259.33 -246.511)" fill="#3dc06e"/>
    <path id="Path_774" data-name="Path 774" d="M1108.12,665.524a9.019,9.019,0,0,0-2.76-7.39c-.03,2.722-.112,5.621-1.643,7.872-1.09,1.6-2.8,2.687-4,4.214s-1.725,3.949-.324,5.289a5.254,5.254,0,0,0,3.113,1.072c2.79.328,6.019.511,7.976-1.5,1.068-1.1,1.588-2.73,2.89-3.539a3.517,3.517,0,0,0,1.268-.907c.538-.855-.317-1.982-1.279-2.29s-2.022-.163-2.989-.456-1.854-1.38-1.358-2.26" transform="translate(-267.929 -241.305)" fill="#3dc06e"/>
    <path id="Path_775" data-name="Path 775" d="M1042.851,539.335a12.544,12.544,0,0,1-4.475.264c-2.484-.457-4.417-2.329-6.423-3.864a28.328,28.328,0,0,0-16.552-5.783c-5.449-.1-10.949,1.374-16.3.343.35,1.945,2.014,3.4,3.789,4.271s3.735,1.3,5.52,2.153a13.177,13.177,0,0,1,6.383,6.641,18.76,18.76,0,0,0,1.807,3.972c1.779,2.394,5.151,2.919,8.128,2.724,3.88-.255,7.933-1.371,11.543.075,2.762,1.106,4.738,3.523,7.044,5.4s5.553,3.274,8.2,1.918a13.559,13.559,0,0,1-9.381-13.046c2.6.239,10.076.146,9.674-4.266C1051.467,536.4,1045.082,538.931,1042.851,539.335Z" transform="translate(-247.443 -214.902)" fill="#3dc06e"/>
    <path id="Path_776" data-name="Path 776" d="M991.3,576.767c.461-2.529,2.983-4.762,2.2-7.21-.543-1.693-2.506-2.528-4.283-2.57s-3.523.488-5.3.538a25.815,25.815,0,0,0-3.47.049c-3.528.58-5.7,4.277-9.026,5.592-2.021.8-4.292.647-6.395,1.2-4.772,1.254-7.792,5.764-11.127,9.4a39.71,39.71,0,0,1-20.156,11.754c-2.713.628-5.63,1.03-7.786,2.793-2.856,2.334-3.559,6.334-4.195,9.967a164.6,164.6,0,0,1-8.014,29.419l11.331,1.447a15.405,15.405,0,0,0,6.463-.094,18.762,18.762,0,0,0,4.251-2.264,42.437,42.437,0,0,1,16.579-5.984,17.6,17.6,0,0,1,8.863.621c2.785,1.1,5.174,3.6,5.407,6.59a6.962,6.962,0,0,1,6.958,1.692,12.1,12.1,0,0,1,3.322,6.631c.3,1.55.6,3.408,2.036,4.058,1.174.531,2.52-.041,3.8-.144,4.357-.349,7.971,4.731,12.254,3.856,4.592-.938,5.72-7.816,10.2-9.193,2.573-.791,6.182.171,7.414-2.222,1.086-2.11-1.081-4.544-.857-6.906.275-2.909,3.706-4.143,6.351-5.385,9.119-4.279,13.446-16.551,9.027-25.6-2.618-5.363-7.769-9.585-8.721-15.476-.732-4.533,1.055-9.819-1.835-13.387-1.47-1.815-3.959-2.817-4.834-4.983-.551-1.363-.329-2.91-.626-4.35s-1.553-2.947-2.975-2.573c-4.128,1.084-5.445,13.836-7.656,16.934C997.139,585.673,990.238,582.57,991.3,576.767Z" transform="translate(-229.863 -221.91)" fill="#3dc06e"/>
    <path id="Path_777" data-name="Path 777" d="M913.8,547.707c-1.411-.4-2.951-.785-4.3-.22s-2.141,2.55-1.056,3.534c8.487-.331,17.026-.659,25.441.494,9.7,1.328,19.29,4.617,29.028,3.65a147.647,147.647,0,0,0-16.934-3.929l-9.533-1.821a73.732,73.732,0,0,0-7.741-1.2C923.264,547.769,919.148,549.206,913.8,547.707Z" transform="translate(-228.665 -218.457)" fill="#3dc06e"/>
    <path id="Path_778" data-name="Path 778" d="M923.914,507.959c-.7-.059-1.577-.109-1.942.5-.348.579.05,1.344-.137,1.992-.256.887-1.417,1.113-2.332.993a4.468,4.468,0,0,0-2.715.031,2.3,2.3,0,0,0-.89,2.614,6.728,6.728,0,0,0,1.569,2.5,25.549,25.549,0,0,0,4.071,4.084c2.917,2.153,6.869,3.191,8.706,6.316a4.191,4.191,0,0,0,1.163,1.565c.882.559,2.032.133,2.982-.3l3.328-1.521a3.78,3.78,0,0,0,1.556-1.058c.76-1.032.294-2.5-.345-3.611s-1.455-2.262-1.318-3.536c.244-2.272,3.166-3.141,4.367-5.086,1.211-1.96.422-4.485.562-6.784.163-2.689,1.853-6.187-.866-8.2-2.311-1.708-4.519-.13-6.178,1.755C932,504.19,930.345,508.5,923.914,507.959Z" transform="translate(-230.283 -208.266)" fill="#3dc06e"/>
    <path id="Path_779" data-name="Path 779" d="M951.308,457.978c1.136,2.176,3.506,3.474,4.745,5.593,1.343,2.3,1.19,5.264,2.647,7.491,1.5,2.284,4.5,3.5,5.342,6.095.916,2.836-1.161,6.283.494,8.762a3.678,3.678,0,0,0,5.4.5,3.957,3.957,0,0,0-.163-5.521c-.98-.894-2.387-1.28-3.206-2.324a4.875,4.875,0,0,1-.83-2.022,13.236,13.236,0,0,1,.208-6.344,2.823,2.823,0,0,0,.16-1.659c-.368-1.071-1.818-1.147-2.836-1.644-2.312-1.128-2.255-4.391-1.852-6.931-.269,1.691-6.293-1.185-6.924-2.143-1.253-1.9-.571-5.574-.819-7.677C950.962,451.453,949.919,455.318,951.308,457.978Z" transform="translate(-237.473 -198.466)" fill="#3dc06e"/>
    <path id="Path_780" data-name="Path 780" d="M873.61,501.648c-1.112-1.245-2.787-2.547-4.277-1.8a2.708,2.708,0,0,0-1,3.339,7.349,7.349,0,0,0,2.426,2.892c3.107,2.562,6.452,4.875,9.162,7.853,4.85,5.33,7.42,12.522,12.694,17.432a7.12,7.12,0,0,0,4,2.163c1.537.143,3.262-.841,3.439-2.374.146-1.263-.735-2.394-1.6-3.33-2.049-2.229-4.292-4.28-6.227-6.609a5.553,5.553,0,0,1-1.592-3.324c-.01-1.254,1.133-2.566,2.348-2.256-1.478-.378-2.573-2.839-4.742-3.3-1.812-.387-2.251.735-4.407-.19C879.719,510.383,876.491,504.873,873.61,501.648Z" transform="translate(-220.468 -208.658)" fill="#3dc06e"/>
    <path id="Path_781" data-name="Path 781" d="M991.112,349.149a34.086,34.086,0,0,1-3.475-1.241c-3.054-.917-7.1,1.328-6.688,4.491.271,2.1,2.226,3.518,3.306,5.341,1.6,2.7,1.175,6.132.333,9.159a7.161,7.161,0,0,1-1.155,2.606,8.825,8.825,0,0,1-2.738,1.968,36.61,36.61,0,0,0-10.712,9.1,2.623,2.623,0,0,0-.646,1.219c-.146,1.068.927,1.846,1.534,2.736,1.348,1.979.374,4.641.507,7.031a1.989,1.989,0,0,0,.838,1.744c.813.413,1.775-.288,2.216-1.086,1.461-2.648.36-6.9,3.1-8.175.519-.241,1.147-.343,1.493-.8.549-.723.019-1.793.3-2.657.418-1.3,2.192-1.355,3.553-1.3a20.168,20.168,0,0,0,6.927-.922,4.612,4.612,0,0,0,2.293-1.328,4.988,4.988,0,0,0,.583-3.778,51.205,51.205,0,0,0-6.05-18.461c2.408.308,5.029.574,7.107-.681,1.164-.7,2.559-2.8,1.982-4.235C994.809,347.623,993.158,349.527,991.112,349.149Z" transform="translate(-241.31 -177.366)" fill="#3dc06e"/>
    <path id="Path_782" data-name="Path 782" d="M582.243,390.036a9.276,9.276,0,0,1,.065,4.662c-.507,1.489-2.1,2.732-3.605,2.276-1.168-.354-1.842-1.528-2.672-2.424-4.612-4.979-15.017-2.1-17.866-8.256-1.163-2.514-.372-5.526-1.165-8.179a7.28,7.28,0,0,0-7.373-5.009,15.147,15.147,0,0,0-4.243,1.266,106.98,106.98,0,0,1-28.11,7.031,23.091,23.091,0,0,0-5.4.983c-3.961,1.436-6.667,5.107-8.592,8.854s-3.347,7.8-5.929,11.132c-2.714,3.5-6.516,5.948-10.063,8.6a10.267,10.267,0,0,0-3.319,3.479,10.883,10.883,0,0,0-.666,5.17l.725,21.315c.093,2.742.21,5.581,1.437,8.035,1.532,3.064,4.559,5.07,6.659,7.777a15.232,15.232,0,0,1,3.16,9.727c-.045,1.411-.185,3.08.914,3.966a4.019,4.019,0,0,0,2.247.646l28.833,2.36c5.072.415,10.693,1.1,14,4.962,1.563,1.824,2.818,4.446,5.212,4.642a19.369,19.369,0,0,0,3.053-.419c2.591-.205,4.867,1.761,6.3,3.927a17.424,17.424,0,0,1,2.8,11.18c-.235,2.471-1,4.873-1.167,7.349-.629,9.423,7.36,17.611,7.515,27.054.091,5.554-2.546,10.744-5.116,15.669,4.149,6.285.752,14.655,2.4,22,1.567,6.971,7.38,12.429,8.828,19.426.663,3.2.7,7.145,3.526,8.795a8.037,8.037,0,0,0,3.99.8,52.6,52.6,0,0,0,23.952-5.453c3.493-1.733,7.112-4.321,7.722-8.172.492-3.106-1.083-6.579.52-9.284,1.889-3.188,6.728-2.936,9.508-5.387,4.509-3.977.993-11.561,2.82-17.289,1.642-5.149,7.295-7.884,10.1-12.5a22.217,22.217,0,0,0,2.346-6.359,90.724,90.724,0,0,0,2.387-16.219,97.215,97.215,0,0,1,.734-9.934c3.021-18.769,21.576-31.337,27.6-49.368.575-1.722.846-4.016-.686-4.99a4.387,4.387,0,0,0-2.917-.305l-13.291,1.676a9.15,9.15,0,0,1-4.917-.283c-1.516-.686-2.6-2.6-1.8-4.06,2.257-4.089-2.386-9.256-4.449-13.447A198.428,198.428,0,0,0,618.5,405.409a3.257,3.257,0,0,1-.866-1.881l3.772.126c-1.273-4.569-3.375-9.569-7.814-11.241-2.5-.942-5.271-.616-7.94-.47C598,392.36,589.808,391.206,582.243,390.036Z" transform="translate(-141.199 -182.595)" fill="#3dc06e"/>
    <path id="Path_783" data-name="Path 783" d="M612.006,256.727c2,2.124,4.242,4.377,7.136,4.747,5.112.654,8.787-4.632,11.128-9.224a4.507,4.507,0,0,0,4.7,4.17,9.286,9.286,0,0,0,3.537-1.383,69.688,69.688,0,0,1,33.015-8.535,3.566,3.566,0,0,1,2.723-3.92c2.347-.465,4.461,1.564,5.593,3.671s1.838,4.55,3.637,6.128,5.28,1.509,5.991-.776c.682-2.193-1.6-4.064-3.5-5.357s-3.9-3.686-2.621-5.594c9.7-2.147,19.456-4.3,29.379-4.728a12.3,12.3,0,0,0,4.945-.852c1.513-.743,2.716-2.428,2.309-4.064a11.2,11.2,0,0,1-11.687-4.408c13.769-1.136,28.414-2.1,40.617,4.374,1.464,3.144-6,5.759-4,8.594.637.9,1.913,1.01,3.019,1.031,8.48.157,17.009.312,25.393-.968,3.064-.468,6.159-1.128,9.235-.749,5.124.632,9.506,4.051,14.546,5.165a7.783,7.783,0,0,0,6.081-.724c1.73-1.193,2.473-3.91,1.056-5.462,4.746-4.652,12.623-3.5,18.884-1.272s12.193,5.818,18.819,6.315c4.752.356,9.57-.922,14.266-.11,2.951.511,5.7,1.823,8.581,2.63,5.454,1.525,11.224,1.2,16.888,1.277a118.328,118.328,0,0,1,42.168,8.379,12.537,12.537,0,0,1,4.688,2.77,4.6,4.6,0,0,1,1.047,5.043L915.7,260.868c1.307,2.573,4.689,3.012,7.435,3.9s5.594,3.921,3.943,6.288c-2.976-.947-5.672,2.028-7.176,4.765s-3.335,6.016-6.453,6.182c-2.792.149-6.17-2.228-7.99-.105a54.489,54.489,0,0,1,6.42,10.264c1.8,3.746,3.079,8.467.648,11.838a3.068,3.068,0,0,1-1.64,1.272c-1.985.5-3.275-1.926-4.7-3.4-1.794-1.855-4.507-2.38-6.936-3.25s-4.988-2.581-5.178-5.154c-.118-1.6.727-3.089,1.349-4.569a17.6,17.6,0,0,0,1.338-7.9,8.968,8.968,0,0,0-2.3-5.949c-1.56-1.517-4.253-2-5.927-.609-.781.649-1.407,1.686-2.422,1.725-1.793.069-3.169-3.057-4.612-1.99a4.9,4.9,0,0,1-.666,3.278c-4.3,3.743-10.916,2.16-16.465,3.482a30.9,30.9,0,0,0-7.512,3.281,4.834,4.834,0,0,0-2.147,1.8A3.324,3.324,0,0,0,856,289.99a10.257,10.257,0,0,0,4.259,1.454c6.765,1.281,13.628,3.264,18.969,7.609s8.843,11.528,7.153,18.2l-13.34-12.747q.76,8.028.862,16.1a7.237,7.237,0,0,1-.423,3.1c-.951,2.1-3.529,2.807-5.787,3.271a4.533,4.533,0,0,0-3.48,5.808c.8,2.616,2.8,4.655,4.636,6.687s3.635,4.342,3.875,7.067-1.816,5.8-4.546,5.608c-2.069-.144-3.6-2-4.487-3.873s-1.408-3.968-2.734-5.563c-4.014-4.827-13.03-2.759-16.625-7.906a8.132,8.132,0,0,0-1.682,7.739c1.673-1.047,3.963-.074,5.22,1.447s1.85,3.472,2.837,5.181c1.332,2.306,3.451,4.35,3.637,7.007a22.9,22.9,0,0,0,.05,3.014c.33,1.61,1.691,2.765,2.634,4.111,2.195,3.131,2.086,7.431.672,10.983s-3.956,6.52-6.474,9.4a113.365,113.365,0,0,1-14.1,14.2,14.809,14.809,0,0,0-4,4.027c-.927,1.665-.974,4,.45,5.269-1.019.051-2.846.552-3.864.6a89.805,89.805,0,0,1-.233-12.289c-4.02-1.93-8.348,3.239-7.829,7.668s3.722,7.983,6,11.815c1.668,2.8,2.907,6.069,2.351,9.283s-3.425,6.177-6.673,5.894c-5.167-.451-7.329-7.869-12.446-8.718a2.091,2.091,0,0,0-1.347.134c-.76.417-.892,1.433-.934,2.3-.209,4.247-.391,8.664,1.267,12.58,2.426,5.729,8.692,10.541,7.378,16.621-7.081-3.292-10.763-11.232-12.434-18.86s-1.95-15.635-4.947-22.846c-2.275,2.916-7.058.505-9.136-2.554-1.971-2.9-3.184-6.256-5.1-9.2s-4.841-5.572-8.344-5.733c-3.673-.169-6.858,2.351-9.659,4.732-2.3,1.958-4.668,3.994-6.015,6.7-1.959,3.939-1.447,8.583-1.541,12.981-.1,4.755-1.11,9.772-4.351,13.253s-9.223,4.694-12.8,1.556c-1.866-1.638-2.77-4.085-3.575-6.434a315.009,315.009,0,0,1-9.678-34.549c-.6,2.668-2.944,6.107-5.182,4.536a4.638,4.638,0,0,1-1.194-1.538c-4.175-7.077-11.907-11.321-19.72-13.866s-16.032-3.732-23.758-6.529a60.179,60.179,0,0,1-12.324-6.139,9.692,9.692,0,0,0-.592,9.915,7.9,7.9,0,0,0,8.911,3.729c1.715-.548,3.164-1.739,4.866-2.327s3.987-.3,4.731,1.34c.712,1.57-.365,3.469.17,5.108.814,2.5,4.578,2.689,5.895,4.96.979,1.69.173,3.934-1.225,5.3s-3.264,2.112-4.972,3.061c-5.539,3.08-9.478,8.339-14.32,12.43s-11.671,7.078-17.441,4.454c1.375-6.964-6.92-12.076-8.446-19.009-.5-2.282-.242-4.706-.959-6.929-1.038-3.219-3.894-5.433-6.238-7.873a30.9,30.9,0,0,1-8.475-22.479c.127-2.865.653-5.777,0-8.569s-2.965-5.5-5.83-5.369c-6.544.289-14.787.776-18.22-4.8-1.225-1.991-1.759-4.907.013-6.432,1.25-1.076,3.095-.975,4.736-.813l14.744,1.45c3.448.339,7.176.619,10.135-1.184s4.241-6.588,1.5-8.709c-2-1.55-5.589-1.466-6.171-3.93-.485-2.052,1.787-4.38.56-6.1-.88-1.23-2.857-.888-4.056.033s-2.068,2.27-3.409,2.968c-2.353,1.224-5.164.059-7.695-.733s-5.924-.859-7.152,1.492c-1.373,2.629,1.218,6.074-.145,8.709-1.8,3.483-7.9,1.5-10.433,4.5-2.9,3.438,1.976,8.565,1,12.957a8.066,8.066,0,0,1-7.946-.446A7.718,7.718,0,0,1,587.7,338.1c.242-1.976,1.273-3.993.582-5.86-.558-1.51-2.074-2.408-3.482-3.187l-14.328-7.917c-1.33,2.468.351,5.527,2.455,7.38s4.738,3.249,6.119,5.689a7.467,7.467,0,0,1-2.81,9.844,1.724,1.724,0,0,1-1.42.248,1.981,1.981,0,0,1-.921-1.239c-2.528-6.469-6.324-12.848-12.392-16.227s-14.787-2.685-18.767,3.008c-.945,1.352-1.579,2.893-2.4,4.323-4.374,7.6-13.752,11.192-22.514,10.957a4.47,4.47,0,0,1-2.456-.577c-1.416-.978-1.352-3.053-1.135-4.76l.92-7.245c.185-1.455.452-3.063,1.6-3.971,1.623-1.28,3.965-.472,6.032-.5a7.644,7.644,0,0,0,6.938-5.355,8.614,8.614,0,0,0-2.4-8.567c-.948-.89-2.219-2.008-1.719-3.207a2.651,2.651,0,0,1,1.859-1.252c3.713-1.078,7.636-1.361,11.287-2.633s7.192-3.875,8.056-7.644c.265-1.155.385-2.554,1.423-3.126a4.266,4.266,0,0,1,1.644-.336,8,8,0,0,0,6.864-8.342c1.75-1.223,4.2-.323,5.894.977s3.187,3.018,5.247,3.579c3.838,1.045,7.548-2.354,11.526-2.37,1.673-.007,3.4.585,4.978.018,1.6-.575,2.548-2.163,3.773-3.336s3.373-1.889,4.5-.625l-.963-7.132a14.02,14.02,0,0,0,11.411-2.063l-12.444-4.2a2.706,2.706,0,0,1-1.164-.622c-.9-.974-.006-2.492.73-3.6,1.76-2.649,2.055-7.013-.839-8.332-1.976-.9-4.243.18-6.139,1.238l-9.083,5.064c-.288,1.726,1.823,2.7,3.131,3.868a5.249,5.249,0,0,1-3.423,9.172,6.541,6.541,0,0,1,1.168,5.546l-6.111.439a2.648,2.648,0,0,1-1.982-.387c-.654-.58-.565-1.6-.717-2.459-.366-2.078-2.4-3.534-4.477-3.908a15.746,15.746,0,0,0-6.257.578,3.734,3.734,0,0,1-2.689-.062,2.687,2.687,0,0,1-1.064-1.343c-.9-2.186-.059-4.755,1.389-6.624a36.757,36.757,0,0,1,5.21-4.792,30.369,30.369,0,0,0,9.03-14c3.364-1.41,6.847-3.325,10.211-4.734a31.246,31.246,0,0,1,16.795-3.254l11.393.218c3.373.064,6.837.147,9.956,1.433s5.86,4.067,6.075,7.434a2.282,2.282,0,0,1-.73,2.086,2.692,2.692,0,0,1-1.44.325C616.493,255.833,615.152,256.617,612.006,256.727Z" transform="translate(-147.551 -152.253)" fill="#3dc06e"/>
    <path id="Path_784" data-name="Path 784" d="M520.57,308.745a3.333,3.333,0,0,0,.909-3.353,6.236,6.236,0,0,0-6.457,1.219,10.9,10.9,0,0,0-1.73,2.287c-1.5,2.442-2.821,5.36-1.954,8.09a2.3,2.3,0,0,0,1.052,1.439,2.766,2.766,0,0,0,1.226.192,41.11,41.11,0,0,0,4.934-.3c1.005-.123,2.173-.407,2.561-1.342.511-1.229-.725-2.621-.365-3.9a4.261,4.261,0,0,1,1.053-1.508,1.994,1.994,0,0,0,.621-1.673c-.146-.6-1.066-.943-1.4-.42" transform="translate(-146.923 -168.565)" fill="#3dc06e"/>
    <path id="Path_785" data-name="Path 785" d="M532.2,295.668a13.8,13.8,0,0,0-4.471-.281,1.95,1.95,0,0,0-.953.216,1.59,1.59,0,0,0-.587.85,4.224,4.224,0,0,0,2.459,5.176,5.284,5.284,0,0,1,1.525.613c1.264.981.458,2.987.7,4.569.269,1.777,1.989,3.269,1.674,5.038-.249,1.394-1.737,2.5-1.5,3.893.251,1.461,2.106,1.9,3.584,2.018a4.507,4.507,0,0,0,2.539-.291,3.932,3.932,0,0,0,1.6-2.32,14.874,14.874,0,0,0,.749-5.6,5.313,5.313,0,0,0-.632-2.471,13.77,13.77,0,0,0-1.475-1.69C534.579,302.094,537.562,297.18,532.2,295.668Z" transform="translate(-149.999 -166.576)" fill="#3dc06e"/>
    <path id="Path_786" data-name="Path 786" d="M842.812,559.594S625.88,435.072,532.488,458.666c0,0-197.924,21.3-220.863,68.159,0,0-62.916-196.614-85.855-203.167" transform="translate(-88.162 -172.413)" fill="none" stroke="#3dc06e" stroke-miterlimit="10" stroke-width="2" opacity="0.8"/>
    <path id="Path_787" data-name="Path 787" d="M311.625,526.485c36.374-97,364.064-204.478,364.064-204.478-46.532,11.8-143.2,136.319-143.2,136.319S328.01,309.554,225.77,323.317c0,0,450.246,14.746,617.04,235.936" transform="translate(-88.162 -172.073)" fill="none" stroke="#3dc06e" stroke-miterlimit="10" stroke-width="2" opacity="0.8"/>
    <circle id="Ellipse_468" data-name="Ellipse 468" cx="9.503" cy="9.503" r="9.503" transform="translate(128.106 141.741)" fill="#3dc06e"/>
    <circle id="Ellipse_469" data-name="Ellipse 469" cx="9.503" cy="9.503" r="9.503" transform="translate(213.961 344.909)" fill="#3dc06e"/>
    <circle id="Ellipse_470" data-name="Ellipse 470" cx="9.503" cy="9.503" r="9.503" transform="translate(578.023 140.43)" fill="#3dc06e"/>
    <circle id="Ellipse_471" data-name="Ellipse 471" cx="9.503" cy="9.503" r="9.503" transform="translate(745.146 377.678)" fill="#3dc06e"/>
    <circle id="Ellipse_472" data-name="Ellipse 472" cx="9.503" cy="9.503" r="9.503" transform="translate(434.823 276.749)" fill="#3dc06e"/>
  </g>
</svg>
