<svg xmlns="http://www.w3.org/2000/svg" width="495.194" height="280.144" viewBox="0 0 495.194 280.144">
  <g id="undraw_posting_photo_v65l" transform="translate(0 -0.01)">
    <ellipse id="Ellipse_574" data-name="Ellipse 574" cx="247.597" cy="15.563" rx="247.597" ry="15.563" transform="translate(0 249.027)" fill="#3dc06e" opacity="0.1"/>
    <path id="Path_1422" data-name="Path 1422" d="M402.937,506.535,318.9,505.46l.25-2.155,4.061-35.555h73.8l5.428,35.555.415,2.693Z" transform="translate(-168.502 -247.147)" fill="#d0d2d5"/>
    <path id="Path_1423" data-name="Path 1423" d="M402.857,545.833H360.921L318.9,545.3l.25-2.155h83.292Z" transform="translate(-168.502 -286.982)" opacity="0.1"/>
    <rect id="Rectangle_160" data-name="Rectangle 160" width="111.513" height="2.693" transform="translate(136.391 256.695)" fill="#d0d2d5"/>
    <path id="Path_1424" data-name="Path 1424" d="M461.7,160.041a7.013,7.013,0,0,0-6.98-7.041H143.3a7.013,7.013,0,0,0-6.98,7.046V348.814H461.7Z" transform="translate(-107.401 -152.99)" fill="#3f3d56"/>
    <path id="Path_1425" data-name="Path 1425" d="M136.32,564.2v22.109a6.98,6.98,0,0,0,6.98,6.98H454.716a6.98,6.98,0,0,0,6.98-6.98V564.2Z" transform="translate(-107.401 -370.262)" fill="#d0d2d5"/>
    <rect id="Rectangle_161" data-name="Rectangle 161" width="300.055" height="169.691" transform="translate(42.389 11.857)" fill="#fff"/>
    <path id="Path_1426" data-name="Path 1426" d="M476.574,591.781a7.277,7.277,0,0,0,5.721-2.773h0a7.572,7.572,0,0,0,.566-.83l-3.995-.684,4.315.033a7.282,7.282,0,0,0,.137-5.763l-5.787,3,5.339-3.924a7.272,7.272,0,1,0-12.012,8.14h0A7.277,7.277,0,0,0,476.574,591.781Z" transform="translate(-283.349 -377.144)" fill="#3dc06e"/>
    <path id="Path_1427" data-name="Path 1427" d="M425.13,472.89l33.527,33.669-5.145-33.669Z" transform="translate(-224.633 -249.863)" opacity="0.1"/>
    <path id="Path_1428" data-name="Path 1428" d="M468.2,288.926a.662.662,0,0,0,0-.1,26.074,26.074,0,0,0-1.255-6.871c-.042-.127-.08-.255-.127-.377a26.176,26.176,0,0,0-44.336-8.961A37.031,37.031,0,0,0,420.4,265.3a117.169,117.169,0,0,1-20.751.773,83.785,83.785,0,0,0,13.163,4.782l-.16.6a84.3,84.3,0,0,1-14.71-5.5l-1.415-.689,1.585.1a117.782,117.782,0,0,0,22.081-.637A37.337,37.337,0,0,0,413.68,254.4c-11.875-1.2-23.661-3.688-34.654-8.63l.255-.561c10.706,4.81,22.166,7.286,33.772,8.489A37.083,37.083,0,0,0,354.1,259.96a50.958,50.958,0,0,0-12.658-28.618,119.022,119.022,0,0,1-50.114,8.348,83.9,83.9,0,0,0,13.158,4.782l-.16.594a84.416,84.416,0,0,1-14.71-5.5l-1.415-.693,1.58.1a117.385,117.385,0,0,0,51.227-8.107c-.608-.67-1.24-1.325-1.886-1.967-20.308.41-42.422.212-62.442-7.074A51.066,51.066,0,0,0,252.44,265.3c0,9.583,2.632,22.765,7.216,35.989a153.53,153.53,0,0,0,7.2,17.332c1.415,2.83,2.886,5.612,4.452,8.263h0a93.643,93.643,0,0,0,6.206,9.3c.406.533.816,1.056,1.226,1.566a56.764,56.764,0,0,0,7.744,8.017h0q.858.717,1.731,1.368a32.778,32.778,0,0,0,4.966,3.061,22.8,22.8,0,0,0,9.343,2.537h.773v.108H441.949v-.108h.1a6.953,6.953,0,0,0,2.358-.415c4.9-1.74,9.432-8.725,13.172-17.549.83-1.957,1.622-4,2.358-6.107.665-1.853,1.3-3.773,1.886-5.659a175.263,175.263,0,0,0,4.362-17.035,89.733,89.733,0,0,0,2.051-15.884C468.231,289.709,468.231,289.318,468.2,288.926Z" transform="translate(-168.757 -189.359)" fill="#3dc06e" opacity="0.1"/>
    <path id="Path_1429" data-name="Path 1429" d="M366.421,219.758a50.882,50.882,0,0,0-61.131-6.89C324.881,219.885,346.5,220.145,366.421,219.758Z" transform="translate(-196.682 -180.84)" fill="#3dc06e" opacity="0.1"/>
    <path id="Path_1430" data-name="Path 1430" d="M626.347,435.142l-21.4-37.064a.684.684,0,0,0-1.184,0l-21.4,37.064a.684.684,0,0,0,.589,1.023h6.386a.689.689,0,0,1,.684.679v7.918a.679.679,0,0,0,.679.684h8.329a.684.684,0,0,0,.684-.684v-3.82a.679.679,0,0,1,.679-.684h7.918a.684.684,0,0,1,.684.684v3.82a.684.684,0,0,0,.684.684h8.305a.679.679,0,0,0,.646-.472.632.632,0,0,0,.038-.217v-7.914a.684.684,0,0,1,.684-.679h6.381a.684.684,0,0,0,.608-1.023Zm-29.834,4.1a.66.66,0,0,1-.472.2h-3a.684.684,0,0,1-.684-.684.693.693,0,0,1,.684-.684h3a.684.684,0,0,1,.684.684A.66.66,0,0,1,596.513,439.24Zm19.657,0a.66.66,0,0,1-.471.2h-3a.684.684,0,0,1-.472-1.165.66.66,0,0,1,.472-.2h3a.684.684,0,0,1,.684.684A.66.66,0,0,1,616.169,439.24Z" transform="translate(-343.039 -282.305)" fill="#3dc06e" opacity="0.1"/>
    <path id="Path_1431" data-name="Path 1431" d="M349.273,435.836l-21.4-37.064a.684.684,0,0,0-1.179,0l-18.487,32a56.543,56.543,0,0,0,7.744,8.017h3a.684.684,0,0,1,.684.684.693.693,0,0,1-.684.684h-1.269a33.114,33.114,0,0,0,4.957,3.08v-1.618a.679.679,0,0,1,.684-.679h7.918a.679.679,0,0,1,.679.679v3.82a.712.712,0,0,0,.061.288.679.679,0,0,0,.623.4h8.329a.665.665,0,0,0,.542-.274.679.679,0,0,0,.137-.41v-7.895a.684.684,0,0,1,.684-.684h6.367a.679.679,0,0,0,.6-1.023Zm-14.148,3.136a.674.674,0,0,1,.472-.2h3a.684.684,0,1,1,0,1.368h-3a.671.671,0,0,1-.467-1.165Zm-13.441-13.715a.679.679,0,0,1-.679-.684v-5.188a.679.679,0,0,1,.679-.684h11.2a.684.684,0,0,1,.679.684v5.188a.684.684,0,0,1-.679.684Z" transform="translate(-198.225 -282.674)" fill="#3dc06e" opacity="0.1"/>
    <path id="Path_1432" data-name="Path 1432" d="M481.185,320.819H454.7v-5.73a1.368,1.368,0,0,0-1.368-1.368h-7.777v-6.1a.858.858,0,0,0-.863-.858H434.67a.863.863,0,0,0-.863.858v6.1h-9.13a1.368,1.368,0,0,0-1.368,1.368v5.725h-25.25a.274.274,0,0,0-.278.278v76.024a.273.273,0,0,0,.278.278h16.8a.273.273,0,0,0,.278-.278V386.9a.283.283,0,0,1,.278-.283h7.074a.283.283,0,0,1,.278.283v10.225a.274.274,0,0,0,.278.278h33.164a.278.278,0,0,0,.278-.278V386.9a.278.278,0,0,1,.274-.283h7.074a.278.278,0,0,1,.278.283v10.225a.278.278,0,0,0,.278.278H481.18a.278.278,0,0,0,.278-.278V321.1A.278.278,0,0,0,481.185,320.819Zm-69.073,62.253a.274.274,0,0,1-.278.278H401.459a.273.273,0,0,1-.278-.278v-3.537a.278.278,0,0,1,.278-.283h10.376a.278.278,0,0,1,.278.283Zm0-9.145a.278.278,0,0,1-.278.278H401.459a.278.278,0,0,1-.278-.278v-3.542a.278.278,0,0,1,.278-.278h10.376a.278.278,0,0,1,.278.278Zm0-9.149a.274.274,0,0,1-.278.278H401.459a.274.274,0,0,1-.278-.278v-3.537a.274.274,0,0,1,.278-.278h10.375a.274.274,0,0,1,.278.278Zm0-9.145a.274.274,0,0,1-.278.278H401.459a.274.274,0,0,1-.278-.278V352.1a.274.274,0,0,1,.278-.278h10.375a.274.274,0,0,1,.278.278Zm0-9.145a.278.278,0,0,1-.278.278H401.459a.278.278,0,0,1-.274-.278v-3.542a.278.278,0,0,1,.278-.278h10.376a.278.278,0,0,1,.278.278Zm0-9.149a.274.274,0,0,1-.278.278H401.459a.274.274,0,0,1-.278-.278V333.8a.274.274,0,0,1,.278-.278h10.375a.274.274,0,0,1,.278.278Zm0-9.145a.274.274,0,0,1-.278.278H401.459a.273.273,0,0,1-.278-.278v-3.537a.274.274,0,0,1,.278-.278h10.375a.274.274,0,0,1,.278.278Zm24.571,54.877a.274.274,0,0,1-.278.278H426.03a.274.274,0,0,1-.278-.278v-3.537a.278.278,0,0,1,.278-.283h10.375a.278.278,0,0,1,.278.283Zm0-9.145a.278.278,0,0,1-.278.278H426.03a.278.278,0,0,1-.278-.278v-3.542a.278.278,0,0,1,.278-.278h10.375a.278.278,0,0,1,.278.278Zm0-9.149a.274.274,0,0,1-.278.278H426.03a.274.274,0,0,1-.278-.278v-3.537a.274.274,0,0,1,.278-.278h10.375a.274.274,0,0,1,.278.278Zm0-9.145a.274.274,0,0,1-.278.278H426.03a.274.274,0,0,1-.278-.278V352.1a.274.274,0,0,1,.278-.278h10.375a.274.274,0,0,1,.278.278Zm0-9.145a.278.278,0,0,1-.278.278H426.03a.278.278,0,0,1-.278-.278v-3.542a.278.278,0,0,1,.278-.278h10.375a.278.278,0,0,1,.278.278Zm0-9.149a.274.274,0,0,1-.278.278H426.03a.274.274,0,0,1-.278-.278V333.8a.274.274,0,0,1,.278-.278h10.375a.274.274,0,0,1,.278.278Zm0-9.145a.274.274,0,0,1-.278.278H426.03a.274.274,0,0,1-.278-.278v-3.537a.274.274,0,0,1,.278-.278h10.375a.274.274,0,0,1,.278.278Zm16.794,54.877a.278.278,0,0,1-.278.278H442.824a.278.278,0,0,1-.278-.278v-3.537a.283.283,0,0,1,.278-.283H453.2a.283.283,0,0,1,.278.283Zm0-9.145a.283.283,0,0,1-.278.278H442.824a.283.283,0,0,1-.278-.278v-3.542a.283.283,0,0,1,.278-.278H453.2a.283.283,0,0,1,.278.278Zm0-9.149a.278.278,0,0,1-.278.278H442.824a.278.278,0,0,1-.278-.278v-3.537a.278.278,0,0,1,.278-.278H453.2a.278.278,0,0,1,.278.278Zm0-9.145a.278.278,0,0,1-.278.278H442.824a.278.278,0,0,1-.278-.278V352.1a.278.278,0,0,1,.278-.278H453.2a.278.278,0,0,1,.278.278Zm0-9.145a.283.283,0,0,1-.278.278H442.824a.283.283,0,0,1-.278-.278v-3.542a.283.283,0,0,1,.278-.278H453.2a.283.283,0,0,1,.278.278Zm0-9.149a.278.278,0,0,1-.278.278H442.824a.278.278,0,0,1-.278-.278V333.8a.278.278,0,0,1,.278-.278H453.2a.278.278,0,0,1,.278.278Zm0-9.145a.278.278,0,0,1-.278.278H442.824a.278.278,0,0,1-.278-.278v-3.537a.278.278,0,0,1,.278-.278H453.2a.278.278,0,0,1,.278.278Zm24.58,54.867a.278.278,0,0,1-.278.278H467.4a.273.273,0,0,1-.278-.278v-3.537a.278.278,0,0,1,.278-.283H477.78a.283.283,0,0,1,.278.283Zm0-9.145a.283.283,0,0,1-.278.278H467.4a.278.278,0,0,1-.278-.278v-3.542a.278.278,0,0,1,.278-.278H477.78a.283.283,0,0,1,.278.278Zm0-9.149a.278.278,0,0,1-.278.278H467.4a.274.274,0,0,1-.278-.278v-3.537a.274.274,0,0,1,.278-.278H477.78a.278.278,0,0,1,.278.278Zm0-9.145a.278.278,0,0,1-.278.278H467.4a.273.273,0,0,1-.278-.278v-3.537a.273.273,0,0,1,.278-.278H477.78a.278.278,0,0,1,.278.278Zm0-9.135a.283.283,0,0,1-.278.278H467.4a.278.278,0,0,1-.278-.278v-3.542a.278.278,0,0,1,.278-.278H477.78a.283.283,0,0,1,.278.278Zm0-9.149a.278.278,0,0,1-.278.278H467.4a.273.273,0,0,1-.278-.278V333.8a.273.273,0,0,1,.278-.278H477.78a.278.278,0,0,1,.278.278Zm0-9.145a.278.278,0,0,1-.278.278H467.4a.273.273,0,0,1-.278-.278v-3.537a.273.273,0,0,1,.278-.278H477.78a.278.278,0,0,1,.278.278Z" transform="translate(-245.552 -234.235)" fill="#3dc06e" opacity="0.1"/>
    <path id="Path_1433" data-name="Path 1433" d="M394.664,283.972a5.942,5.942,0,0,0-3.457.377,5.089,5.089,0,0,1-4.155,0,5.834,5.834,0,0,0-4.886.094,2.986,2.986,0,0,1-1.415.354c-1.981,0-3.631-1.995-3.971-4.627a3.824,3.824,0,0,0,.986-1.071,5.573,5.573,0,0,1,9.942-.033,3.82,3.82,0,0,0,3.3,1.806h.052C392.636,280.864,394,282.147,394.664,283.972Z" transform="translate(-234.456 -217.997)" fill="#3dc06e" opacity="0.1"/>
    <path id="Path_1434" data-name="Path 1434" d="M400.716,267.461l-3.2,2.033,1.943-3.537a3.174,3.174,0,0,0-1.934-.689h-.052a3.884,3.884,0,0,1-.665-.047l-1.085.684.472-.844a3.862,3.862,0,0,1-1.886-1.438l-1.943,1.231,1.226-2.231a5.683,5.683,0,0,0-4.348-2.2,5.972,5.972,0,0,0-4.985,3.075,3.712,3.712,0,0,1-3.3,1.773h-.108c-2.226,0-4.037,2.528-4.037,5.659s1.811,5.659,4.037,5.659a3.055,3.055,0,0,0,1.415-.349,5.8,5.8,0,0,1,4.886-.094,5.141,5.141,0,0,0,4.155,0,5.825,5.825,0,0,1,4.844.09,2.975,2.975,0,0,0,1.415.344c2.226,0,4.037-2.528,4.037-5.659A7.178,7.178,0,0,0,400.716,267.461Z" transform="translate(-234.472 -209.749)" fill="#3dc06e" opacity="0.1"/>
    <rect id="Rectangle_162" data-name="Rectangle 162" width="175.223" height="211.009" rx="19.8" transform="translate(238.382 48.567)" fill="#3f3d56"/>
    <rect id="Rectangle_163" data-name="Rectangle 163" width="158.462" height="168.437" transform="translate(246.182 69.856)" fill="#fff"/>
    <circle id="Ellipse_575" data-name="Ellipse 575" cx="6.169" cy="6.169" r="6.169" transform="translate(319.825 243.226)" fill="#fff"/>
    <path id="Path_1435" data-name="Path 1435" d="M763.06,281.829a2.83,2.83,0,1,1,2.83-2.83A2.83,2.83,0,0,1,763.06,281.829Z" transform="translate(-437.066 -218.071)" fill="#fff"/>
    <path id="Path_1436" data-name="Path 1436" d="M762.764,276.052a2.617,2.617,0,1,1-2.613,2.617,2.617,2.617,0,0,1,2.613-2.617m0-.472a3.084,3.084,0,1,0,2.183.905A3.089,3.089,0,0,0,762.764,275.58Z" transform="translate(-436.77 -217.76)" fill="#fff"/>
    <path id="Path_1437" data-name="Path 1437" d="M758.7,442.592v-.057a15.155,15.155,0,0,0-.731-3.995l-.071-.217a15.233,15.233,0,0,0-25.778-5.2,22.228,22.228,0,0,0-1.212-4.245,68.022,68.022,0,0,1-12.069.472,48.434,48.434,0,0,0,7.65,2.726l-.094.349a48.838,48.838,0,0,1-8.55-3.179l-.83-.4.943.061a68.2,68.2,0,0,0,12.837-.368,21.736,21.736,0,0,0-3.773-6,64.744,64.744,0,0,1-20.147-5.018l.146-.33a63.682,63.682,0,0,0,19.633,4.947,21.557,21.557,0,0,0-34.267,3.641,29.588,29.588,0,0,0-7.353-16.662,69.65,69.65,0,0,1-11.366,3.443,68.815,68.815,0,0,1-17.77,1.415,48.442,48.442,0,0,0,7.65,2.778l-.094.344a48.438,48.438,0,0,1-8.55-3.2l-.83-.4.943.061a68.248,68.248,0,0,0,29.787-4.716c-.354-.391-.722-.769-1.1-1.141-11.79.236-24.661.123-36.314-4.117a29.679,29.679,0,0,0-14.1,25.288c0,5.57,1.533,13.234,4.2,20.921a88.615,88.615,0,0,0,4.155,10.069c.811,1.655,1.674,3.263,2.584,4.8h0a55.173,55.173,0,0,0,3.608,5.4c.236.307.472.613.717.91a32.844,32.844,0,0,0,4.5,4.655h0c.335.278.67.542,1.009.792a19.02,19.02,0,0,0,2.882,1.8,13.207,13.207,0,0,0,5.452,1.49h.448v.061h80.58v-.061h.057a4.127,4.127,0,0,0,1.363-.241c2.83-1.014,5.475-5.075,7.654-10.206.472-1.137.943-2.325,1.387-3.547.387-1.08.75-2.184,1.1-3.3a101.408,101.408,0,0,0,2.537-9.9,51.991,51.991,0,0,0,1.193-9.234C758.711,443.049,758.706,442.823,758.7,442.592Z" transform="translate(-369.993 -285.393)" fill="#3dc06e" opacity="0.1"/>
    <path id="Path_1438" data-name="Path 1438" d="M699.517,402.4a29.58,29.58,0,0,0-35.517-4C675.371,402.473,687.939,402.615,699.517,402.4Z" transform="translate(-386.22 -280.457)" fill="#3dc06e" opacity="0.1"/>
    <path id="Path_1439" data-name="Path 1439" d="M850.6,527.634,838.16,506.086a.4.4,0,0,0-.689,0l-12.441,21.548a.4.4,0,0,0,.344.594h3.712a.4.4,0,0,1,.4.4v4.6a.4.4,0,0,0,.4.4h4.844a.4.4,0,0,0,.4-.4v-2.221a.391.391,0,0,1,.4-.4h4.6a.4.4,0,0,1,.4.4v2.221a.4.4,0,0,0,.4.4h4.829a.4.4,0,0,0,.377-.269.4.4,0,0,0,0-.127v-4.6a.4.4,0,0,1,.4-.4h3.712a.4.4,0,0,0,.372-.594Zm-17.341,2.358a.4.4,0,0,1-.283.118h-1.745a.4.4,0,0,1-.4-.4.382.382,0,0,1,.118-.283.4.4,0,0,1,.278-.118h1.745a.4.4,0,0,1,.4.4A.4.4,0,0,1,833.255,529.992Zm11.427,0a.406.406,0,0,1-.283.118h-1.745a.4.4,0,0,1,0-.8H844.4a.4.4,0,0,1,.4.4.4.4,0,0,1-.118.278Z" transform="translate(-471.278 -339.45)" fill="#3dc06e" opacity="0.1"/>
    <path id="Path_1440" data-name="Path 1440" d="M689.528,528l-12.436-21.548a.4.4,0,0,0-.689,0l-10.743,18.61a32.747,32.747,0,0,0,4.5,4.65H671.9a.4.4,0,0,1,.283.674.382.382,0,0,1-.283.118h-.736a19.334,19.334,0,0,0,2.882,1.792v-.943a.4.4,0,0,1,.4-.4h4.6a.4.4,0,0,1,.4.4v2.221a.368.368,0,0,0,.038.165.391.391,0,0,0,.359.231h4.843a.4.4,0,0,0,.316-.16.405.405,0,0,0,.08-.236v-4.6a.4.4,0,0,1,.4-.4h3.712a.4.4,0,0,0,.34-.575Zm-8.22,1.82a.391.391,0,0,1,.278-.113h1.75a.391.391,0,0,1,.278.674.378.378,0,0,1-.278.118h-1.75a.4.4,0,0,1-.4-.4A.405.405,0,0,1,681.308,529.824Zm-7.815-7.97a.4.4,0,0,1-.4-.4v-3.014a.4.4,0,0,1,.4-.4H680a.4.4,0,0,1,.4.4v3.014a.4.4,0,0,1-.4.4Z" transform="translate(-387.097 -339.645)" fill="#3dc06e" opacity="0.1"/>
    <path id="Path_1441" data-name="Path 1441" d="M766.207,461.127H750.813V457.8a.8.8,0,0,0-.8-.8H745.5V453.44a.5.5,0,0,0-.5-.5h-5.824a.5.5,0,0,0-.5.5v3.547h-5.315a.8.8,0,0,0-.8.8v3.325H717.885a.165.165,0,0,0-.165.16v44.2a.165.165,0,0,0,.165.16h9.753a.16.16,0,0,0,.16-.16V499.54a.165.165,0,0,1,.165-.16h4.117a.165.165,0,0,1,.165.16v5.947a.16.16,0,0,0,.161.16h19.279a.16.16,0,0,0,.16-.16V499.54a.16.16,0,0,1,.16-.16h4.122a.16.16,0,0,1,.16.16v5.947a.165.165,0,0,0,.165.16h9.753a.16.16,0,0,0,.16-.16v-44.2A.16.16,0,0,0,766.207,461.127ZM726.053,497.3a.16.16,0,0,1-.16.16h-6.027a.16.16,0,0,1-.161-.16v-2.061a.16.16,0,0,1,.161-.16h6.027a.16.16,0,0,1,.16.16Zm0-5.32a.16.16,0,0,1-.16.16h-6.027a.16.16,0,0,1-.161-.16v-2.056a.16.16,0,0,1,.161-.16h6.027a.16.16,0,0,1,.16.16Zm0-5.315a.16.16,0,0,1-.16.16h-6.027a.16.16,0,0,1-.161-.16V484.6a.16.16,0,0,1,.161-.16h6.027a.16.16,0,0,1,.16.16Zm0-5.32a.165.165,0,0,1-.16.165h-6.027a.165.165,0,0,1-.16-.165v-2.056a.16.16,0,0,1,.161-.16h6.027a.16.16,0,0,1,.16.16Zm0-5.315a.16.16,0,0,1-.16.16h-6.027a.16.16,0,0,1-.161-.16v-2.061a.16.16,0,0,1,.161-.16h6.027a.16.16,0,0,1,.16.16Zm0-5.315a.16.16,0,0,1-.16.16h-6.027a.161.161,0,0,1-.161-.16v-2.061a.16.16,0,0,1,.161-.16h6.027a.16.16,0,0,1,.16.16Zm0-5.32a.16.16,0,0,1-.16.16h-6.027a.16.16,0,0,1-.161-.16v-2.051a.16.16,0,0,1,.161-.16h6.027a.16.16,0,0,1,.16.16Zm14.285,31.9a.16.16,0,0,1-.16.16h-6.027a.16.16,0,0,1-.16-.16v-2.061a.16.16,0,0,1,.16-.16h6.027a.16.16,0,0,1,.16.16Zm0-5.32a.16.16,0,0,1-.16.16h-6.027a.16.16,0,0,1-.16-.16v-2.056a.16.16,0,0,1,.16-.16h6.027a.16.16,0,0,1,.16.16Zm0-5.315a.16.16,0,0,1-.16.16h-6.027a.16.16,0,0,1-.16-.16V484.6a.16.16,0,0,1,.16-.16h6.027a.16.16,0,0,1,.16.16Zm0-5.32a.165.165,0,0,1-.16.165h-6.027a.165.165,0,0,1-.16-.165v-2.056a.16.16,0,0,1,.16-.16h6.027a.16.16,0,0,1,.16.16Zm0-5.315a.16.16,0,0,1-.16.16h-6.027a.16.16,0,0,1-.16-.16v-2.061a.16.16,0,0,1,.16-.16h6.027a.16.16,0,0,1,.16.16Zm0-5.315a.16.16,0,0,1-.16.16h-6.027a.161.161,0,0,1-.16-.16v-2.061a.16.16,0,0,1,.16-.16h6.027a.16.16,0,0,1,.16.16Zm0-5.32a.16.16,0,0,1-.16.16h-6.027a.16.16,0,0,1-.16-.16v-2.051a.16.16,0,0,1,.16-.16h6.027a.16.16,0,0,1,.16.16Zm9.763,31.9a.16.16,0,0,1-.16.16h-6.027a.16.16,0,0,1-.16-.16v-2.061a.16.16,0,0,1,.16-.16h6.008a.16.16,0,0,1,.16.16Zm0-5.32a.16.16,0,0,1-.16.16h-6.027a.16.16,0,0,1-.16-.16v-2.056a.16.16,0,0,1,.16-.16h6.008a.16.16,0,0,1,.16.16Zm0-5.315a.16.16,0,0,1-.16.16h-6.027a.16.16,0,0,1-.16-.16V484.6a.16.16,0,0,1,.16-.16h6.008a.16.16,0,0,1,.16.16Zm0-5.32a.165.165,0,0,1-.16.165h-6.027a.165.165,0,0,1-.16-.165v-2.056a.16.16,0,0,1,.16-.16h6.008a.16.16,0,0,1,.16.16Zm0-5.315a.16.16,0,0,1-.16.16h-6.027a.16.16,0,0,1-.16-.16v-2.061a.16.16,0,0,1,.16-.16h6.008a.16.16,0,0,1,.16.16Zm0-5.315a.16.16,0,0,1-.16.16h-6.027a.16.16,0,0,1-.16-.16v-2.061a.16.16,0,0,1,.16-.16h6.008a.16.16,0,0,1,.16.16Zm0-5.32a.16.16,0,0,1-.16.16h-6.027a.16.16,0,0,1-.16-.16v-2.051a.16.16,0,0,1,.16-.16h6.008a.16.16,0,0,1,.16.16Zm14.285,31.9a.165.165,0,0,1-.16.16H758.2a.16.16,0,0,1-.16-.16v-2.061a.16.16,0,0,1,.16-.16h6.027a.16.16,0,0,1,.16.16Zm0-5.32a.16.16,0,0,1-.16.16H758.2a.16.16,0,0,1-.16-.16v-2.056a.16.16,0,0,1,.16-.16h6.027a.16.16,0,0,1,.16.16Zm0-5.315a.16.16,0,0,1-.16.16H758.2a.16.16,0,0,1-.16-.16V484.6a.16.16,0,0,1,.16-.16h6.027a.165.165,0,0,1,.16.16Zm0-5.32a.165.165,0,0,1-.16.165H758.2a.165.165,0,0,1-.16-.165v-2.056a.16.16,0,0,1,.16-.16h6.027a.16.16,0,0,1,.16.16Zm0-5.315a.16.16,0,0,1-.16.16H758.2a.16.16,0,0,1-.16-.16v-2.061a.16.16,0,0,1,.16-.16h6.027a.165.165,0,0,1,.16.16Zm0-5.315a.165.165,0,0,1-.16.16H758.2a.16.16,0,0,1-.16-.16v-2.061a.16.16,0,0,1,.16-.16h6.027a.16.16,0,0,1,.16.16Zm0-5.32a.16.16,0,0,1-.16.16H758.2a.16.16,0,0,1-.16-.16v-2.051a.16.16,0,0,1,.16-.16h6.027a.16.16,0,0,1,.16.16Z" transform="translate(-414.604 -311.474)" fill="#3dc06e" opacity="0.1"/>
    <path id="Path_1442" data-name="Path 1442" d="M715.936,439.727a3.484,3.484,0,0,0-2.009.217,2.99,2.99,0,0,1-1.2.255,2.942,2.942,0,0,1-1.212-.259,3.386,3.386,0,0,0-2.83.056,1.753,1.753,0,0,1-.816.2c-1.151,0-2.108-1.16-2.306-2.688a2.276,2.276,0,0,0,.575-.623,3.235,3.235,0,0,1,5.777,0,2.207,2.207,0,0,0,1.886,1.052h.033A2.359,2.359,0,0,1,715.936,439.727Z" transform="translate(-408.179 -302.053)" fill="#3dc06e" opacity="0.1"/>
    <path id="Path_1443" data-name="Path 1443" d="M719.413,430.145l-1.886,1.184,1.132-2.056a1.848,1.848,0,0,0-1.127-.4h0a2.619,2.619,0,0,1-.387-.028l-.632.4.274-.472a2.226,2.226,0,0,1-1.1-.835l-1.132.712.717-1.3a3.3,3.3,0,0,0-2.533-1.278,3.466,3.466,0,0,0-2.9,1.787,2.17,2.17,0,0,1-1.915,1.033h-.061c-1.3,0-2.358,1.467-2.358,3.3s1.052,3.3,2.358,3.3a1.76,1.76,0,0,0,.816-.207,3.386,3.386,0,0,1,2.83-.052,3.023,3.023,0,0,0,1.212.259,2.989,2.989,0,0,0,1.2-.255,3.39,3.39,0,0,1,2.83.052,1.717,1.717,0,0,0,.806.2c1.3,0,2.358-1.471,2.358-3.3a4.179,4.179,0,0,0-.5-2.047Z" transform="translate(-408.148 -297.277)" fill="#3dc06e" opacity="0.1"/>
    <rect id="Rectangle_164" data-name="Rectangle 164" width="2.528" height="20.831" rx="1.264" transform="translate(466.256 126.95)" fill="#3f3d56"/>
    <rect id="Rectangle_165" data-name="Rectangle 165" width="1.42" height="6.857" rx="0.71" transform="translate(382.266 110.632)" fill="#3f3d56"/>
    <rect id="Rectangle_166" data-name="Rectangle 166" width="1.599" height="11.937" rx="0.799" transform="translate(382.215 123.186)" fill="#3f3d56"/>
    <rect id="Rectangle_167" data-name="Rectangle 167" width="1.523" height="12.04" rx="0.762" transform="translate(382.238 139.296)" fill="#3f3d56"/>
    <rect id="Rectangle_168" data-name="Rectangle 168" width="84.556" height="171.842" rx="18.54" transform="translate(383.068 87.966)" fill="#3f3d56"/>
    <rect id="Rectangle_169" data-name="Rectangle 169" width="11.809" height="2.396" rx="1.198" transform="translate(417.189 93.097)" fill="#e6e8ec"/>
    <circle id="Ellipse_576" data-name="Ellipse 576" cx="1.358" cy="1.358" r="1.358" transform="translate(430.781 92.941)" fill="#e6e8ec"/>
    <path id="Path_1444" data-name="Path 1444" d="M965.714,349h-9.678v1.165a5.532,5.532,0,0,1-5.518,5.527H919.646a5.532,5.532,0,0,1-5.532-5.532V349h-9.079a6.72,6.72,0,0,0-6.716,6.716V505.17a6.716,6.716,0,0,0,6.716,6.716h60.678a6.711,6.711,0,0,0,6.716-6.716V355.711A6.716,6.716,0,0,0,965.714,349Z" transform="translate(-510.031 -256.554)" fill="#fff"/>
    <path id="Path_1445" data-name="Path 1445" d="M973.82,504.966h0a6.76,6.76,0,0,0-.33-1.806.816.816,0,0,0-.033-.1,6.867,6.867,0,0,0-11.625-2.358,9.636,9.636,0,0,0-.547-1.919,30.958,30.958,0,0,1-5.447.2,22.533,22.533,0,0,0,3.452,1.254l-.042.156a22.079,22.079,0,0,1-3.858-1.443l-.373-.184.415.028a30.837,30.837,0,0,0,5.791-.165,9.8,9.8,0,0,0-1.707-2.712,29.2,29.2,0,0,1-9.088-2.259l.066-.151a28.718,28.718,0,0,0,8.857,2.231,9.729,9.729,0,0,0-15.459,1.646,13.371,13.371,0,0,0-3.3-7.518,31.277,31.277,0,0,1-13.144,2.188,22.054,22.054,0,0,0,3.452,1.255l-.042.156A22.083,22.083,0,0,1,927,492.025l-.373-.179.415.028a30.778,30.778,0,0,0,13.436-2.132c-.16-.174-.326-.344-.5-.514-5.324.108-11.125.057-16.374-1.858a13.393,13.393,0,0,0-6.357,11.408,31.126,31.126,0,0,0,1.886,9.432,39.485,39.485,0,0,0,1.887,4.546q.552,1.123,1.165,2.169h0a25.472,25.472,0,0,0,1.627,2.438l.325.41a15.1,15.1,0,0,0,2.028,2.1h0a5.19,5.19,0,0,0,.472.358,8.933,8.933,0,0,0,1.3.811,6.091,6.091,0,0,0,2.452.665h.2v.023h36.357v-.023h.028a1.848,1.848,0,0,0,.613-.109c1.288-.472,2.471-2.287,3.452-4.6.222-.514.429-1.052.627-1.6s.339-.981.5-1.486c.472-1.509.858-3.061,1.146-4.466a23.731,23.731,0,0,0,.538-4.164A2.29,2.29,0,0,1,973.82,504.966Z" transform="translate(-520.034 -329.667)" fill="#3dc06e" opacity="0.1"/>
    <path id="Path_1446" data-name="Path 1446" d="M947.1,486.872a13.347,13.347,0,0,0-16.035-1.806C936.225,486.872,941.884,486.952,947.1,486.872Z" transform="translate(-527.336 -327.456)" fill="#3dc06e" opacity="0.1"/>
    <path id="Path_1447" data-name="Path 1447" d="M1015.279,543.309l-5.612-9.72a.179.179,0,0,0-.311,0l-5.612,9.72a.179.179,0,0,0,.156.269h1.674a.179.179,0,0,1,.179.179v2.075a.179.179,0,0,0,.179.179h2.165a.179.179,0,0,0,.179-.179v-1a.179.179,0,0,1,.179-.179h2.075a.179.179,0,0,1,.179.179v1a.179.179,0,0,0,.179.179h2.184a.179.179,0,0,0,.17-.123.176.176,0,0,0,0-.057v-2.075a.179.179,0,0,1,.179-.179h1.674a.179.179,0,0,0,.184-.269Zm-7.824,1.075a.185.185,0,0,1-.128.052h-.787a.179.179,0,0,1-.179-.179.165.165,0,0,1,.052-.123.189.189,0,0,1,.127-.057h.787a.179.179,0,0,1,.179.179A.174.174,0,0,1,1007.455,544.384Zm5.155,0a.175.175,0,0,1-.127.052h-.788a.179.179,0,0,1-.179-.179.166.166,0,0,1,.052-.123.189.189,0,0,1,.127-.057h.788a.179.179,0,0,1,.179.179A.174.174,0,0,1,1012.609,544.384Z" transform="translate(-565.722 -354.04)" fill="#3dc06e" opacity="0.1"/>
    <path id="Path_1448" data-name="Path 1448" d="M942.617,543.489,937,533.769a.179.179,0,0,0-.311,0l-4.843,8.395a15.086,15.086,0,0,0,2.028,2.1h.788a.179.179,0,1,1,0,.354h-.33a8.931,8.931,0,0,0,1.3.811v-.415a.179.179,0,0,1,.179-.179h2.08a.179.179,0,0,1,.175.179v1a.184.184,0,0,0,.179.179h2.188a.179.179,0,0,0,.142-.071.164.164,0,0,0,.033-.108v-2.075a.179.179,0,0,1,.179-.179h1.674a.179.179,0,0,0,.156-.269Zm-3.707.825a.165.165,0,0,1,.123-.052h.788a.179.179,0,1,1,0,.354h-.788a.179.179,0,0,1-.179-.179A.174.174,0,0,1,938.91,544.314Zm-3.528-3.6a.179.179,0,0,1-.179-.179v-1.358a.179.179,0,0,1,.179-.179h2.938a.179.179,0,0,1,.179.179v1.358a.179.179,0,0,1-.179.179Z" transform="translate(-527.748 -354.135)" fill="#3dc06e" opacity="0.1"/>
    <path id="Path_1449" data-name="Path 1449" d="M977.234,513.328h-6.942v-1.5a.358.358,0,0,0-.358-.358h-2.047v-1.6a.226.226,0,0,0-.221-.226h-2.627a.227.227,0,0,0-.226.226v1.6h-2.4a.358.358,0,0,0-.359.358v1.5h-6.6a.071.071,0,0,0-.071.071v19.94a.075.075,0,0,0,.071.075h4.4a.075.075,0,0,0,.075-.075v-2.683a.071.071,0,0,1,.071-.071h1.858a.075.075,0,0,1,.075.071v2.684a.075.075,0,0,0,.071.075h8.7a.075.075,0,0,0,.076-.075v-2.683a.071.071,0,0,1,.071-.071H972.7a.075.075,0,0,1,.075.071v2.684a.076.076,0,0,0,.071.075h4.4a.076.076,0,0,0,.071-.075V513.4a.071.071,0,0,0-.09-.071ZM959.12,529.651a.076.076,0,0,1-.076.075h-2.716a.075.075,0,0,1-.076-.075v-.943a.076.076,0,0,1,.076-.071h2.716a.076.076,0,0,1,.076.071Zm0-2.4a.076.076,0,0,1-.076.071h-2.716a.076.076,0,0,1-.076-.071v-.943a.075.075,0,0,1,.076-.075h2.716a.075.075,0,0,1,.076.075Zm0-2.4a.075.075,0,0,1-.076.075h-2.716a.075.075,0,0,1-.076-.075v-.943a.076.076,0,0,1,.076-.071h2.716a.076.076,0,0,1,.076.071Zm0-2.4a.075.075,0,0,1-.076.076h-2.716a.075.075,0,0,1-.076-.076v-.943a.075.075,0,0,1,.076-.076h2.716a.076.076,0,0,1,.076.076Zm0-2.4a.076.076,0,0,1-.076.071h-2.716a.075.075,0,0,1-.075-.071v-.943a.076.076,0,0,1,.076-.071h2.716a.076.076,0,0,1,.076.071Zm0-2.4a.075.075,0,0,1-.076.075h-2.716a.075.075,0,0,1-.076-.075v-.943a.076.076,0,0,1,.076-.071h2.716a.076.076,0,0,1,.076.071Zm0-2.4a.076.076,0,0,1-.076.071h-2.716a.076.076,0,0,1-.076-.071v-.943a.075.075,0,0,1,.076-.075h2.716a.076.076,0,0,1,.076.075Zm6.456,14.389a.075.075,0,0,1-.071.075h-2.721a.075.075,0,0,1-.071-.075v-.943a.071.071,0,0,1,.071-.071h2.721a.071.071,0,0,1,.071.071Zm0-2.4a.071.071,0,0,1-.071.071h-2.721a.071.071,0,0,1-.071-.071v-.943a.075.075,0,0,1,.071-.075h2.721a.075.075,0,0,1,.071.075Zm0-2.4a.075.075,0,0,1-.071.075h-2.721a.075.075,0,0,1-.071-.075v-.943a.071.071,0,0,1,.071-.071h2.721a.071.071,0,0,1,.071.071Zm0-2.4a.075.075,0,0,1-.071.076h-2.721a.075.075,0,0,1-.071-.076v-.943a.075.075,0,0,1,.071-.076h2.721a.075.075,0,0,1,.071.076Zm0-2.4a.071.071,0,0,1-.071.071h-2.721a.071.071,0,0,1-.071-.071v-.943a.071.071,0,0,1,.071-.071h2.721a.071.071,0,0,1,.071.071Zm0-2.4a.075.075,0,0,1-.071.075h-2.721a.075.075,0,0,1-.071-.075v-.943a.071.071,0,0,1,.071-.071h2.721a.071.071,0,0,1,.071.071Zm0-2.4a.071.071,0,0,1-.071.071h-2.721a.071.071,0,0,1-.071-.071v-.943a.075.075,0,0,1,.071-.075h2.721a.075.075,0,0,1,.071.075Zm4.405,14.389a.076.076,0,0,1-.076.075h-2.716a.076.076,0,0,1-.076-.075v-.943a.075.075,0,0,1,.076-.071h2.716a.075.075,0,0,1,.075.071Zm0-2.4a.075.075,0,0,1-.076.071h-2.716a.076.076,0,0,1-.076-.071v-.943a.075.075,0,0,1,.076-.075h2.716a.076.076,0,0,1,.076.075Zm0-2.4a.075.075,0,0,1-.076.075h-2.716a.075.075,0,0,1-.076-.075v-.943a.076.076,0,0,1,.076-.071h2.716a.075.075,0,0,1,.075.071Zm0-2.4a.076.076,0,0,1-.076.075h-2.716a.075.075,0,0,1-.076-.075v-.943a.076.076,0,0,1,.076-.076h2.716a.076.076,0,0,1,.076.075Zm0-2.4a.076.076,0,0,1-.076.071h-2.716a.076.076,0,0,1-.076-.071v-.943a.075.075,0,0,1,.076-.071h2.716a.075.075,0,0,1,.075.071Zm0-2.4a.076.076,0,0,1-.076.075h-2.716a.075.075,0,0,1-.076-.075v-.943a.076.076,0,0,1,.076-.071h2.716a.076.076,0,0,1,.076.071Zm0-2.4a.076.076,0,0,1-.076.071h-2.716a.076.076,0,0,1-.076-.071v-.943a.076.076,0,0,1,.076-.075h2.716a.076.076,0,0,1,.076.075Zm6.442,14.389a.075.075,0,0,1-.071.075h-2.721a.075.075,0,0,1-.071-.075v-.943a.071.071,0,0,1,.071-.071h2.721a.071.071,0,0,1,.071.071Zm0-2.4a.071.071,0,0,1-.071.071h-2.721a.071.071,0,0,1-.071-.071v-.943a.075.075,0,0,1,.071-.075h2.721a.075.075,0,0,1,.071.075Zm0-2.4a.076.076,0,0,1-.071.075h-2.721a.076.076,0,0,1-.071-.075v-.943a.071.071,0,0,1,.071-.071h2.721a.071.071,0,0,1,.071.071Zm0-2.4a.076.076,0,0,1-.071.076h-2.721a.076.076,0,0,1-.071-.076v-.943a.076.076,0,0,1,.071-.076h2.721a.076.076,0,0,1,.071.076Zm0-2.4a.071.071,0,0,1-.071.071h-2.721a.07.07,0,0,1-.071-.071v-.943a.071.071,0,0,1,.021-.05.07.07,0,0,1,.05-.021h2.721a.071.071,0,0,1,.071.071Zm0-2.4a.075.075,0,0,1-.071.075h-2.721a.075.075,0,0,1-.071-.075v-.943a.071.071,0,0,1,.071-.071h2.721a.071.071,0,0,1,.071.071Zm0-2.4a.071.071,0,0,1-.071.071h-2.721a.071.071,0,0,1-.071-.071v-.943a.075.075,0,0,1,.071-.075h2.721a.075.075,0,0,1,.071.075Z" transform="translate(-540.18 -341.434)" fill="#3dc06e" opacity="0.1"/>
    <path id="Path_1450" data-name="Path 1450" d="M954.518,503.671a1.571,1.571,0,0,0-.906.1,1.329,1.329,0,0,1-.542.113,1.284,1.284,0,0,1-.547-.118,1.542,1.542,0,0,0-1.283.028.816.816,0,0,1-.368.09c-.519,0-.943-.523-1.042-1.212a.972.972,0,0,0,.26-.278,1.462,1.462,0,0,1,2.608,0,1,1,0,0,0,.863.472h0A1.075,1.075,0,0,1,954.518,503.671Z" transform="translate(-537.248 -337.181)" fill="#3dc06e" opacity="0.1"/>
    <path id="Path_1451" data-name="Path 1451" d="M956.118,499.328l-.839.528.509-.943a.825.825,0,0,0-.509-.184h0a.7.7,0,0,1-.174,0l-.288.179.123-.222a1.033,1.033,0,0,1-.5-.377l-.509.321.321-.585a1.49,1.49,0,0,0-1.141-.575,1.557,1.557,0,0,0-1.3.816.985.985,0,0,1-.863.471h-.028c-.585,0-1.061.665-1.061,1.481s.471,1.481,1.061,1.481a.771.771,0,0,0,.368-.09,1.524,1.524,0,0,1,1.283,0,1.368,1.368,0,0,0,1.089,0,1.528,1.528,0,0,1,1.269,0,.753.753,0,0,0,.363.09c.585,0,1.061-.66,1.061-1.481A1.888,1.888,0,0,0,956.118,499.328Z" transform="translate(-537.264 -335.003)" fill="#3dc06e" opacity="0.1"/>
    <path id="Path_1452" data-name="Path 1452" d="M150.857,677.992a17.451,17.451,0,0,1-.377,3.66c-.047.226-.1.448-.151.665-1.339,5.372-5.117,9.3-9.626,9.55h-.472c-4.768,0-8.8-4.112-10.13-9.776-.038-.151-.071-.3-.1-.472a17.449,17.449,0,0,1-.377-3.66c0-7.673,4.749-13.889,10.611-13.889S150.857,670.319,150.857,677.992Z" transform="translate(-103.86 -423.032)" fill="#3f3d56"/>
    <path id="Path_1453" data-name="Path 1453" d="M150.878,678.018a17.451,17.451,0,0,1-.377,3.66c-.047.226-.1.448-.151.665h-.472a21.575,21.575,0,0,1-3.471-.472,21.183,21.183,0,0,1-3.094.707,21.62,21.62,0,0,1-2.424.226h-.821a21.9,21.9,0,0,1-2.907-.194,21.3,21.3,0,0,1-4.558-1.132,21.516,21.516,0,0,1-2.462.66c-.038-.151-.071-.3-.1-.472a17.45,17.45,0,0,1-.377-3.66c0-7.673,4.749-13.889,10.611-13.889S150.878,670.345,150.878,678.018Z" transform="translate(-103.881 -423.059)" opacity="0.1"/>
    <path id="Path_1454" data-name="Path 1454" d="M145.013,603.692a21.5,21.5,0,0,0-2.311-9.72l-12.479,3.881,10.956-6.438a21.558,21.558,0,0,0-16.2-9.239,21.511,21.511,0,0,0-1.684-2.226l-17.921,5.579,14.7-8.645a21.567,21.567,0,0,0-33.956,11.5l15.351,17.671L84.811,594.014a21.572,21.572,0,0,0,19.3,38.059,21.656,21.656,0,0,0,13.809.382,21.572,21.572,0,0,0,26.231-21.062c0-.472,0-.943-.047-1.415A21.573,21.573,0,0,0,145.013,603.692Z" transform="translate(-75.379 -374.609)" fill="#3dc06e"/>
    <path id="Path_1455" data-name="Path 1455" d="M144.6,641.649a57.6,57.6,0,0,0-19.968-.255c-7.494,1.24-15.153,3.971-22.482,1.976-4.3-1.17-8.017-3.877-12.22-5.381a23.2,23.2,0,0,0-12.616-.755,21.581,21.581,0,0,0,26.736,28.8,21.657,21.657,0,0,0,13.809.382,21.572,21.572,0,0,0,26.231-21.062c0-.472,0-.943-.047-1.415a21.7,21.7,0,0,0,.557-2.287Z" transform="translate(-75.343 -408.568)" opacity="0.1"/>
    <path id="Path_1456" data-name="Path 1456" d="M542.939,358.491l-8.961-.4c-2.051-.09-4.391-.061-5.758,1.467-1.457,1.627-1.075,4.183-.217,6.2s2.113,3.943,2.179,6.131c.1,3.443-2.726,6.169-5.287,8.489s-5.3,5.188-4.924,8.616c.292,2.674,2.424,4.74,4.527,6.409a60.482,60.482,0,0,0,10.3,6.6,15.412,15.412,0,0,0,6.659,2.033,17.3,17.3,0,0,0,5.98-1.368c3.363-1.207,6.815-2.514,9.366-5.009a18.827,18.827,0,0,0,3.254-4.5c4.409-8.017,5.584-18.044,2-26.472a14.878,14.878,0,0,0-3.3-5.027c-3.82-3.617-9.649-3.773-14.912-3.73a5.844,5.844,0,0,0-2.792.5,2.008,2.008,0,0,0-1.028,2.4" transform="translate(-310.099 -261.267)" fill="#393859"/>
    <path id="Path_1457" data-name="Path 1457" d="M544.247,588.743a193.963,193.963,0,0,0,1.056,28.424c.123,1.08.25,2.16.472,3.226a91.437,91.437,0,0,0,2.806,9.687,23.366,23.366,0,0,1,1.207,9.937q3.113-.326,6.235-.533l.028-1.6c.057-3.075-1.151-6.074-.844-9.135.292-2.9,1.226-5.725,1.184-8.635-.042-2.749-.943-5.4-1.372-8.116a46.066,46.066,0,0,1-.387-5.471,69.064,69.064,0,0,1,.047-7.546c.4-5.1,1.915-10.187,1.212-15.257C552.043,585.493,548.072,586.988,544.247,588.743Z" transform="translate(-322.876 -380.577)" fill="#a0616a"/>
    <path id="Path_1458" data-name="Path 1458" d="M555.253,710.233a1.415,1.415,0,0,0,.693-.113,1.51,1.51,0,0,0,.552-1.014,12.368,12.368,0,0,1,1.585-3.561,5.2,5.2,0,0,0,1.193-2.618c0-1.57-1.641-2.669-1.985-4.2a6.782,6.782,0,0,0-.292-1.452,3.036,3.036,0,0,0-2.3-1.292c-1.207-.255-2.768-.358-3.367.717-.509.915.057,2.028.132,3.07a5.675,5.675,0,0,1-1.651,3.806c-1.061,1.283-3.848,4.353-2.151,6.131.637.67,2.023.443,2.83.472Z" transform="translate(-324.464 -439.805)" fill="#3f3d56"/>
    <path id="Path_1459" data-name="Path 1459" d="M589.4,588.743a193.3,193.3,0,0,1-1.061,28.424c-.118,1.08-.245,2.16-.443,3.226a86.291,86.291,0,0,1-2.83,9.687,23,23,0,0,0-1.2,9.937q-3.113-.326-6.235-.533l-.028-1.6c-.057-3.075,1.146-6.074.839-9.135-.288-2.9-1.221-5.725-1.179-8.635.043-2.749.943-5.4,1.368-8.116a45.122,45.122,0,0,0,.391-5.471,69.064,69.064,0,0,0-.047-7.546c-.4-5.1-1.919-10.187-1.212-15.257C581.621,585.493,585.587,586.988,589.4,588.743Z" transform="translate(-340.386 -380.577)" fill="#a0616a"/>
    <path id="Path_1460" data-name="Path 1460" d="M578.537,710.233a1.415,1.415,0,0,1-.689-.113,1.509,1.509,0,0,1-.571-1.014,12.375,12.375,0,0,0-1.585-3.561,5.159,5.159,0,0,1-1.193-2.617c0-1.57,1.641-2.669,1.981-4.2a6.789,6.789,0,0,1,.3-1.452,3.036,3.036,0,0,1,2.3-1.292c1.207-.255,2.764-.358,3.367.717.509.915-.061,2.028-.132,3.07a5.653,5.653,0,0,0,1.651,3.806c1.061,1.283,3.848,4.353,2.151,6.131-.637.67-2.023.443-2.83.472Z" transform="translate(-338.929 -439.805)" fill="#3f3d56"/>
    <circle id="Ellipse_577" data-name="Ellipse 577" cx="9.663" cy="9.663" r="9.663" transform="translate(222.517 105.222)" fill="#a0616a"/>
    <path id="Path_1461" data-name="Path 1461" d="M549.528,410.275a3.3,3.3,0,0,1,.141,1.391,2.707,2.707,0,0,1-.811,1.254,14.421,14.421,0,0,1-4.787,3.193,2.2,2.2,0,0,0,.509,1.764c1.16,1.787,2.386,3.523,3.617,5.263a35.24,35.24,0,0,0,8.22,8.852l2.83-3.556a23,23,0,0,0,1.641-2.231,22.244,22.244,0,0,0,1.471-3.014l3.457-8.017c-2.08.42-4.193-.538-5.971-1.7a2.33,2.33,0,0,1-.868-.83,2.358,2.358,0,0,1-.189-1.028q-.085-2.5-.071-4.994a64.2,64.2,0,0,0-7.546-.59c-.981,0-1.641-.208-1.886.83A8.6,8.6,0,0,0,549.528,410.275Z" transform="translate(-322.823 -286.679)" fill="#a0616a"/>
    <path id="Path_1462" data-name="Path 1462" d="M539.719,436.348a37.154,37.154,0,0,0-5.659-7.546,5.093,5.093,0,0,1-1.184-1.552,4.717,4.717,0,0,1-.264-1.5l-.17-2.495a.58.58,0,0,0-.127-.387.561.561,0,0,0-.382-.109,3.192,3.192,0,0,0-1.75.255,4.9,4.9,0,0,0-.943.868,11.631,11.631,0,0,1-4.023,2.231,32.348,32.348,0,0,0-3.1,1.5,4.075,4.075,0,0,0-1.976,1.792,4.427,4.427,0,0,0-.255,1.688l-.349,20.062a1.061,1.061,0,0,1-.792,1.184,2.877,2.877,0,0,0-1.094.835,1.132,1.132,0,0,0-.042,1.3c.141.184.358.3.5.472.472.561.061,1.372-.255,2.023a4.4,4.4,0,0,0-.472,2.74,2.358,2.358,0,0,0,1.849,1.886c.372-1.2-.472-2.566,0-3.73a2.673,2.673,0,0,1,1.613-1.344,5.8,5.8,0,0,1,2.943-.321l.566,2.061c2.033,7.423.623,15.4-1.231,22.869-.429,1.745-.972,3.462-1.292,5.23a46.057,46.057,0,0,0-.472,8.065v7.376a3.154,3.154,0,0,0,.74,2.49c.684.58,1.943.538,2.457,1.339.3.472.241,1.08.509,1.561a2.066,2.066,0,0,0,.8.731,5.4,5.4,0,0,0,7.032-1.726,8.113,8.113,0,0,1,1.57-2.358,4.677,4.677,0,0,1,3.15-.6l6.423.307a13.3,13.3,0,0,1,3.263.429,25.206,25.206,0,0,1,2.773,1.2,14.287,14.287,0,0,0,6.494,1.179,3.773,3.773,0,0,0,1.754-.424c.613-.368,1.038-1.038,1.712-1.287.759-.283,1.736,0,2.325-.552a2.108,2.108,0,0,0,.472-1.495l.269-6.306c.283-6.5.533-13.205-1.613-19.336-.523-1.5-1.184-2.943-1.585-4.476a44.306,44.306,0,0,1-.759-4.806c-.665-4.485-2.179-8.9-1.886-13.422,0-.344.3-.424.641-.472a4.186,4.186,0,0,1,3.358.943,4.609,4.609,0,0,1,1.113,2.938,3.3,3.3,0,0,1-.406,2.207l1.773-1.3c.566-.415,1.2-.986,1.085-1.679-.335-2.061-.222-4.367-.472-6.437a93.994,93.994,0,0,0-1.693-10.451,27.475,27.475,0,0,1-.684-2.981c-.17-1.377-.075-2.768-.165-4.155a15.647,15.647,0,0,0-1.481-5.659,5.785,5.785,0,0,0-.943-1.5,6.574,6.574,0,0,0-1.83-1.264,37.7,37.7,0,0,0-9.258-3.363,2.308,2.308,0,0,0-1.886.156,2.034,2.034,0,0,0-.292,2.316,4.964,4.964,0,0,1,.613,2.4,4.678,4.678,0,0,1-1.415,2.132c-1.5,1.75-2.174,4.108-3.773,5.777C540.865,434.607,539.875,435.291,539.719,436.348Z" transform="translate(-308.723 -294.566)" fill="#ff6f61"/>
    <path id="Path_1463" data-name="Path 1463" d="M547.026,374.4c.816.679,1.5,1.622,2.537,1.844,2.5.528,4.452-3.514,6.857-2.65.877.316,1.415,1.188,2.089,1.8a4.136,4.136,0,0,0,5.659-.41c1.264-1.476,1.278-3.608,1.231-5.551a4.173,4.173,0,0,0-.42-2.085,3.359,3.359,0,0,0-.835-.877c-2.853-2.231-6.706-2.551-10.319-2.783a7.546,7.546,0,0,0-2.358.1,7.7,7.7,0,0,0-2.83,1.707c-1.622,1.349-5.57,3.914-6.065,6.089S545.423,373.075,547.026,374.4Z" transform="translate(-322.034 -264.292)" fill="#393859"/>
    <rect id="Rectangle_170" data-name="Rectangle 170" width="35.031" height="37.932" rx="2.61" transform="translate(213.698 139.164)" fill="#3dc06e"/>
    <rect id="Rectangle_171" data-name="Rectangle 171" width="28.995" height="22.944" rx="2.61" transform="translate(216.716 142.437)" fill="#fff"/>
    <path id="Path_1464" data-name="Path 1464" d="M563.985,472.946h0a2.74,2.74,0,0,0-.127-.689v-.033a2.608,2.608,0,0,0-4.414-.9,3.467,3.467,0,0,0-.207-.726,11.645,11.645,0,0,1-2.066.076,7.647,7.647,0,0,0,1.311.472v.061a8.517,8.517,0,0,1-1.462-.547l-.142-.071h.156a11.391,11.391,0,0,0,2.2-.061,3.642,3.642,0,0,0-.646-1.028,11.08,11.08,0,0,1-3.452-.858l.028-.057a10.914,10.914,0,0,0,3.363.844,3.693,3.693,0,0,0-5.872.627,5.064,5.064,0,0,0-1.259-2.853,11.857,11.857,0,0,1-4.99.83,8.708,8.708,0,0,0,1.311.472v.057a8.534,8.534,0,0,1-1.462-.547l-.141-.066h.156a11.692,11.692,0,0,0,5.1-.811c-.061-.066-.123-.132-.189-.193a17.574,17.574,0,0,1-6.216-.707,5.093,5.093,0,0,0-2.415,4.334,11.944,11.944,0,0,0,.717,3.584,15.3,15.3,0,0,0,.717,1.726c.142.283.288.557.443.821h0a9.844,9.844,0,0,0,.618.943l.123.156a5.418,5.418,0,0,0,.773.8h0a2.134,2.134,0,0,0,.17.137,3.558,3.558,0,0,0,.5.311,2.3,2.3,0,0,0,.943.25h13.884a.764.764,0,0,0,.231-.038,3.191,3.191,0,0,0,1.316-1.75c.08-.193.16-.4.236-.608s.127-.373.189-.561c.179-.575.326-1.165.434-1.7a8.853,8.853,0,0,0,.2-1.58Z" transform="translate(-322.047 -318.502)" fill="#3dc06e" opacity="0.3"/>
    <path id="Path_1465" data-name="Path 1465" d="M553.829,466.08a5.056,5.056,0,0,0-6.089-.684A17.166,17.166,0,0,0,553.829,466.08Z" transform="translate(-324.789 -317.677)" fill="#3dc06e" opacity="0.3"/>
    <path id="Path_1466" data-name="Path 1466" d="M579.712,487.527l-2.132-3.688a.066.066,0,0,0-.118,0l-2.132,3.688a.071.071,0,0,0,.061.1h.637a.066.066,0,0,1,.066.066v.792a.066.066,0,0,0,.066.066h.83a.071.071,0,0,0,.071-.066v-.382a.071.071,0,0,1,.066-.071h.788a.071.071,0,0,1,.071.071v.382a.066.066,0,0,0,.066.066h.83a.061.061,0,0,0,.061-.047h0v-.792a.071.071,0,0,1,.071-.066h.632a.071.071,0,0,0,.066-.123Zm-2.971.41a.061.061,0,0,1-.047,0h-.3a.066.066,0,0,1-.066-.066.071.071,0,0,1,0-.047.066.066,0,0,1,.047-.024h.3a.071.071,0,0,1,.066.071A.061.061,0,0,1,576.741,487.938Zm1.957,0a.061.061,0,0,1-.047,0h-.3a.066.066,0,0,1-.066-.066.072.072,0,0,1,0-.047.066.066,0,0,1,.047-.024h.3a.071.071,0,0,1,.066.071A.061.061,0,0,1,578.7,487.938Z" transform="translate(-339.364 -327.782)" fill="#3dc06e" opacity="0.3"/>
    <path id="Path_1467" data-name="Path 1467" d="M552.1,487.624l-2.127-3.665a.066.066,0,0,0-.118,0L548,487.124a5.62,5.62,0,0,0,.773.792h.3a.071.071,0,0,1,.071.071.066.066,0,0,1-.023.047.071.071,0,0,1-.047,0h-.127a4.033,4.033,0,0,0,.5.307V488.2a.071.071,0,0,1,.066-.071h.792a.071.071,0,0,1,.066.071v.377a.146.146,0,0,0,0,.028.08.08,0,0,0,.061.042h.83a.066.066,0,0,0,.057-.028.057.057,0,0,0,0-.042v-.788a.066.066,0,0,1,.066-.066h.637a.069.069,0,1,0,.09-.1Zm-1.415.311a.071.071,0,0,1,.047,0h.3a.071.071,0,0,1,.071.071.066.066,0,0,1-.024.047.071.071,0,0,1-.047,0h-.3a.071.071,0,0,1-.071-.066.075.075,0,0,1,.033-.052Zm-1.339-1.363a.071.071,0,0,1-.071-.071v-.514a.071.071,0,0,1,.071-.066h1.113a.071.071,0,0,1,.071.066v.514a.071.071,0,0,1-.071.071Z" transform="translate(-324.927 -327.845)" fill="#3dc06e" opacity="0.3"/>
    <path id="Path_1468" data-name="Path 1468" d="M565.25,476.146h-2.622v-.566a.137.137,0,0,0-.137-.137h-.806v-.608a.085.085,0,0,0-.085-.085h-1a.085.085,0,0,0-.085.085v.608h-.91a.137.137,0,0,0-.137.137v.566h-2.5a.028.028,0,0,0-.028.028v7.574a.028.028,0,0,0,.028.024h1.67s.028,0,.028-.024V482.73a.028.028,0,0,1,.028-.028h.707a.028.028,0,0,1,.028.028v1.019a.025.025,0,0,0,.028.024h3.3a.028.028,0,0,0,.028-.024V482.7h.707a.028.028,0,0,1,.028.028v1.019a.028.028,0,0,0,.028.024h1.669a.028.028,0,0,0,.028-.024v-7.574A.029.029,0,0,0,565.25,476.146Zm-6.867,6.2a.028.028,0,0,1-.028.028h-1.033a.028.028,0,0,1-.028-.028v-.354a.028.028,0,0,1,.028-.028h1.033a.028.028,0,0,1,.028.028Zm0-.91a.028.028,0,0,1-.028.028h-1.033a.028.028,0,0,1-.028-.028v-.354a.028.028,0,0,1,.028-.028h1.033a.028.028,0,0,1,.028.028Zm0-.91a.028.028,0,0,1-.028.024h-1.033a.028.028,0,0,1-.028-.024v-.354a.028.028,0,0,1,.028-.028h1.033a.028.028,0,0,1,.028.028Zm0-.915a.028.028,0,0,1-.028.028h-1.033a.028.028,0,0,1-.028-.028v-.349a.028.028,0,0,1,.028-.028h1.033a.028.028,0,0,1,.028.028Zm0-.91a.028.028,0,0,1-.028.028h-1.033a.028.028,0,0,1-.028-.028v-.349a.028.028,0,0,1,.028-.028h1.033a.028.028,0,0,1,.028.028Zm0-.91a.028.028,0,0,1-.028.028h-1.033a.028.028,0,0,1-.028-.028v-.354a.028.028,0,0,1,.028-.024h1.033a.028.028,0,0,1,.028.024Zm0-.91a.028.028,0,0,1-.028.028h-1.033a.028.028,0,0,1-.028-.028v-.354a.028.028,0,0,1,.028-.028h1.033a.028.028,0,0,1,.028.028Zm2.448,5.466a.028.028,0,0,1-.028.028H559.77a.028.028,0,0,1-.028-.028v-.354a.028.028,0,0,1,.028-.028H560.8a.028.028,0,0,1,.028.028Zm0-.91a.028.028,0,0,1-.028.028H559.77a.028.028,0,0,1-.028-.028v-.354a.028.028,0,0,1,.028-.028H560.8a.029.029,0,0,1,.028.028Zm0-.91a.029.029,0,0,1-.028.024H559.77a.028.028,0,0,1-.028-.024v-.354a.028.028,0,0,1,.028-.028H560.8a.028.028,0,0,1,.028.028Zm0-.915a.028.028,0,0,1-.028.028H559.77a.028.028,0,0,1-.028-.028v-.349a.028.028,0,0,1,.028-.028H560.8a.028.028,0,0,1,.028.028Zm0-.91a.028.028,0,0,1-.028.028H559.77a.028.028,0,0,1-.028-.028v-.349a.028.028,0,0,1,.028-.028H560.8a.028.028,0,0,1,.028.028Zm0-.91a.028.028,0,0,1-.028.028H559.77a.028.028,0,0,1-.028-.028v-.354a.029.029,0,0,1,.028-.024H560.8a.028.028,0,0,1,.028.024Zm0-.91a.028.028,0,0,1-.028.028H559.77a.028.028,0,0,1-.028-.028v-.354a.028.028,0,0,1,.028-.028H560.8a.028.028,0,0,1,.028.028Zm1.669,5.466a.028.028,0,0,1-.028.028h-1.033a.029.029,0,0,1-.024-.028v-.354a.029.029,0,0,1,.024-.028h1.033a.028.028,0,0,1,.028.028Zm0-.91a.028.028,0,0,1-.028.028h-1.033a.028.028,0,0,1-.024-.028v-.354a.028.028,0,0,1,.024-.028h1.033a.028.028,0,0,1,.028.028Zm0-.91a.025.025,0,0,1-.028.024h-1.033l-.024-.024v-.354a.028.028,0,0,1,.024-.028h1.033a.028.028,0,0,1,.028.028Zm0-.915a.024.024,0,0,1-.028.028h-1.033a.025.025,0,0,1-.024-.028v-.349s0-.028.024-.028h1.033a.023.023,0,0,1,.022.006.024.024,0,0,1,.006.022Zm0-.91a.024.024,0,0,1-.028.028h-1.033a.025.025,0,0,1-.024-.028v-.349s0-.028.024-.028h1.033a.024.024,0,0,1,.028.028Zm0-.91a.028.028,0,0,1-.028.028h-1.033a.028.028,0,0,1-.024-.028v-.354l.024-.024h1.033s.028,0,.028.024Zm0-.91a.028.028,0,0,1-.028.028h-1.033a.028.028,0,0,1-.024-.028v-.354a.028.028,0,0,1,.024-.028h1.033a.028.028,0,0,1,.028.028Zm2.448,5.466a.028.028,0,0,1-.028.028h-1.033a.028.028,0,0,1-.028-.028v-.354a.028.028,0,0,1,.028-.028h1.033a.028.028,0,0,1,.028.028Zm0-.91a.028.028,0,0,1-.028.028h-1.033a.028.028,0,0,1-.028-.028v-.354a.028.028,0,0,1,.028-.028h1.033a.028.028,0,0,1,.028.028Zm0-.91a.028.028,0,0,1-.028.024h-1.033a.028.028,0,0,1-.028-.024v-.354a.028.028,0,0,1,.028-.028h1.033a.028.028,0,0,1,.028.028Zm0-.915a.028.028,0,0,1-.028.028h-1.033a.028.028,0,0,1-.028-.028v-.349a.028.028,0,0,1,.028-.028h1.033a.028.028,0,0,1,.028.028Zm0-.91a.028.028,0,0,1-.028.028h-1.033a.028.028,0,0,1-.028-.028v-.349a.028.028,0,0,1,.028-.028h1.033a.028.028,0,0,1,.028.028Zm0-.91a.028.028,0,0,1-.028.028h-1.033a.028.028,0,0,1-.028-.028v-.354a.028.028,0,0,1,.028-.024h1.033a.028.028,0,0,1,.028.024Zm0-.91a.028.028,0,0,1-.028.028h-1.033a.028.028,0,0,1-.028-.028v-.354a.028.028,0,0,1,.028-.028h1.033a.028.028,0,0,1,.028.028Z" transform="translate(-329.65 -322.998)" fill="#3dc06e" opacity="0.3"/>
    <path id="Path_1469" data-name="Path 1469" d="M556.659,472.451a.65.65,0,0,0-.344.038.472.472,0,0,1-.415,0,.58.58,0,0,0-.472,0,.289.289,0,0,1-.142.038c-.2,0-.363-.2-.4-.472a.364.364,0,0,0,.1-.108.516.516,0,0,1,.943,0,.382.382,0,0,0,.325.179h0A.41.41,0,0,1,556.659,472.451Z" transform="translate(-328.567 -321.355)" fill="#3dc06e" opacity="0.1"/>
    <path id="Path_1470" data-name="Path 1470" d="M557.258,470.838l-.316.2.193-.354a.329.329,0,0,0-.193-.066h-.071l-.109.066.042-.085a.372.372,0,0,1-.189-.141l-.193.123.123-.222a.565.565,0,0,0-.434-.222.6.6,0,0,0-.5.307.372.372,0,0,1-.325.179h0c-.222,0-.4.25-.4.561s.179.561.4.561a.344.344,0,0,0,.142-.033.565.565,0,0,1,.471,0,.529.529,0,0,0,.208.042.51.51,0,0,0,.208-.042.57.57,0,0,1,.471,0,.345.345,0,0,0,.142.033c.222,0,.4-.25.4-.561A.716.716,0,0,0,557.258,470.838Z" transform="translate(-328.567 -320.563)" fill="#3dc06e" opacity="0.1"/>
    <ellipse id="Ellipse_578" data-name="Ellipse 578" cx="2.9" cy="4.834" rx="2.9" ry="4.834" transform="translate(209.708 160.547)" fill="#a0616a"/>
    <ellipse id="Ellipse_579" data-name="Ellipse 579" cx="2.9" cy="4.834" rx="2.9" ry="4.834" transform="translate(247.885 158.128)" fill="#a0616a"/>
  </g>
</svg>
