<svg xmlns="http://www.w3.org/2000/svg" width="1034.815" height="856.087" viewBox="0 0 1034.815 856.087">
  <g id="undraw_in_no_time_6igu" transform="translate(0 0)">
    <path id="Path_1020" data-name="Path 1020" d="M857.421,813.486a163.324,163.324,0,0,0,217.42-242.664Z" transform="translate(-85.972 7.785)" fill="#f2f2f2"/>
    <path id="Path_1021" data-name="Path 1021" d="M532.834,287.049,330.992,509.556a163.926,163.926,0,0,0,48.461,61.017L596.872,327.908a163.408,163.408,0,0,0-64.038-40.859Z" transform="translate(-160.817 -32.56)" fill="#f2f2f2"/>
    <path id="Path_1022" data-name="Path 1022" d="M520.222,303.346V173.238H414V302.944a164.033,164.033,0,0,1,106.222.4Z" transform="translate(-149.015 -48.741)" fill="#3dc06e"/>
    <path id="Path_1023" data-name="Path 1023" d="M414,555.727V688.86H520.222V555.324a164.034,164.034,0,0,1-106.222.4Z" transform="translate(-149.015 5.582)" fill="#3dc06e"/>
    <path id="Path_1024" data-name="Path 1024" d="M481.4,605.542c-90.376,0-163.9-73.526-163.9-163.9s73.526-163.9,163.9-163.9,163.9,73.526,163.9,163.9S571.778,605.542,481.4,605.542Zm0-326.662c-89.746,0-162.76,73.014-162.76,162.76S391.656,604.4,481.4,604.4s162.76-73.013,162.76-162.76S571.148,278.88,481.4,278.88Z" transform="translate(-162.735 -33.884)"/>
    <path id="Path_1025" data-name="Path 1025" d="M360,435.6a115.36,115.36,0,0,0,115.36,115.36V320.238A115.36,115.36,0,0,0,360,435.6Z" transform="translate(-156.692 -27.841)" fill="#575a89"/>
    <path id="Path_1026" data-name="Path 1026" d="M461,320.238V550.957a115.36,115.36,0,1,0,0-230.719Z" transform="translate(-142.333 -27.841)" fill="#3dc06e"/>
    <circle id="Ellipse_483" data-name="Ellipse 483" cx="16" cy="16" r="16" transform="translate(303 398)" fill="#2f2e41"/>
    <path id="Path_1027" data-name="Path 1027" d="M279.968,310.658l3.984,31.605,3.984,31.605H272l3.984-31.605Z" transform="translate(38.672 44.168)" fill="#2f2e41"/>
    <path id="Path_1028" data-name="Path 1028" d="M375.416,363.433l-51.983,1.944-51.982,1.943.029-4.54.029-4.541,51.953,2.6Z" transform="translate(38.594 50.932)" fill="#2f2e41"/>
    <path id="Path_1029" data-name="Path 1029" d="M610.7,439.636c-2.645,0-3.712-1.817-5.064-4.117-.338-.574-.7-1.2-1.128-1.856l.962-.618c.433.673.806,1.308,1.151,1.9,1.346,2.292,2.088,3.554,4.079,3.554,6.613,0,11.993-11.016,11.993-24.557s-5.38-24.557-11.993-24.557c-3.818,0-6.473,2.356-8.608,7.638l-1.06-.428c2.334-5.776,5.316-8.352,9.667-8.352,7.242,0,13.135,11.528,13.135,25.7S617.946,439.636,610.7,439.636Z" transform="translate(-122.423 -18.173)"/>
    <ellipse id="Ellipse_484" data-name="Ellipse 484" cx="155.5" cy="5.5" rx="155.5" ry="5.5" transform="translate(179 804)" fill="#f2f2f2"/>
    <ellipse id="Ellipse_485" data-name="Ellipse 485" cx="24" cy="23.5" rx="24" ry="23.5" transform="translate(860 159)" fill="#f2f2f2"/>
    <path id="Path_1030" data-name="Path 1030" d="M345.331,64.238A163.391,163.391,0,0,0,196.839,295.666L398.681,73.16a163.085,163.085,0,0,0-53.35-8.922Z" transform="translate(-181.999 -64.238)" fill="#f2f2f2"/>
    <circle id="Ellipse_486" data-name="Ellipse 486" cx="35.679" cy="35.679" r="35.679" transform="translate(670.341 232.113)" fill="#2f2e41"/>
    <path id="Path_1031" data-name="Path 1031" d="M747.584,495.267s28.486,71.964,31.484,71.964,7.5-26.987,7.5-26.987l-17.991-50.975Z" transform="translate(-101.588 -3.809)" fill="#ffb9b9"/>
    <path id="Path_1032" data-name="Path 1032" d="M784.337,323.746s7.5,31.484,4.5,37.481,6,14.993,6,14.993h20.99l14.993-23.988,3-10.495s-9-23.988-7.5-26.987S784.337,323.746,784.337,323.746Z" transform="translate(-96.363 -28.69)" fill="#ffb9b9"/>
    <path id="Path_1033" data-name="Path 1033" d="M784.337,323.746s7.5,31.484,4.5,37.481,6,14.993,6,14.993h20.99l14.993-23.988,3-10.495s-9-23.988-7.5-26.987S784.337,323.746,784.337,323.746Z" transform="translate(-96.363 -28.69)" opacity="0.1"/>
    <path id="Path_1034" data-name="Path 1034" d="M675.845,704.624v16.492l19.49,4.5,1.5-20.99Z" transform="translate(96.088 100.179)" fill="#575a89"/>
    <path id="Path_1035" data-name="Path 1035" d="M790.156,511.206s-20.99,37.481-13.493,56.972,35.982,115.443,35.982,115.443,16.492,53.973,16.492,56.972,13.493,68.966,17.991,70.465,44.978,6,46.477,1.5,3-28.486-1.5-32.984S863.62,635.645,863.62,635.645l-3-46.477L898.1,704.61S908.6,773.576,913.1,778.074s-9,9-4.5,13.493,20.99,16.492,19.49,20.99,35.982,4.5,40.48,1.5,3-49.475,3-49.475l-20.989-62.97L926.589,548.688s-7.5-44.978-13.493-44.978S790.156,511.206,790.156,511.206Z" transform="translate(-97.684 -1.756)" fill="#2f2e41"/>
    <path id="Path_1036" data-name="Path 1036" d="M868.963,779.05s-11.994-10.495-17.991-7.5-25.487,31.484-31.484,29.985-14.992,16.135,0,17.634,38.981-1.5,38.981-1.5a115.79,115.79,0,0,0,14.993,1.5c6,0,19.49,1.5,19.49,0s-3-35.625-4.5-35.625S870.461,783.548,868.963,779.05Z" transform="translate(-92.532 36.248)" fill="#2f2e41"/>
    <path id="Path_1037" data-name="Path 1037" d="M936.963,769.028s-14.992-3-16.492,0-7.5,11.994-7.5,13.493,3,19.49,3,20.99,3,6,6,9a5.29,5.29,0,0,1,1.5,6S962.45,823,962.45,817s-4.5-19.49-7.5-22.489S945.959,770.526,936.963,769.028Z" transform="translate(-78.074 35.776)" fill="#2f2e41"/>
    <circle id="Ellipse_487" data-name="Ellipse 487" cx="31.484" cy="31.484" r="31.484" transform="translate(674.482 245.581)" fill="#ffb9b9"/>
    <path id="Path_1038" data-name="Path 1038" d="M790.708,357.86s17.991,10.495,28.486-6,43.479,32.984,43.479,32.984l9,152.924s-16.492,1.5-44.978,9-41.979-10.495-41.979-10.495l-1.5-86.957,3-40.48-4.5-32.984,3-19.49Z" transform="translate(-96.736 -23.824)" fill="#3dc06e"/>
    <path id="Path_1039" data-name="Path 1039" d="M763.7,373.759s-11.994,3-14.993,23.988-9,83.958-9,83.958l7.5,37.481s20.99-16.492,28.486-9l-4.5-22.489,4.5-13.493L762.2,415.738Z" transform="translate(-102.708 -20.232)" fill="#3dc06e"/>
    <path id="Path_1040" data-name="Path 1040" d="M791.089,334.38s-2.832,0-2.832,10.495-28.486,25.487-28.486,25.487-3,4.5-3,16.492,0,40.48,3,49.475,7.5,38.981,9,41.979,1.5,16.492-1.5,19.49,7.5,20.99,10.495,22.489-10.495,40.48-3,41.979,20.99-17.991,25.487-28.486,1.5-155.923,0-166.417S791.089,334.38,791.089,334.38Z" transform="translate(-100.282 -25.831)" fill="#575a89"/>
    <path id="Path_1041" data-name="Path 1041" d="M825.205,326.345s-1.122-6.843,6.374-.846,9,10.495,9,10.495,38.981,0,40.48,4.5-.893,42.774-.893,42.774l19.7,73.254s27.669,84.873,30.667,87.871-23.988-13.493-38.981-1.5-41.979,17.991-44.978,10.495S810.59,371.975,810.59,371.975s0-28.486,4.5-31.484S825.205,326.345,825.205,326.345Z" transform="translate(-92.63 -27.443)" fill="#575a89"/>
    <path id="Path_1042" data-name="Path 1042" d="M894.219,449.892l-6,68.966-1.5,6,22.489,29.985s4.5-16.492,3-22.489,7.5-73.464,7.5-73.464Z" transform="translate(-81.806 -9.408)" fill="#ffb9b9"/>
    <path id="Path_1043" data-name="Path 1043" d="M778.811,290.914s-7.284-18.939,3.278-25.131L785,274.16s26.588-16.026,33.508-12.383l-6.556,8.741s30.959,0,33.144,12.019l-10.927.364s11.655,7.649,12.019,20.032l-23.31,1.457,11.291,6.556s-42.249,5.827-52.447-10.927Z" transform="translate(-97.496 -36.23)" fill="#2f2e41"/>
    <path id="Path_1044" data-name="Path 1044" d="M772.982,289.21S781.377,306,792.57,301.8s0-19.588,0-19.588l-7.462-3.731Z" transform="translate(-97.977 -33.778)" fill="#2f2e41"/>
    <rect id="Rectangle_83" data-name="Rectangle 83" width="326.662" height="1.142" transform="translate(617.917 854.917)"/>
    <path id="Path_1045" data-name="Path 1045" d="M869.658,340.943s9,1.5,14.993,11.994S920.633,432.4,922.132,435.4s1.5,43.478,1.5,43.478-20.99-11.994-29.985-4.5l-1.5-17.991-19.49-68.966-3-22.489Z" transform="translate(-84.232 -24.898)" fill="#3dc06e"/>
  </g>
</svg>
