<svg id="undraw_fast_car_p4cu" xmlns="http://www.w3.org/2000/svg" width="423.046" height="288.927" viewBox="0 0 423.046 288.927">
  <path id="Path_1359" data-name="Path 1359" d="M498.122,254.1H445.647V242.753a2.715,2.715,0,0,0-2.715-2.715H427.523V227.949a1.709,1.709,0,0,0-1.709-1.709H405.965a1.709,1.709,0,0,0-1.709,1.709v12.094H386.141a2.715,2.715,0,0,0-2.715,2.715v11.349H333.388a.552.552,0,0,0-.548.552V405.32a.552.552,0,0,0,.548.552h33.255a.552.552,0,0,0,.552-.552V385.05a.556.556,0,0,1,.552-.552h14.048a.556.556,0,0,1,.552.552v20.27a.552.552,0,0,0,.548.552h65.713a.556.556,0,0,0,.552-.552V385.05a.552.552,0,0,1,.548-.552h14.048a.552.552,0,0,1,.552.552v20.27a.556.556,0,0,0,.552.552h33.255a.556.556,0,0,0,.552-.552V254.654a.556.556,0,0,0-.544-.552ZM361.242,377.458a.548.548,0,0,1-.548.548h-20.54a.548.548,0,0,1-.552-.548v-7a.552.552,0,0,1,.552-.552h20.552a.552.552,0,0,1,.548.552Zm0-18.128a.548.548,0,0,1-.548.552h-20.54a.548.548,0,0,1-.552-.552v-7.012a.548.548,0,0,1,.552-.552h20.552a.548.548,0,0,1,.548.552Zm0-18.124a.552.552,0,0,1-.548.552h-20.54a.552.552,0,0,1-.552-.552V334.19a.552.552,0,0,1,.552-.552h20.552a.552.552,0,0,1,.548.552Zm0-18.128a.548.548,0,0,1-.548.552h-20.54a.548.548,0,0,1-.552-.552v-6.991a.548.548,0,0,1,.552-.552h20.552a.548.548,0,0,1,.548.552Zm0-18.124a.552.552,0,0,1-.548.552h-20.54a.552.552,0,0,1-.552-.552v-7.016a.548.548,0,0,1,.552-.548h20.552a.548.548,0,0,1,.548.548Zm0-18.124a.548.548,0,0,1-.548.548h-20.54a.548.548,0,0,1-.552-.548v-7.016a.552.552,0,0,1,.552-.552h20.552a.552.552,0,0,1,.548.552Zm0-18.128a.548.548,0,0,1-.548.552h-20.54a.548.548,0,0,1-.552-.552v-6.991a.548.548,0,0,1,.552-.552h20.552a.548.548,0,0,1,.548.552Zm48.7,108.752a.548.548,0,0,1-.552.548h-20.54a.552.552,0,0,1-.552-.548v-6.991a.556.556,0,0,1,.552-.552h20.54a.552.552,0,0,1,.552.552Zm0-18.128a.548.548,0,0,1-.552.552h-20.54a.552.552,0,0,1-.552-.552v-7.008a.552.552,0,0,1,.552-.552h20.54a.548.548,0,0,1,.552.552Zm0-18.124a.552.552,0,0,1-.552.552h-20.54a.556.556,0,0,1-.552-.552V334.19a.556.556,0,0,1,.552-.552h20.54a.552.552,0,0,1,.552.552Zm0-18.128a.548.548,0,0,1-.552.552h-20.54a.552.552,0,0,1-.552-.552v-6.987a.552.552,0,0,1,.552-.552h20.54a.548.548,0,0,1,.552.552Zm0-18.124a.552.552,0,0,1-.552.552h-20.54a.556.556,0,0,1-.552-.552v-7.012a.552.552,0,0,1,.552-.548h20.54a.548.548,0,0,1,.552.548Zm0-18.124a.548.548,0,0,1-.552.548h-20.54a.552.552,0,0,1-.552-.548v-7.012a.556.556,0,0,1,.552-.552h20.54a.552.552,0,0,1,.552.552Zm0-18.128a.548.548,0,0,1-.552.552h-20.54a.552.552,0,0,1-.552-.552v-6.987a.552.552,0,0,1,.552-.552h20.54a.548.548,0,0,1,.552.552ZM443.215,377.45a.548.548,0,0,1-.552.548h-20.54a.552.552,0,0,1-.552-.548v-6.987a.556.556,0,0,1,.552-.552h20.54a.552.552,0,0,1,.552.552Zm0-18.128a.548.548,0,0,1-.552.552h-20.54a.552.552,0,0,1-.552-.552v-7a.552.552,0,0,1,.552-.552h20.54a.548.548,0,0,1,.552.552Zm0-18.124a.552.552,0,0,1-.552.552h-20.54a.556.556,0,0,1-.552-.552V334.19a.556.556,0,0,1,.552-.552h20.54a.552.552,0,0,1,.552.552Zm0-18.128a.548.548,0,0,1-.552.552h-20.54a.552.552,0,0,1-.552-.552v-6.983a.552.552,0,0,1,.552-.552h20.54a.548.548,0,0,1,.552.552Zm0-18.124a.552.552,0,0,1-.552.552h-20.54a.556.556,0,0,1-.552-.552v-7.008a.552.552,0,0,1,.552-.548h20.54a.548.548,0,0,1,.552.548Zm0-18.124a.548.548,0,0,1-.552.548h-20.54a.552.552,0,0,1-.552-.548v-7.007a.556.556,0,0,1,.552-.552h20.54a.552.552,0,0,1,.552.552Zm0-18.128a.548.548,0,0,1-.552.552h-20.54a.552.552,0,0,1-.552-.552v-6.983a.552.552,0,0,1,.552-.552h20.54a.548.548,0,0,1,.552.552Zm48.7,108.752a.552.552,0,0,1-.552.548H470.82a.548.548,0,0,1-.552-.548v-6.983a.552.552,0,0,1,.552-.552h20.54a.556.556,0,0,1,.552.552Zm0-18.128a.552.552,0,0,1-.552.552H470.82a.548.548,0,0,1-.552-.552v-7a.548.548,0,0,1,.552-.552h20.54a.552.552,0,0,1,.552.552Zm0-18.124a.556.556,0,0,1-.552.552H470.82a.552.552,0,0,1-.552-.552v-7a.552.552,0,0,1,.552-.552h20.54a.556.556,0,0,1,.552.552Zm0-18.128a.552.552,0,0,1-.552.552H470.82a.548.548,0,0,1-.544-.54v-6.991a.548.548,0,0,1,.552-.552h20.54a.552.552,0,0,1,.552.552Zm0-18.124a.556.556,0,0,1-.552.552H470.82a.552.552,0,0,1-.552-.552v-7a.548.548,0,0,1,.552-.548h20.54a.552.552,0,0,1,.552.548Zm0-18.124a.552.552,0,0,1-.552.548H470.82a.548.548,0,0,1-.552-.548v-7a.552.552,0,0,1,.552-.552h20.54a.556.556,0,0,1,.552.552Zm0-18.128a.552.552,0,0,1-.552.552H470.82a.548.548,0,0,1-.544-.54v-6.991a.548.548,0,0,1,.552-.552h20.54a.552.552,0,0,1,.552.552Z" transform="translate(-230.544 -173.258)" fill="#f2f2f2"/>
  <path id="Path_1360" data-name="Path 1360" d="M281.235,120.714l-6.345,4.023,3.851-7.008a6.276,6.276,0,0,0-3.835-1.37h-.1a7.4,7.4,0,0,1-1.316-.1l-2.151,1.361.92-1.676a7.629,7.629,0,0,1-3.761-2.862l-3.847,2.453,2.428-4.42a11.254,11.254,0,0,0-8.622-4.358c-4,0-7.568,2.379-9.869,6.088a7.359,7.359,0,0,1-6.541,3.516h-.213c-4.42,0-8,5.012-8,11.19s3.6,11.194,8.017,11.194a6.018,6.018,0,0,0,2.784-.7,11.533,11.533,0,0,1,9.685-.188,10.082,10.082,0,0,0,8.234,0,11.542,11.542,0,0,1,9.6.188,6.018,6.018,0,0,0,2.76.7c4.42,0,8-5.012,8-11.194a14.187,14.187,0,0,0-1.672-6.84Z" transform="translate(-172.013 -102.627)" fill="#f2f2f2"/>
  <path id="Path_1361" data-name="Path 1361" d="M269.3,158.174a11.811,11.811,0,0,0-6.856.744,10.094,10.094,0,0,1-8.23,0,11.562,11.562,0,0,0-9.685.188,5.973,5.973,0,0,1-2.788.7c-3.925,0-7.191-3.954-7.87-9.17a7.535,7.535,0,0,0,1.962-2.118c2.3-3.708,5.867-6.088,9.869-6.088s7.523,2.351,9.812,6.022a7.555,7.555,0,0,0,6.521,3.581h.1C265.277,152.013,267.984,154.519,269.3,158.174Z" transform="translate(-172.037 -123.713)" opacity="0.03"/>
  <path id="Path_1362" data-name="Path 1362" d="M862.6,103.613l-3.173,2.007,1.922-3.5a3.136,3.136,0,0,0-1.913-.683h-.049a3.514,3.514,0,0,1-.658-.049l-1.071.683.458-.818a3.843,3.843,0,0,1-1.877-1.423l-1.917,1.227,1.227-2.2a5.6,5.6,0,0,0-4.3-2.208,5.855,5.855,0,0,0-4.906,3.038,3.68,3.68,0,0,1-3.271,1.754h-.106c-2.2,0-3.99,2.5-3.99,5.581s1.787,5.581,3.99,5.581a2.992,2.992,0,0,0,1.39-.348,5.757,5.757,0,0,1,4.828-.094,5.041,5.041,0,0,0,4.109,0,5.769,5.769,0,0,1,4.788.094,2.981,2.981,0,0,0,1.374.339c2.2,0,3.99-2.5,3.99-5.581a7.106,7.106,0,0,0-.846-3.4Z" transform="translate(-529.754 -96.65)" fill="#f2f2f2"/>
  <path id="Path_1363" data-name="Path 1363" d="M856.638,122.282a5.936,5.936,0,0,0-3.422.372,5.021,5.021,0,0,1-2.044.433,5.074,5.074,0,0,1-2.044-.442,5.765,5.765,0,0,0-4.832.094,2.98,2.98,0,0,1-1.39.348c-1.958,0-3.586-1.971-3.925-4.575a3.785,3.785,0,0,0,.981-1.055,5.494,5.494,0,0,1,9.812-.033,3.769,3.769,0,0,0,3.271,1.787h.053C854.63,119.212,855.979,120.463,856.638,122.282Z" transform="translate(-529.754 -107.155)" opacity="0.03"/>
  <path id="Path_1364" data-name="Path 1364" d="M662.263,191.8l-3.72,2.359,2.257-4.088a3.68,3.68,0,0,0-2.249-.818h-.061a4.416,4.416,0,0,1-.773-.057l-1.259.818.54-.985a4.5,4.5,0,0,1-2.208-1.672l-2.257,1.431,1.427-2.592a6.6,6.6,0,0,0-5.057-2.559,6.936,6.936,0,0,0-5.789,3.573,4.317,4.317,0,0,1-3.827,2.044h-.127c-2.592,0-4.689,2.94-4.689,6.541s2.1,6.562,4.689,6.562a3.5,3.5,0,0,0,1.635-.409,6.77,6.77,0,0,1,5.679-.11,5.937,5.937,0,0,0,4.828,0,6.779,6.779,0,0,1,5.63.11,3.549,3.549,0,0,0,1.635.409c2.592,0,4.694-2.936,4.694-6.562a8.341,8.341,0,0,0-1-3.994Z" transform="translate(-408.856 -148.075)" fill="#f2f2f2"/>
  <path id="Path_1365" data-name="Path 1365" d="M655.251,213.775a6.95,6.95,0,0,0-4.023.437,5.936,5.936,0,0,1-4.828,0,6.77,6.77,0,0,0-5.679.11,3.512,3.512,0,0,1-1.635.409c-2.3,0-4.219-2.318-4.616-5.376a4.4,4.4,0,0,0,1.149-1.227,6.476,6.476,0,0,1,11.554-.041,4.424,4.424,0,0,0,3.823,2.1h.045C652.888,210.161,654.479,211.633,655.251,213.775Z" transform="translate(-408.856 -160.442)" opacity="0.03"/>
  <path id="Path_1366" data-name="Path 1366" d="M951.256,611.759c0,.7,0,1.406-.045,2.1a49.685,49.685,0,0,1-.973,8.05c-2.686,13.128-10.442,23.333-20.184,26.346a20.153,20.153,0,0,1-5.985.912c-15.017,0-27.188-16.762-27.188-37.409s12.171-37.409,27.188-37.409c14.085,0,25.671,14.743,27.049,33.627C951.211,609.22,951.256,610.483,951.256,611.759Z" transform="translate(-563.982 -379.047)" fill="#36334a"/>
  <path id="Path_1367" data-name="Path 1367" d="M980.178,626.876a49.706,49.706,0,0,1-.973,8.05c-2.686,13.128-10.442,23.333-20.184,26.346-7.543-3.471-13.14-16.48-13.14-32,0-18.177,7.686-32.912,17.171-32.912,7.96,0,14.657,10.393,16.6,24.494C979.92,622.787,980.1,624.807,980.178,626.876Z" transform="translate(-592.949 -392.058)" opacity="0.1"/>
  <path id="Path_1368" data-name="Path 1368" d="M695.88,453.081s73.591-15.127,112.431-1.227c0,0,5.724,2.862,0,7.768,0,0,5.413,5.724-4.039,7.768L766.72,469.7l-70.84-7.216Z" transform="translate(-445.159 -303.159)" fill="#3f3d56"/>
  <path id="Path_1369" data-name="Path 1369" d="M727.38,459.207s63.006-12.952,96.261-1.051c0,0,4.906,2.453,0,6.652,0,0,4.632,4.906-3.459,6.652l-32.151,1.975-60.651-6.169Z" transform="translate(-463.78 -307.384)" opacity="0.1"/>
  <path id="Path_1370" data-name="Path 1370" d="M753.908,479.6,749,469.792s2.15-9.927-15.331-12.846c-.969-4.33-5.36-7.6-10.63-7.6-5.143,0-9.444,3.107-10.556,7.277-2.51.217-5.184.511-8.046.9l-4,21.44-.5-1s2.539-11.726-20.344-13.439a8.512,8.512,0,0,0,1.946-5.368c0-5.2-4.853-9.4-10.834-9.4s-10.834,4.207-10.834,9.4a8.585,8.585,0,0,0,2.273,5.756q-3.209.307-6.77.785l-4.5,24.122,20.851,2.862,33.116-4.906-2.931-5.867,18.876,2.592Z" transform="translate(-418.556 -305.152)" fill="#3dc06e"/>
  <path id="Path_1371" data-name="Path 1371" d="M753.908,479.6,749,469.792s2.15-9.927-15.331-12.846c-.969-4.33-5.36-7.6-10.63-7.6-5.143,0-9.444,3.107-10.556,7.277-2.51.217-5.184.511-8.046.9l-4,21.44-.5-1s2.539-11.726-20.344-13.439a8.512,8.512,0,0,0,1.946-5.368c0-5.2-4.853-9.4-10.834-9.4s-10.834,4.207-10.834,9.4a8.585,8.585,0,0,0,2.273,5.756q-3.209.307-6.77.785l-4.5,24.122,20.851,2.862,33.116-4.906-2.931-5.867,18.876,2.592Z" transform="translate(-418.556 -305.152)" opacity="0.2"/>
  <path id="Path_1372" data-name="Path 1372" d="M723.175,443.1s-3.271-18.349,11.856-18.758,10.221,26.575,10.221,26.575,11.448,2.453,12.265,6.95-39.658,5.724-39.658,5.724Z" transform="translate(-458.152 -290.366)" fill="#3dc06e"/>
  <path id="Path_1373" data-name="Path 1373" d="M561.836,645.574c0,21.668-16.108,39.249-35.978,39.249s-35.978-17.58-35.978-39.249,16.309-42.724,36.182-42.724S561.836,623.9,561.836,645.574Z" transform="translate(-323.38 -395.895)" fill="#36334a"/>
  <ellipse id="Ellipse_563" data-name="Ellipse 563" cx="28.619" cy="33.112" rx="28.619" ry="33.112" transform="translate(173.859 218.202)" opacity="0.1"/>
  <ellipse id="Ellipse_564" data-name="Ellipse 564" cx="35.978" cy="39.249" rx="35.978" ry="39.249" transform="translate(8.279 206.746)" fill="#36334a"/>
  <path id="Path_1374" data-name="Path 1374" d="M317.783,469.35s-16.762.818-15.945,9.812,14.309,2.453,14.309,2.453Z" transform="translate(-212.2 -316.975)" fill="#36334a"/>
  <path id="Path_1375" data-name="Path 1375" d="M462.018,429.163l6.9-46.056s1.635-5.724-20.442-5.724c0,0-70.729-4.5-88.718,2.862,0,0-20.851,7.768-49.879,47.834C309.88,428.079,459.156,431.616,462.018,429.163Z" transform="translate(-216.971 -261.804)" fill="#3f3d56"/>
  <path id="Path_1376" data-name="Path 1376" d="M470.374,388.35,457.7,438.637l-7.948-.192-37.613-.916-83.89-2.044c-.233-3.974,39.494-45.091,39.494-45.091Z" transform="translate(-227.829 -269.091)" fill="#36334a"/>
  <path id="Path_1377" data-name="Path 1377" d="M533.47,462.352l3.426-13.246s-3.271-18.353,11.856-18.762,10.221,26.575,10.221,26.575,10.425,2.236,12.085,6.349Z" transform="translate(-349.148 -293.913)" fill="#3dc06e" opacity="0.2"/>
  <path id="Path_1378" data-name="Path 1378" d="M470.108,559.831c-2.453-23.713-17.784-28.823-17.784-28.823-14.718-.818-24.53,55.193-24.53,55.193L314.545,596.422s3.884-47.63-23.508-55.4-34.547,48.039-35.774,55.807-165.171-.818-169.669-4.088-2.862-34.751-1.635-37.2,4.5-13.492,4.5-13.492c0-2.633,1.259-5.961,2.306-8.271.736-1.635,1.374-2.768,1.374-2.768,3.553-20.148,22-25.025,23.238-25.348h.065c4.906-4.906,50.287-8.177,50.287-8.177l17.171-3.271L322.5,496.955l5.94.119,70.975-3.414,48-2.31c11.039,0,16.762,27.8,16.762,27.8C474.4,543.682,470.108,559.831,470.108,559.831Z" transform="translate(-82.63 -329.981)" fill="#3f3d56"/>
  <ellipse id="Ellipse_565" data-name="Ellipse 565" cx="21.047" cy="13.177" rx="21.047" ry="13.177" transform="translate(127.956 189.181) rotate(-21.92)" opacity="0.1"/>
  <ellipse id="Ellipse_566" data-name="Ellipse 566" cx="21.047" cy="13.177" rx="21.047" ry="13.177" transform="translate(127.139 187.544) rotate(-21.92)" fill="#f2f2f2"/>
  <path id="Path_1379" data-name="Path 1379" d="M129.132,528.39c-.209,4.5-2.224,10.172-5.85,15.638-5.834,8.8-13.835,13.978-18.762,12.461.736-1.635,1.374-2.768,1.374-2.768C109.447,533.574,127.893,528.7,129.132,528.39Z" transform="translate(-95.57 -351.877)" opacity="0.1"/>
  <path id="Path_1380" data-name="Path 1380" d="M126.132,526.39c-.209,4.5-2.224,10.172-5.851,15.638-5.834,8.8-13.835,13.978-18.762,12.461.736-1.635,1.374-2.768,1.374-2.768C106.447,531.574,124.893,526.7,126.132,526.39Z" transform="translate(-93.797 -350.695)" fill="#f2f2f2"/>
  <path id="Path_1381" data-name="Path 1381" d="M170.184,453.187h-32.3l-1.635-4.5H175.5Z" transform="translate(-80.546 -265.247)" fill="#36334a"/>
  <rect id="Rectangle_153" data-name="Rectangle 153" width="53.149" height="15.536" transform="translate(29.13 221.056)" fill="#36334a"/>
  <circle id="Ellipse_567" data-name="Ellipse 567" cx="7.359" cy="7.359" r="7.359" transform="translate(132.158 237.001)" opacity="0.1"/>
  <circle id="Ellipse_568" data-name="Ellipse 568" cx="7.359" cy="7.359" r="7.359" transform="translate(131.34 235.774)" fill="#f2f2f2"/>
  <ellipse id="Ellipse_569" data-name="Ellipse 569" cx="3.68" cy="7.768" rx="3.68" ry="7.768" transform="translate(2.146 230.868)" opacity="0.1"/>
  <ellipse id="Ellipse_570" data-name="Ellipse 570" cx="3.68" cy="7.768" rx="3.68" ry="7.768" transform="translate(0.92 230.459)" fill="#f2f2f2"/>
  <path id="Path_1382" data-name="Path 1382" d="M758.285,538.845c-4.5,13.9-4.906,35.569-4.906,35.569l-1.635,5.724-79.724,8.994s.409-40.066,1.635-58.873A76.338,76.338,0,0,0,669.35,500.3l5.94.119L746.265,497C758.122,505.312,762.32,526.363,758.285,538.845Z" transform="translate(-429.475 -333.321)" fill="#36334a"/>
  <path id="Path_1383" data-name="Path 1383" d="M839.71,536.454a2.007,2.007,0,0,0-1.848,2.326,1.435,1.435,0,0,0,.818,1.067c1.32.658,10.111-.818,13.443-1.406a2.261,2.261,0,0,0,1.889-2.016c.041-.581-.172-1.075-1.022-1.075Z" transform="translate(-529.077 -355.992)" fill="#f2f2f2"/>
  <path id="Path_1384" data-name="Path 1384" d="M668.88,486.571s2.044,8.994,11.856,6.133l3.271-12.674-6.541-3.68Z" transform="translate(-429.197 -321.113)" fill="#36334a"/>
  <path id="Path_1385" data-name="Path 1385" d="M692.408,452.587c4.5-2.666,11.631-5,18.688.6a8.34,8.34,0,0,1,2.408,10.033c-2.31,5-7.792,10.425-20.593,3.929a8.258,8.258,0,0,1-3.115-2.756l-.065-.1a8.3,8.3,0,0,1,2.678-11.709Z" transform="translate(-440.709 -305.392)" fill="#36334a"/>
  <circle id="Ellipse_571" data-name="Ellipse 571" cx="8.177" cy="8.177" r="8.177" transform="translate(194.506 241.293)" fill="#f2f2f2"/>
  <ellipse id="Ellipse_572" data-name="Ellipse 572" cx="4.497" cy="8.177" rx="4.497" ry="8.177" transform="translate(367.036 226.575)" fill="#f2f2f2"/>
  <rect id="Rectangle_154" data-name="Rectangle 154" width="10.63" height="14.309" rx="5.315" transform="translate(197.163 224.327)" fill="#36334a"/>
  <path id="Path_1386" data-name="Path 1386" d="M901.656,510.19h0a2.862,2.862,0,0,1,2.862,2.862v6.541a4.906,4.906,0,0,1-4.906,4.906h0a2.862,2.862,0,0,1-2.862-2.862V515.1a4.906,4.906,0,0,1,4.906-4.906Z" transform="translate(-530.122 -301.604)" fill="#36334a"/>
  <path id="Path_1387" data-name="Path 1387" d="M984.286,714.159h0a4.906,4.906,0,0,1-4.906-4.906v-4.5a4.906,4.906,0,0,1,4.906-4.906h0c2.7,0,2.453,2.208,2.453,4.906v4.5C986.735,711.952,986.993,714.159,984.286,714.159Z" transform="translate(-612.753 -453.237)" fill="#36334a"/>
  <path id="Path_1388" data-name="Path 1388" d="M874.021,556.19h0a4.906,4.906,0,0,1,4.906,4.906v6.133a3.271,3.271,0,0,1-3.271,3.271h0a4.906,4.906,0,0,1-4.906-4.906v-6.133A3.271,3.271,0,0,1,874.021,556.19Z" transform="translate(-514.752 -328.797)" fill="#36334a"/>
  <path id="Path_1389" data-name="Path 1389" d="M1020.132,659.938c0,.7,0,1.406-.045,2.1a49.706,49.706,0,0,1-.973,8.05,4.986,4.986,0,0,1-.818.069,4.906,4.906,0,0,1-4.906-4.906v-4.5a4.906,4.906,0,0,1,4.906-4.906,4.789,4.789,0,0,1,1.267.167c.147.041.294.086.433.139C1020.087,657.4,1020.132,658.663,1020.132,659.938Z" transform="translate(-632.858 -427.227)" fill="#36334a"/>
  <rect id="Rectangle_155" data-name="Rectangle 155" width="10.63" height="14.309" rx="5.315" transform="translate(217.81 241.702)" fill="#36334a"/>
  <rect id="Rectangle_156" data-name="Rectangle 156" width="10.63" height="14.309" rx="5.315" transform="translate(177.743 241.702)" fill="#36334a"/>
  <rect id="Rectangle_157" data-name="Rectangle 157" width="10.63" height="14.309" rx="5.315" transform="translate(197.368 262.962)" fill="#36334a"/>
  <path id="Path_1390" data-name="Path 1390" d="M908,292.864a6.712,6.712,0,0,1-.409,2.285,6.787,6.787,0,0,1-12.711.18,6.678,6.678,0,0,1-.466-2.453,6.787,6.787,0,0,1,13.573,0Z" transform="translate(-562.522 -208.639)" fill="#ff6584"/>
  <path id="Path_1391" data-name="Path 1391" d="M894.985,292.269a6.787,6.787,0,0,1,2.641-9.228,6.718,6.718,0,0,1,2.453-.818,6.787,6.787,0,1,0,.572,13.52A6.783,6.783,0,0,1,894.985,292.269Z" transform="translate(-561.719 -206.351)" fill="#ff6584"/>
  <rect id="Rectangle_158" data-name="Rectangle 158" width="18.181" height="28.361" transform="translate(330.204 93.678)" fill="#ff6584"/>
  <rect id="Rectangle_159" data-name="Rectangle 159" width="18.181" height="28.361" transform="translate(330.613 92.86)" opacity="0.1"/>
  <path id="Path_1392" data-name="Path 1392" d="M800.042,577.46s-1.938,5.315-6.541,6.059a32.033,32.033,0,0,0-7.261,1.93l10.908,7.028,5.818-.728s.724-7.514,3.148-9.211S800.042,577.46,800.042,577.46Z" transform="translate(-498.576 -380.885)" fill="#fbbebe"/>
  <path id="Path_1393" data-name="Path 1393" d="M1003.323,577.46s1.938,5.315,6.542,6.059a31.746,31.746,0,0,1,7.269,1.942l-10.908,7.028-5.818-.728s-.724-7.514-3.148-9.211S1003.323,577.46,1003.323,577.46Z" transform="translate(-623.065 -380.885)" fill="#fbbebe"/>
  <path id="Path_1394" data-name="Path 1394" d="M838.366,462.44a8.468,8.468,0,0,0-3.88,4.362,16.924,16.924,0,0,0-8.242,6.3s-3.635,3.876-4.121,5.818-6.059,13.59-6.059,13.59-5.573,18.177-8.484,20.119c0,0,9.211-1.942,10.908,7.269,0,0,2.183,0,4.608-8.484s8.238-18.9,8.238-18.9,1.942-7.273,3.639-8.483,4.362-6.787,6.787-5.335,18.422-.241,18.422-.241,9.452,4.362,9.694,7.273,1.942,3.148,2.183,5.573,9.211,21.575,9.211,21.575,1.7,5.315,2.179,6.541c0,0,5.335-12.846,12.363-5.577,0,0-.241-4.849-2.424-7.768s-11.636-25.7-11.636-25.7-.969-3.393-1.938-4.362-8.483-8.725-11.145-8.725c0,0-1.455-3.639-3.152-4.121Z" transform="translate(-511.191 -312.89)" fill="#696880"/>
  <path id="Path_1395" data-name="Path 1395" d="M795.738,600.143a11.811,11.811,0,0,1-11.542-1.554,23.009,23.009,0,0,0-5.147-2.98c-2.568-1.038-5.646-1.811-6.582-.07-1.7,3.148,20.606,10.908,20.606,10.908S795.979,604.747,795.738,600.143Z" transform="translate(-490.379 -390.964)" fill="#696880"/>
  <path id="Path_1396" data-name="Path 1396" d="M1003.209,600.143a11.811,11.811,0,0,0,11.542-1.554,23.005,23.005,0,0,1,5.147-2.98c2.568-1.038,5.646-1.811,6.582-.07,1.7,3.148-20.606,10.908-20.606,10.908S1002.968,604.747,1003.209,600.143Z" transform="translate(-626.831 -390.964)" fill="#696880"/>
  <path id="Path_1397" data-name="Path 1397" d="M892.424,361.124a2.876,2.876,0,0,1-1.088,2.2,5.99,5.99,0,0,1-2.011.478,4.677,4.677,0,0,0-3.2,2.764,7.163,7.163,0,0,0-.3,4.313,15.906,15.906,0,0,0,.617,2.073,19.63,19.63,0,0,0,2.9,5.679,24.123,24.123,0,0,0,3.8,3.581,6.562,6.562,0,0,0,5.029,2.044,4.887,4.887,0,0,0,2.694-.384c1.227-.707,1.595-2.273,2.257-3.524.568-1.067,1.411-1.967,1.938-3.054a12.176,12.176,0,0,0,.818-2.662l1.132-5.033c.409-1.823.785-3.884-.245-5.45a.857.857,0,0,0-.3-.315,1.124,1.124,0,0,0-.617-.065,6.672,6.672,0,0,1-3.741-.854,1.481,1.481,0,0,1-.47-.368,1.852,1.852,0,0,1-.29-.863,9.119,9.119,0,0,0-.523-1.823,1.226,1.226,0,0,0-.356-.544,1.272,1.272,0,0,0-.572-.192,46.782,46.782,0,0,0-5.286-.556c-.585-.025-1.46-.258-1.856.253S892.49,360.511,892.424,361.124Z" transform="translate(-557.326 -251.444)" fill="#fbbebe"/>
  <path id="Path_1398" data-name="Path 1398" d="M892.424,361.124a2.876,2.876,0,0,1-1.088,2.2,5.99,5.99,0,0,1-2.011.478,4.677,4.677,0,0,0-3.2,2.764,7.163,7.163,0,0,0-.3,4.313,15.906,15.906,0,0,0,.617,2.073,19.63,19.63,0,0,0,2.9,5.679,24.123,24.123,0,0,0,3.8,3.581,6.562,6.562,0,0,0,5.029,2.044,4.887,4.887,0,0,0,2.694-.384c1.227-.707,1.595-2.273,2.257-3.524.568-1.067,1.411-1.967,1.938-3.054a12.176,12.176,0,0,0,.818-2.662l1.132-5.033c.409-1.823.785-3.884-.245-5.45a.857.857,0,0,0-.3-.315,1.124,1.124,0,0,0-.617-.065,6.672,6.672,0,0,1-3.741-.854,1.481,1.481,0,0,1-.47-.368,1.852,1.852,0,0,1-.29-.863,9.119,9.119,0,0,0-.523-1.823,1.226,1.226,0,0,0-.356-.544,1.272,1.272,0,0,0-.572-.192,46.782,46.782,0,0,0-5.286-.556c-.585-.025-1.46-.258-1.856.253S892.49,360.511,892.424,361.124Z" transform="translate(-557.326 -251.444)" opacity="0.1"/>
  <path id="Path_1399" data-name="Path 1399" d="M879.538,370.45a11.213,11.213,0,0,0-2.919-.462,7.3,7.3,0,0,0-6.19,2.662,6.284,6.284,0,0,0-.936,4.681,9.693,9.693,0,0,0,2.126,4.362,13.109,13.109,0,0,1,1.635,2.142,11.35,11.35,0,0,1,.818,4.088c.409,3.316,1.823,6.439,2.388,9.734s.074,7.122-2.531,9.223c-.437.352-.965.72-1,1.28-.061.9,1.1,1.28,2,1.361a22.787,22.787,0,0,0,8.025-.184c1.079-.286,2.114-.732,3.209-.936,2.784-.519,5.581.544,8.361,1.059a37.545,37.545,0,0,0,6.1.495,3.272,3.272,0,0,0,1.406-.184,1.124,1.124,0,0,0,.711-1.12,1.9,1.9,0,0,0-.482-.818c-1.406-1.742-1.836-4.048-2.22-6.251l-1.267-7.42c-.691-3.958-1.333-8.254.54-11.811,1.349-2.555,3.827-4.354,5.25-6.868a3.335,3.335,0,0,0-1.877-5.278,9.489,9.489,0,0,0-7.11-.258,28.7,28.7,0,0,1-.7,5.315l-.495,2.862a36.408,36.408,0,0,1-1.1,4.988,5.4,5.4,0,0,1-.887,1.807,4.674,4.674,0,0,1-1.566,1.141,9.306,9.306,0,0,1-4.15.944,5.446,5.446,0,0,1-1.832-.278,7.822,7.822,0,0,1-2.522-1.778,4.114,4.114,0,0,1-.666-.72,4.337,4.337,0,0,1-.454-1.092,22.184,22.184,0,0,1-.777-3.058c-.127-.793-.164-1.6-.221-2.4A58.345,58.345,0,0,0,879.538,370.45Z" transform="translate(-547.723 -257.876)" fill="#f2f2f2"/>
  <path id="Path_1400" data-name="Path 1400" d="M888.128,486.75s-.969,12.846,5.09,15.029.728-10.667.728-10.667l-1.938-3.88Z" transform="translate(-558.774 -327.261)" fill="#fbbebe"/>
  <path id="Path_1401" data-name="Path 1401" d="M927.063,486.75s.969,12.846-5.09,15.029-.728-10.667-.728-10.667l1.938-3.88Z" transform="translate(-577.104 -327.261)" fill="#fbbebe"/>
  <path id="Path_1402" data-name="Path 1402" d="M872.368,380.741l-1.938,3.152s1.7,10.908,1.938,12.846a25.287,25.287,0,0,0,.969,4.113s.241,5.818.241,8a24.414,24.414,0,0,0,1.227,5.818,26.378,26.378,0,0,0,1.226,6.059c.969,2.67,1.942,5.818,1.942,5.818s1.227-3.393,6.059,1.7a2.94,2.94,0,0,0,0-4.121,64.127,64.127,0,0,1-1.456-9.935c0-3.393-2.666-19.624-2.666-19.624S878.186,376.133,872.368,380.741Z" transform="translate(-548.346 -264.156)" opacity="0.1"/>
  <path id="Path_1403" data-name="Path 1403" d="M871.2,380.159l-1.938,3.148s1.7,10.908,1.938,12.85a25.464,25.464,0,0,0,.973,4.117s.253,5.818.253,8.005a24.308,24.308,0,0,0,1.227,5.818,26.5,26.5,0,0,0,1.226,6.059c.969,2.666,1.938,5.818,1.938,5.818s1.226-3.393,6.059,1.7a2.935,2.935,0,0,0,0-4.121,64.126,64.126,0,0,1-1.455-9.939c0-3.4-2.666-19.624-2.666-19.624S877.008,375.572,871.2,380.159Z" transform="translate(-547.654 -263.815)" fill="#f2f2f2"/>
  <path id="Path_1404" data-name="Path 1404" d="M933.8,375.086l1.227,1.443a44.537,44.537,0,0,1-1.721,18.676l-.969,9.457s-1.7,8-1.942,9.939-.241,2.179-.724,2.907a.932.932,0,0,0,0,1.227l-1.455,5.335s-2.183-2.666-6.542.728a3.847,3.847,0,0,1-.241-3.639c.985-1.7.969-2.424.728-2.907s.969-2.911.969-3.393,1.7-11.636,1.7-11.636.728-10.908,1.456-14.542c.446-2.236.433-7.224.36-10.732a4.108,4.108,0,0,1,6.95-3.062A1.9,1.9,0,0,1,933.8,375.086Z" transform="translate(-578.272 -260.443)" opacity="0.1"/>
  <path id="Path_1405" data-name="Path 1405" d="M935.563,373.117l1.227,1.443a44.622,44.622,0,0,1-1.721,18.676l-.969,9.452s-1.7,8-1.942,9.939-.241,2.183-.728,2.907a.944.944,0,0,0,0,1.227l-1.451,5.315s-2.183-2.666-6.541.728a3.838,3.838,0,0,1-.241-3.635c.985-1.7.969-2.424.724-2.911s.973-2.907.973-3.393,1.7-11.636,1.7-11.636.728-10.908,1.451-14.542.245-14.542.245-14.542A5.607,5.607,0,0,1,935.563,373.117Z" transform="translate(-579.312 -258.956)" fill="#f2f2f2"/>
  <circle id="Ellipse_573" data-name="Ellipse 573" cx="9.698" cy="9.698" r="9.698" transform="translate(330.323 91.372)" fill="#fbbebe"/>
  <path id="Path_1406" data-name="Path 1406" d="M908.291,307.467a6.787,6.787,0,0,1-12.711.18,12.029,12.029,0,0,1,7.654-.164A6.859,6.859,0,0,1,908.291,307.467Z" transform="translate(-563.213 -220.957)" opacity="0.1"/>
  <path id="Path_1407" data-name="Path 1407" d="M892.914,308.675s-18.664-6.541-14.06,25.209c0,0,4.121,2.666,7.273.969,0,0-2.183-22.077,6.3-21.088s7.032,20.6,7.032,20.6,4.849,1.455,6.3-1.227S905.277,304.308,892.914,308.675Z" transform="translate(-552.894 -221.661)" fill="#ff6584"/>
  <path id="Path_1408" data-name="Path 1408" d="M903.644,318.325c-5.822-.666-6.619,9.51-6.541,15.965.074-6.415,1.153-15.127,6.541-14.51,6.059.691,7.048,10.9,7.122,16.677C910.832,331.154,910.251,319.081,903.644,318.325Z" transform="translate(-564.111 -227.677)" opacity="0.1"/>
  <path id="Path_1409" data-name="Path 1409" d="M878.862,355.414a65.907,65.907,0,0,1-.724-8.414,62.233,62.233,0,0,0,.724,9.853s4.121,2.666,7.273.969c0,0-.053-.523-.11-1.4C882.889,358.039,878.862,355.414,878.862,355.414Z" transform="translate(-552.902 -244.647)" opacity="0.1"/>
  <path id="Path_1410" data-name="Path 1410" d="M936.61,361.839c-1.353,2.482-5.65,1.394-6.235,1.226-.029.9-.065,1.435-.065,1.435s4.849,1.456,6.3-1.227a11.057,11.057,0,0,0,.409-4.174A7.563,7.563,0,0,1,936.61,361.839Z" transform="translate(-583.744 -251.8)" opacity="0.1"/>
  <path id="Path_1411" data-name="Path 1411" d="M1060.326,683.513c1.12-2.073-.151-4.616-1.611-6.464s-3.242-3.774-3.205-6.133c.057-3.385,3.651-5.385,6.541-7.179a31.86,31.86,0,0,0,5.859-4.71,8.671,8.671,0,0,0,1.8-2.408,9.825,9.825,0,0,0,.54-4.285q-.184-7.249-.716-14.485" transform="translate(-657.757 -416.586)" fill="none" stroke="#3f3d56" stroke-miterlimit="10" stroke-width="4"/>
  <path id="Path_1412" data-name="Path 1412" d="M1087.842,629.925a5.274,5.274,0,0,0-2.637-4.33l-1.182,2.339.037-2.833a5.35,5.35,0,0,0-1.742-.208,5.282,5.282,0,1,0,5.524,5.033Z" transform="translate(-670.629 -408.922)" fill="#3dc06e"/>
  <path id="Path_1413" data-name="Path 1413" d="M1065.642,713.531a5.282,5.282,0,0,1-9.972-2.167,5.216,5.216,0,0,1,.344-2.146,5.286,5.286,0,0,1,9.886.057l-3.3,2.686,3.626-.842A5.23,5.23,0,0,1,1065.642,713.531Z" transform="translate(-657.848 -456.775)" fill="#3dc06e"/>
  <path id="Path_1414" data-name="Path 1414" d="M1065.694,684.3a5.282,5.282,0,0,1-5.523-5.033,5.211,5.211,0,0,1,.458-2.4,5.315,5.315,0,0,1,3.389-2.927l-.025,2.179,1.194-2.371h0a5.282,5.282,0,0,1,5.519,5.033,5.187,5.187,0,0,1-.225,1.8A5.282,5.282,0,0,1,1065.694,684.3Z" transform="translate(-660.509 -437.8)" fill="#3dc06e"/>
  <path id="Path_1415" data-name="Path 1415" d="M1097.063,663.428a5.282,5.282,0,0,1-5.523-5.033,5.193,5.193,0,0,1,.5-2.5,5.278,5.278,0,0,1,7.359-2.351l-.932,2.555,1.917-1.844a5.278,5.278,0,0,1,1.709,3.647,5.176,5.176,0,0,1-.135,1.456A5.282,5.282,0,0,1,1097.063,663.428Z" transform="translate(-679.053 -425.462)" fill="#3dc06e"/>
  <path id="Path_1416" data-name="Path 1416" d="M1087.136,635.513c-1.227.135-2.408.511-3.631.589a3.933,3.933,0,0,1-3.34-1.169,16.446,16.446,0,0,1-.977-1.717,3.794,3.794,0,0,0-1.329-1.255,5.22,5.22,0,0,0-.568,2.637,5.282,5.282,0,0,0,10.442.871C1087.532,635.476,1087.332,635.492,1087.136,635.513Z" transform="translate(-670.63 -413.104)" opacity="0.1"/>
  <path id="Path_1417" data-name="Path 1417" d="M1097.063,667.8a5.282,5.282,0,0,1-5.523-5.033,5.193,5.193,0,0,1,.5-2.5,3.929,3.929,0,0,1,1.063,1.063,16.321,16.321,0,0,0,1.047,1.746,4.324,4.324,0,0,0,3.5,1.227c1.275-.057,2.5-.409,3.774-.536.176,0,.356-.029.531-.033a5.282,5.282,0,0,1-4.894,4.068Z" transform="translate(-679.053 -429.839)" opacity="0.1"/>
  <path id="Path_1418" data-name="Path 1418" d="M1065.694,688.817a5.282,5.282,0,0,1-5.523-5.033,5.21,5.21,0,0,1,.458-2.4,4.358,4.358,0,0,1,1.1,1.071,20.9,20.9,0,0,0,1.145,1.783,4.9,4.9,0,0,0,3.741,1.312c1.349-.029,2.568-.352,3.868-.45A5.282,5.282,0,0,1,1065.694,688.817Z" transform="translate(-660.509 -442.319)" opacity="0.1"/>
  <path id="Path_1419" data-name="Path 1419" d="M1065.642,718.423a5.282,5.282,0,0,1-9.972-2.167,5.216,5.216,0,0,1,.344-2.146,5.313,5.313,0,0,1,1.157,1.034,18.031,18.031,0,0,0,1.415,1.877,6.61,6.61,0,0,0,4.375,1.541A23.312,23.312,0,0,0,1065.642,718.423Z" transform="translate(-657.848 -461.667)" opacity="0.1"/>
  <path id="Path_1420" data-name="Path 1420" d="M1047.81,740.445s4.166-.127,5.425-1.022,6.411-1.962,6.725-.527,6.263,7.138,1.558,7.175-10.936-.732-12.192-1.5S1047.81,740.445,1047.81,740.445Z" transform="translate(-653.206 -475.904)" fill="#656380"/>
  <path id="Path_1421" data-name="Path 1421" d="M1061.6,748.821c-4.706.037-10.937-.736-12.192-1.5-.953-.585-1.333-2.67-1.46-3.635h-.139s.262,3.365,1.517,4.129,7.486,1.533,12.191,1.5c1.357,0,1.828-.495,1.8-1.227C1063.133,748.543,1062.606,748.813,1061.6,748.821Z" transform="translate(-653.206 -479.154)" opacity="0.2"/>
</svg>
