<svg xmlns="http://www.w3.org/2000/svg" xmlns:xlink="http://www.w3.org/1999/xlink" width="403.827" height="296.259" viewBox="0 0 403.827 296.259">
  <defs>
    <linearGradient id="linear-gradient" x1="0.5" y1="1" x2="0.5" gradientUnits="objectBoundingBox">
      <stop offset="0" stop-color="gray" stop-opacity="0.251"/>
      <stop offset="0.54" stop-color="gray" stop-opacity="0.122"/>
      <stop offset="1" stop-color="gray" stop-opacity="0.102"/>
    </linearGradient>
    <linearGradient id="linear-gradient-2" x1="9.926" x2="9.926" y2="0" xlink:href="#linear-gradient"/>
  </defs>
  <g id="undraw_make_it_rain_iwk4" transform="translate(0 0.001)">
    <path id="Path_1471" data-name="Path 1471" d="M194.859,300.789c-5.311,1.6-10.282,5.489-11.609,10.879-1.517,6.194,1.982,12.438,2.488,18.8,1.634,20.838-28.011,35.54-23.782,56.009,1.679,8.139,8.466,14.126,15.154,19.072,10.713,7.9,22.6,14.876,35.764,16.845,19.98,2.993,40.855-5.8,60.276-.245,15.664,4.486,27.65,17.633,43.206,22.484,11.841,3.694,24.6,2.239,36.9.742,6.634-.8,13.583-1.733,18.935-5.713,9.951-7.409,10.577-22.041,17.239-32.526,10.291-16.17,32.853-19.346,51.772-16.2s37.29,10.879,56.457,10.249c4.1-.137,8.292-.692,11.866-2.7,4.345-2.442,7.281-6.746,9.876-11A178.052,178.052,0,0,0,545.219,299c.112-5.369-.079-10.97-2.6-15.709-3.192-6-9.573-9.582-15.925-11.995-15.253-5.8-32.1-6.754-47.05-13.3-14.416-6.314-26.091-17.389-38.646-26.879a205.849,205.849,0,0,0-84.783-37.758c-7.21-1.393-14.694-2.388-21.858-.779-8.255,1.853-15.37,7-21.767,12.538-17.02,14.735-30.66,32.916-46.345,49.065a263.857,263.857,0,0,1-35.208,30.362c-5.8,4.183-11.974,9.15-18.442,12.243C206.672,299.616,201.12,298.9,194.859,300.789Z" transform="translate(-141.417 -150.702)" fill="#3dc06e" opacity="0.2"/>
    <path id="Path_1472" data-name="Path 1472" d="M390.231,138.88s-16.025,21.282-4.561,46.088-19.98,64.662-19.98,64.662" transform="translate(-260.923 -119.75)" fill="none" stroke="#535461" stroke-miterlimit="10" stroke-width="2"/>
    <path id="Path_1473" data-name="Path 1473" d="M427.581,103.905c-1.273,5.477-7.363,8.74-7.363,8.74s-4.022-5.618-2.749-11.095,4.561-9.391,7.363-8.74S428.854,98.428,427.581,103.905Z" transform="translate(-291.088 -92.74)" fill="#8ed16f"/>
    <ellipse id="Ellipse_580" data-name="Ellipse 580" cx="3.197" cy="1.198" rx="3.197" ry="1.198" transform="translate(129.343 12.78) rotate(-76.9)" fill="#8ed16f"/>
    <ellipse id="Ellipse_581" data-name="Ellipse 581" cx="3.197" cy="1.198" rx="3.197" ry="1.198" transform="translate(129.343 12.78) rotate(-76.9)" opacity="0.3"/>
    <path id="Path_1474" data-name="Path 1474" d="M419.52,163.03c-5.29,1.907-11.34-1.435-11.34-1.435s2.529-6.431,7.824-8.334,10.365-1.244,11.34,1.435S424.81,161.122,419.52,163.03Z" transform="translate(-285.796 -127.531)" fill="#8ed16f"/>
    <ellipse id="Ellipse_582" data-name="Ellipse 582" cx="3.197" cy="1.198" rx="3.197" ry="1.198" transform="matrix(0.94, -0.34, 0.34, 0.94, 128.418, 30.11)" fill="#8ed16f"/>
    <ellipse id="Ellipse_583" data-name="Ellipse 583" cx="3.197" cy="1.198" rx="3.197" ry="1.198" transform="matrix(0.94, -0.34, 0.34, 0.94, 128.418, 30.11)" opacity="0.3"/>
    <path id="Path_1475" data-name="Path 1475" d="M416.55,209.8c-5.29,1.907-11.339-1.435-11.339-1.435s2.529-6.431,7.824-8.334,10.365-1.244,11.34,1.435S421.84,207.9,416.55,209.8Z" transform="translate(-284.058 -154.91)" fill="#8ed16f"/>
    <ellipse id="Ellipse_584" data-name="Ellipse 584" cx="3.197" cy="1.198" rx="3.197" ry="1.198" transform="translate(127.248 49.788) rotate(-19.8)" fill="#8ed16f"/>
    <ellipse id="Ellipse_585" data-name="Ellipse 585" cx="3.197" cy="1.198" rx="3.197" ry="1.198" transform="translate(127.248 49.788) rotate(-19.8)" opacity="0.3"/>
    <path id="Path_1476" data-name="Path 1476" d="M431.46,264.67c-5.29,1.907-11.34-1.435-11.34-1.435s2.529-6.431,7.824-8.334,10.365-1.244,11.34,1.435S436.75,262.775,431.46,264.67Z" transform="translate(-292.786 -187.031)" fill="#8ed16f"/>
    <ellipse id="Ellipse_586" data-name="Ellipse 586" cx="3.197" cy="1.198" rx="3.197" ry="1.198" transform="translate(133.431 72.547) rotate(-19.8)" fill="#8ed16f"/>
    <ellipse id="Ellipse_587" data-name="Ellipse 587" cx="3.197" cy="1.198" rx="3.197" ry="1.198" transform="translate(133.431 72.547) rotate(-19.8)" opacity="0.3"/>
    <path id="Path_1477" data-name="Path 1477" d="M421.76,314.85c-5.29,1.907-11.34-1.435-11.34-1.435s2.529-6.431,7.824-8.334,10.365-1.244,11.34,1.435S427.054,312.947,421.76,314.85Z" transform="translate(-287.107 -216.406)" fill="#8ed16f"/>
    <ellipse id="Ellipse_588" data-name="Ellipse 588" cx="3.197" cy="1.198" rx="3.197" ry="1.198" transform="matrix(0.94, -0.34, 0.34, 0.94, 129.42, 93.005)" fill="#8ed16f"/>
    <ellipse id="Ellipse_589" data-name="Ellipse 589" cx="3.197" cy="1.198" rx="3.197" ry="1.198" transform="matrix(0.94, -0.34, 0.34, 0.94, 129.42, 93.005)" opacity="0.3"/>
    <path id="Path_1478" data-name="Path 1478" d="M371.9,175.035c3.906,4.047,10.809,3.731,10.809,3.731s.568-6.887-3.338-10.933-8.744-5.713-10.809-3.731S367.992,170.988,371.9,175.035Z" transform="translate(-262.059 -134.026)" fill="#8ed16f"/>
    <ellipse id="Ellipse_590" data-name="Ellipse 590" cx="1.198" cy="3.197" rx="1.198" ry="3.197" transform="matrix(0.719, -0.695, 0.695, 0.719, 110.639, 35.805)" fill="#8ed16f"/>
    <ellipse id="Ellipse_591" data-name="Ellipse 591" cx="1.198" cy="3.197" rx="1.198" ry="3.197" transform="matrix(0.719, -0.695, 0.695, 0.719, 110.639, 35.805)" opacity="0.3"/>
    <path id="Path_1479" data-name="Path 1479" d="M366.487,330.025c3.906,4.047,10.809,3.731,10.809,3.731s.568-6.887-3.338-10.933-8.744-5.713-10.809-3.731S362.582,325.978,366.487,330.025Z" transform="translate(-258.893 -224.756)" fill="#8ed16f"/>
    <ellipse id="Ellipse_592" data-name="Ellipse 592" cx="1.198" cy="3.197" rx="1.198" ry="3.197" transform="matrix(0.719, -0.695, 0.695, 0.719, 108.391, 100.071)" fill="#8ed16f"/>
    <ellipse id="Ellipse_593" data-name="Ellipse 593" cx="1.198" cy="3.197" rx="1.198" ry="3.197" transform="matrix(0.719, -0.695, 0.695, 0.719, 108.391, 100.071)" opacity="0.3"/>
    <path id="Path_1480" data-name="Path 1480" d="M375,230.681c5.033,2.513,11.431-.1,11.431-.1s-1.762-6.679-6.791-9.192-10.15-2.488-11.431.1S369.964,228.169,375,230.681Z" transform="translate(-262.224 -166.96)" fill="#8ed16f"/>
    <ellipse id="Ellipse_594" data-name="Ellipse 594" cx="1.198" cy="3.197" rx="1.198" ry="3.197" transform="translate(111.779 58.536) rotate(-63.48)" fill="#8ed16f"/>
    <ellipse id="Ellipse_595" data-name="Ellipse 595" cx="1.198" cy="3.197" rx="1.198" ry="3.197" transform="translate(111.779 58.536) rotate(-63.48)" opacity="0.3"/>
    <path id="Path_1481" data-name="Path 1481" d="M380.089,285.251c5.033,2.513,11.431-.1,11.431-.1s-1.762-6.679-6.791-9.192-10.15-2.488-11.431.1S375.077,282.763,380.089,285.251Z" transform="translate(-265.206 -198.905)" fill="#8ed16f"/>
    <ellipse id="Ellipse_596" data-name="Ellipse 596" cx="1.198" cy="3.197" rx="1.198" ry="3.197" transform="translate(113.891 81.164) rotate(-63.48)" fill="#8ed16f"/>
    <ellipse id="Ellipse_597" data-name="Ellipse 597" cx="1.198" cy="3.197" rx="1.198" ry="3.197" transform="translate(113.891 81.164) rotate(-63.48)" opacity="0.3"/>
    <path id="Path_1482" data-name="Path 1482" d="M195.276,249.21s29.267,29.267,12.745,72.7,28.322,115.651,28.322,115.651-.481-.07-1.372-.228C174.852,426.72,145,357.97,178.418,306.9,190.827,287.909,201.047,265.637,195.276,249.21Z" transform="translate(-143.147 -184.337)" fill="#8ed16f"/>
    <path id="Path_1483" data-name="Path 1483" d="M113,534.2s33.4-5.319,36.44,24.611S213.658,592.9,213.658,592.9s-.415.274-1.148.763c-50.512,33.169-98.8,21.12-91.52-22.907C123.7,554.378,123.477,537.939,113,534.2Z" transform="translate(-113 -350.956)" fill="#8ed16f"/>
    <g id="Group_62" data-name="Group 62" transform="translate(0 182.882)" opacity="0.3">
      <path id="Path_1484" data-name="Path 1484" d="M113,534.2s33.4-5.319,36.44,24.611S213.658,592.9,213.658,592.9s-.415.274-1.148.763c-50.512,33.169-98.8,21.12-91.52-22.907C123.7,554.378,123.477,537.939,113,534.2Z" transform="translate(-113 -533.838)" fill="#fff"/>
    </g>
    <ellipse id="Ellipse_598" data-name="Ellipse 598" cx="9.184" cy="23.96" rx="9.184" ry="23.96" transform="translate(34.491 134.959)" fill="#8ed16f"/>
    <ellipse id="Ellipse_599" data-name="Ellipse 599" cx="9.184" cy="23.96" rx="9.184" ry="23.96" transform="translate(34.491 134.959)" opacity="0.3"/>
    <ellipse id="Ellipse_600" data-name="Ellipse 600" cx="6.19" cy="13.777" rx="6.19" ry="13.777" transform="translate(18.975 230.831) rotate(-45)" fill="#8ed16f"/>
    <ellipse id="Ellipse_601" data-name="Ellipse 601" cx="6.19" cy="13.777" rx="6.19" ry="13.777" transform="translate(18.975 230.831) rotate(-45)" opacity="0.3"/>
    <path id="Path_1485" data-name="Path 1485" d="M515.96,358.2h-217.4a9.9,9.9,0,0,0-9.9,9.9V495.526a9.9,9.9,0,0,0,9.9,9.9h217.4a9.9,9.9,0,0,0,9.905-9.9V368.1A9.9,9.9,0,0,0,515.96,358.2Z" transform="translate(-215.83 -248.139)" fill="url(#linear-gradient)"/>
    <rect id="Rectangle_172" data-name="Rectangle 172" width="231.62" height="143.765" rx="24.81" transform="translate(75.62 111.794)" fill="#3dc06e"/>
    <rect id="Rectangle_173" data-name="Rectangle 173" width="231.62" height="26.357" transform="translate(75.62 136.953)" fill="#3dc06e"/>
    <rect id="Rectangle_174" data-name="Rectangle 174" width="231.62" height="26.357" transform="translate(75.62 136.953)" opacity="0.3"/>
    <rect id="Rectangle_175" data-name="Rectangle 175" width="187.693" height="12.778" transform="translate(97.586 182.879)" fill="#d6d6e3"/>
    <circle id="Ellipse_602" data-name="Ellipse 602" cx="18.371" cy="18.371" r="18.371" transform="translate(94.788 209.235)" fill="#3dc06e"/>
    <circle id="Ellipse_603" data-name="Ellipse 603" cx="18.371" cy="18.371" r="18.371" transform="translate(94.788 209.235)" opacity="0.3"/>
    <path id="Path_1486" data-name="Path 1486" d="M822.185,235.129a4.021,4.021,0,0,0,1.77,2.239c3.81,2.517,12.094,1.982,13.089,1.982.211,0,.489.377.8,1.012a70,70,0,0,1,3.885,13.856c.2,2.409,2.442,13.682,6.107,17.882.112.129.224.249.332.361,3.595,3.611,7.811-.361,7.811-.361l.605-2.1c-.17.829-.361,1.8-.551,2.877-.1.543-.191,1.119-.282,1.712a65.619,65.619,0,0,0-.858,10.1,36.67,36.67,0,0,0,.158,3.682c.033.34.07.676.116,1a35.166,35.166,0,0,1,.274,4.494,122.163,122.163,0,0,1-2.309,20.021l.087-.029c-.054.278-.087.415-.087.415l.133-.041q-.1.618-.182,1.265c-.771,5.6-1.215,12.563-1.426,16.584a33.208,33.208,0,0,0,.282,6.352l4.047,28.488v13.267a23.424,23.424,0,0,0,.73,5.962c1.318,5.013.232,22.509-.377,30.81-.17,2.264-.3,3.848-.34,4.3v.137l.116-.046v.145a2.346,2.346,0,0,1,.539-.158c-1.6,2.488-4.511,6.6-6.746,7.293a7.076,7.076,0,0,0-3.371,2.235l-.058.079-.083.116a2.489,2.489,0,0,0-.485,1.269,1.4,1.4,0,0,1-.075-.245c-.17.925.386,1.77,2.131,2.181a14.35,14.35,0,0,0,3.089.249c6.053,0,16.8-1.862,17.982-3.864v-6.907l.195.062v.062l.742.245L872,417.287c2.442-1.808.415-34.16,0-41.593-.373-6.775,3.818-33.724,4.561-38.471l-.1-.12.112-.692a2.943,2.943,0,0,1,.415.365,5.414,5.414,0,0,1,.634.937,12.54,12.54,0,0,1,.9,1.857c4.1,10.216,5.941,39.429,5.941,42.049V409.09a28.609,28.609,0,0,0,1.119,8.014,34.365,34.365,0,0,1,.871,4.171c.087.551.162,1.1.232,1.621s.141,1.119.195,1.609a3.371,3.371,0,0,0,.041.369.725.725,0,0,1,0,.17c.112,1.082.17,1.791.17,1.791a.414.414,0,0,1,.083-.162l.021.261a.559.559,0,0,1,.162-.257,3.927,3.927,0,0,1,.547-.448v3.491l-.1-.075v.6c4.221,3.184,11.091,4.146,16.365,4.109,3.421,0,6.19-.415,7.152-.9,1.377-.676.622-2.251-.63-3.458a4.729,4.729,0,0,0-3.035-1.567c-1.335.145-5.9-5.025-8.292-7.857l.27-.12.381-.166V374.487s.614-18.085,2.442-35.971a63.634,63.634,0,0,0-3.13-26.684l-.058-.17.556.087c.589.091.9.145.9.145a3.443,3.443,0,0,0-.037-.415h.037s-.713-7.757-.721-17.5c0-11.045.933-24.512,4.793-32.132,2.222-4.387,2.964-7.878,2.9-10.631a11.12,11.12,0,0,0-1.986-6.8,5.389,5.389,0,0,0-2.284-1.808l-.079-.046h-.041a5.681,5.681,0,0,0-2.1-.415H892.88a5.568,5.568,0,0,1-2.753-.726l-3.263-1.849a16.549,16.549,0,0,1-1.012-8.081c0-.22.042-.439.062-.655l.236-.249c.182-.195.352-.415.518-.6a4.636,4.636,0,0,1-.037.489c-.042.261-.112.415-.224.448,1.783-.232,3.773-.585,4.867-1.961.046-.054.087-.112.129-.17a8.886,8.886,0,0,0,.8-1.658,4.816,4.816,0,0,1,.609-1.111c.274-.357.63-.647.925-.987l.05-.058c1.049-1.244,1.107-3.027,1.119-4.652.021-3.947-.1-8.292-2.736-11.252-2.193-2.463-5.693-3.4-9.014-3.5s-6.634.489-9.951.506c-2.255,0-4.975-.037-6.219,1.828-.609.916-.684,2.115-1.347,2.993-.381.506-.966.941-1,1.571a1.614,1.614,0,0,0,.216.829v.029a5.865,5.865,0,0,0,4.3,2.882,10.7,10.7,0,0,0-.829,1.144,10.9,10.9,0,0,0-1.658,5.8,6.785,6.785,0,0,0,.025.713,10.958,10.958,0,0,0,3.474,7.3c-.033.232-.066.464-.1.692l.075.066q.352.319.734.605l.091.07v.415a6.943,6.943,0,0,1-.025.721c-.025.236,0,.381-.025.572l-.054-.046-4.051-3.383-6.513-6.028s-16.286-11.854-17.1-6.219a4.059,4.059,0,0,0,.775,2.811c2.989,4.561,13.267,8.441,13.267,8.441a86.864,86.864,0,0,1,10.228,13.466c-.145.079-.29.153-.444.224-3.648,1.7-8.972.978-8.972.978-6.149.958-6.7,7.7-6.671,10.419v.564l-8.159-19.159-.025-.058a4.034,4.034,0,0,0-3.052-2.4C834.681,233.015,821.045,231.1,822.185,235.129Zm34.159,186.159a3.535,3.535,0,0,1,.361-.066l-.037.058Z" transform="translate(-528.112 -158.784)" fill="url(#linear-gradient-2)"/>
    <path id="Path_1487" data-name="Path 1487" d="M989.278,716.43s7.728,9.714,9.515,9.515,5.945,3.765,3.57,4.975-16.054,1.982-22.8-3.172v-7.766Z" transform="translate(-620.278 -457.844)" fill="#aca9c9"/>
    <path id="Path_1488" data-name="Path 1488" d="M892.412,717.86s-4.561,8.126-7.728,9.121-5.945,4.561-1.783,5.552,19.031-1.19,20.415-3.57v-10.51Z" transform="translate(-562.463 -458.681)" fill="#aca9c9"/>
    <path id="Path_1489" data-name="Path 1489" d="M894.538,481.259l3.939,28.1v13.064a23.414,23.414,0,0,0,.713,5.879c1.285,4.946.228,22.2-.369,30.391-.195,2.67-.344,4.378-.344,4.378,2.575-1.19,13.479,2.575,13.479,2.575l1.1-3.752.879-2.985c2.38-1.783.415-33.7,0-41.046-.269-5.021,1.969-21.3,3.4-31.054.415-2.757.75-4.975.954-6.31.129-.829.2-1.289.2-1.289a4.34,4.34,0,0,1,1.07,1.289,12.4,12.4,0,0,1,.875,1.833c3.989,10.079,5.8,38.894,5.8,41.461v27.1a28.57,28.57,0,0,0,1.09,7.906,41.452,41.452,0,0,1,1.074,5.709c.282,2.152.415,3.885.415,3.885.2-1.19,12.488-6.542,12.488-6.542V516.658s.593-17.828,2.38-35.482a63.3,63.3,0,0,0-2.28-23.873c-.493-1.687-.987-3.118-1.414-4.25-.726-1.928-1.244-2.993-1.244-2.993H898.27c-.68.129-1.244,1.5-1.754,3.574-.332,1.393-.622,3.1-.875,4.975-.75,5.518-1.182,12.388-1.389,16.36A33.118,33.118,0,0,0,894.538,481.259Z" transform="translate(-570.315 -301.913)" fill="#618fd8"/>
    <g id="Group_63" data-name="Group 63" transform="translate(328.261 148.272)" opacity="0.1">
      <path id="Path_1490" data-name="Path 1490" d="M989.488,562.155V516.963s.593-17.828,2.38-35.482a61.812,61.812,0,0,0-4.975-31.12h.792a62.172,62.172,0,0,1,4.975,31.12c-1.762,17.642-2.38,35.482-2.38,35.482v45.192s-12.289,5.353-12.488,6.543a5.941,5.941,0,0,0-.062-.721C980.408,566.114,989.488,562.155,989.488,562.155Z" transform="translate(-947.468 -450.36)"/>
      <path id="Path_1491" data-name="Path 1491" d="M905.83,722.325a3.078,3.078,0,0,0-1.09.224v-.2a7.078,7.078,0,0,1,1.09-.025Z" transform="translate(-904.74 -609.56)"/>
      <path id="Path_1492" data-name="Path 1492" d="M937.427,600.316c2.38-1.783.415-33.7,0-41.046s4.561-38.65,4.561-38.65a3.451,3.451,0,0,1,.684.7c-.73,4.677-4.809,31.266-4.449,37.945.415,7.334,2.38,39.247,0,41.046l-1.982,6.737-.721-.241Z" transform="translate(-922.758 -491.49)"/>
    </g>
    <path id="Path_1493" data-name="Path 1493" d="M862.09,297.865l-4.146,14.669s-4.362,4.146-7.927,0-5.763-15.262-5.979-17.642-3.371-14.669-4.561-14.669-13.081.792-14.47-4.146c-1.111-3.972,12.165-2.073,17.48-1.182a3.939,3.939,0,0,1,2.973,2.363l8.151,19.466S857.927,291.72,862.09,297.865Z" transform="translate(-529.765 -198.646)" fill="#f7c4a7"/>
    <path id="Path_1494" data-name="Path 1494" d="M948.007,249.82s-5.154,14.47,1.389,19.623-23.4,6.543-23.4,6.543l4.063-3.864s2.873-11.4.891-20.913Z" transform="translate(-588.924 -184.694)" fill="#f7c4a7"/>
    <path id="Path_1495" data-name="Path 1495" d="M922.7,293.374s5.253-1.289,5.253-2.674l4.656,2.674h11.7s8.524,4.756,1.389,19.03-3.964,49.338-3.964,49.338-25.37-4.561-46.382,2.38c0,0,3.172-15.66,1.982-24.578s1.982-21.406,1.982-21.406l1.783-7.533s-.1-7.048-7.434-3.47c0,0-1.09-10.208,6.443-11.4,0,0,8.707,1.19,11.3-3.172C911.4,292.582,917.154,295.953,922.7,293.374Z" transform="translate(-569.962 -208.625)" opacity="0.1"/>
    <path id="Path_1496" data-name="Path 1496" d="M922.7,292.424s5.253-1.289,5.253-2.674l3.412,1.961a5.389,5.389,0,0,0,2.678.713h8.18a5.39,5.39,0,0,1,4.383,2.231c1.878,2.641,3.561,7.849-.912,16.8-7.135,14.271-3.964,49.338-3.964,49.338s-25.37-4.561-46.382,2.38c0,0,3.172-15.66,1.982-24.578s1.982-21.377,1.982-21.377l1.783-7.533s-.1-7.048-7.434-3.47c0,0-1.061-9.926,6.132-11.344a2.032,2.032,0,0,1,.609-.042c1.538.162,8.707.68,11-3.2C911.4,291.628,917.154,295,922.7,292.424Z" transform="translate(-569.962 -208.069)" fill="#e14b5a"/>
    <path id="Path_1497" data-name="Path 1497" d="M967.006,317.7s-6.344,3.964-16.651,0c0,0-11.3-4.146-14.868-12.289s18.036,1.389,18.036,1.389,4.561,0,5.945-.991S970.572,313.341,967.006,317.7Z" transform="translate(-594.245 -215.311)" opacity="0.1"/>
    <path id="Path_1498" data-name="Path 1498" d="M931.418,278.57s-6.344,3.964-16.651,0c0,0-11.3-4.146-14.868-12.289s-11.891-17.061-11.891-17.061-14.47-5.552-13.682-11.1,16.651,6.145,16.651,6.145l6.344,5.945,20.614,17.443s4.561,0,5.945-.991S934.983,274.209,931.418,278.57Z" transform="translate(-558.656 -176.971)" fill="#f7c4a7"/>
    <path id="Path_1499" data-name="Path 1499" d="M937.49,252.639l17.045-1.389a39.127,39.127,0,0,0-1.779,8.072,10.892,10.892,0,0,1-15.257.415,19.373,19.373,0,0,0-.008-7.1Z" transform="translate(-595.65 -185.531)" opacity="0.1"/>
    <circle id="Ellipse_604" data-name="Ellipse 604" cx="10.9" cy="10.9" r="10.9" transform="translate(338.573 54.724)" fill="#f7c4a7"/>
    <path id="Path_1500" data-name="Path 1500" d="M943.689,229.45c-.639-1.053.659-2.425.232-3.578-.394-1.061-1.961-1.244-2.488-2.235-.415-.8,0-1.783-.166-2.666a2.739,2.739,0,0,0-2.629-1.907,9.378,9.378,0,0,0-3.4.75,13.038,13.038,0,0,1-5.593.862,5.864,5.864,0,0,1-4.619-2.931,1.656,1.656,0,0,1-.211-.8c.033-.622.605-1.049.974-1.546.647-.867.721-2.048,1.31-2.952,1.2-1.841,3.843-1.8,6.041-1.8,3.234,0,6.451-.605,9.685-.5s6.634,1.024,8.777,3.454c2.571,2.923,2.687,7.2,2.666,11.1,0,1.6-.066,3.35-1.09,4.59-.3.361-.663.659-.949,1.028-.622.829-.788,1.891-1.372,2.732-1.036,1.5-3.06,1.862-4.863,2.1.531-.07.091-3.624,0-3.951C945.65,229.562,945.273,229.6,943.689,229.45Z" transform="translate(-588.233 -161.459)" opacity="0.1"/>
    <path id="Path_1501" data-name="Path 1501" d="M943.689,228.5c-.639-1.053.659-2.425.232-3.578-.394-1.061-1.961-1.244-2.488-2.235-.415-.8,0-1.783-.166-2.666a2.739,2.739,0,0,0-2.629-1.907,9.378,9.378,0,0,0-3.4.75,13.037,13.037,0,0,1-5.593.862,5.864,5.864,0,0,1-4.619-2.931,1.656,1.656,0,0,1-.211-.8c.033-.622.605-1.049.974-1.546.647-.867.721-2.048,1.31-2.952,1.2-1.841,3.843-1.8,6.041-1.8,3.234,0,6.451-.605,9.685-.5s6.634,1.024,8.777,3.454c2.571,2.923,2.687,7.2,2.666,11.1,0,1.6-.066,3.35-1.09,4.59-.3.361-.663.659-.949,1.028-.622.829-.788,1.891-1.372,2.732-1.036,1.5-3.06,1.862-4.863,2.1.531-.07.091-3.624,0-3.951C945.65,228.591,945.273,228.641,943.689,228.5Z" transform="translate(-588.233 -160.903)" fill="#281c1c"/>
    <path id="Path_1502" data-name="Path 1502" d="M997.164,320.5s-5.353-13.877-9.515-14.271,7.927,0,7.927,0l3.964,7.135Z" transform="translate(-624.502 -217.615)" opacity="0.1"/>
    <path id="Path_1503" data-name="Path 1503" d="M998.124,320.5s-5.353-13.877-9.515-14.271,7.927,0,7.927,0l3.964,7.135Z" transform="translate(-625.064 -217.615)" fill="#e14b5a"/>
    <path id="Path_1504" data-name="Path 1504" d="M976.65,717.874c.282,2.152.415,3.885.415,3.885.2-1.19,12.488-6.543,12.488-6.543v-3.221a5.471,5.471,0,0,0-.937.046,17.679,17.679,0,0,0-6.634,2.711,60.486,60.486,0,0,1-5.332,3.122Z" transform="translate(-618.574 -455.245)" fill="#618fd8"/>
    <path id="Path_1505" data-name="Path 1505" d="M976.65,717.874c.282,2.152.415,3.885.415,3.885.2-1.19,12.488-6.543,12.488-6.543v-3.221a5.471,5.471,0,0,0-.937.046,17.679,17.679,0,0,0-6.634,2.711,60.486,60.486,0,0,1-5.332,3.122Z" transform="translate(-618.574 -455.245)" opacity="0.3"/>
    <path id="Path_1506" data-name="Path 1506" d="M904.5,716.091c2.575-1.19,13.479,2.575,13.479,2.575l1.1-3.752c-1.9-.386-3.794-.867-5.651-1.439a18.787,18.787,0,0,1-2.537-.937,17,17,0,0,0-1.692-.788,8.775,8.775,0,0,0-4.362-.037C904.649,714.383,904.5,716.091,904.5,716.091Z" transform="translate(-576.338 -454.93)" fill="#618fd8"/>
    <path id="Path_1507" data-name="Path 1507" d="M904.5,716.091c2.575-1.19,13.479,2.575,13.479,2.575l1.1-3.752c-1.9-.386-3.794-.867-5.651-1.439a18.787,18.787,0,0,1-2.537-.937,17,17,0,0,0-1.692-.788,8.775,8.775,0,0,0-4.362-.037C904.649,714.383,904.5,716.091,904.5,716.091Z" transform="translate(-576.338 -454.93)" opacity="0.3"/>
    <path id="Path_1508" data-name="Path 1508" d="M1002.1,745.412a1.186,1.186,0,0,0,.68-.788,1.165,1.165,0,0,1-.68,1.381c-2.38,1.19-16.054,1.982-22.8-3.172v-.593C986.05,747.394,999.724,746.6,1002.1,745.412Z" transform="translate(-620.125 -472.953)" fill="#fff" opacity="0.4"/>
    <path id="Path_1509" data-name="Path 1509" d="M882.651,746.76c4.146.991,19.031-1.19,20.415-3.57v.593c-1.389,2.38-16.253,4.561-20.415,3.57-1.7-.415-2.243-1.244-2.073-2.152C880.711,745.872,881.333,746.428,882.651,746.76Z" transform="translate(-562.317 -473.509)" fill="#fff" opacity="0.4"/>
    <path id="Path_1510" data-name="Path 1510" d="M920.062,402.658s-4.362-1.389-5.552,0-11.36,4.644-11.36,4.644" transform="translate(-575.548 -273.803)" opacity="0.1"/>
    <rect id="Rectangle_176" data-name="Rectangle 176" width="21.207" height="0.448" transform="translate(316.37 74.393) rotate(180)" fill="#8ed16f"/>
    <rect id="Rectangle_177" data-name="Rectangle 177" width="21.207" height="0.448" transform="translate(316.37 74.84) rotate(180)" fill="#8ed16f"/>
    <rect id="Rectangle_178" data-name="Rectangle 178" width="21.207" height="0.448" transform="translate(316.37 74.84) rotate(180)" opacity="0.1"/>
    <rect id="Rectangle_179" data-name="Rectangle 179" width="21.207" height="0.448" transform="translate(316.37 75.288) rotate(180)" fill="#8ed16f"/>
    <rect id="Rectangle_180" data-name="Rectangle 180" width="21.207" height="0.448" transform="translate(316.37 75.732) rotate(180)" fill="#8ed16f"/>
    <rect id="Rectangle_181" data-name="Rectangle 181" width="21.207" height="0.448" transform="translate(316.37 75.732) rotate(180)" opacity="0.1"/>
    <rect id="Rectangle_182" data-name="Rectangle 182" width="21.207" height="0.448" transform="translate(316.37 76.18) rotate(180)" fill="#8ed16f"/>
    <rect id="Rectangle_183" data-name="Rectangle 183" width="21.207" height="0.448" transform="translate(316.37 76.623) rotate(180)" fill="#8ed16f"/>
    <rect id="Rectangle_184" data-name="Rectangle 184" width="21.207" height="0.448" transform="translate(316.37 76.623) rotate(180)" opacity="0.1"/>
    <rect id="Rectangle_185" data-name="Rectangle 185" width="21.207" height="0.448" transform="translate(316.37 77.071) rotate(180)" fill="#8ed16f"/>
    <rect id="Rectangle_186" data-name="Rectangle 186" width="21.207" height="0.448" transform="translate(316.37 77.515) rotate(180)" fill="#8ed16f"/>
    <rect id="Rectangle_187" data-name="Rectangle 187" width="21.207" height="0.448" transform="translate(316.37 77.515) rotate(180)" opacity="0.1"/>
    <rect id="Rectangle_188" data-name="Rectangle 188" width="21.207" height="0.448" transform="translate(316.37 70.827) rotate(180)" fill="#8ed16f"/>
    <rect id="Rectangle_189" data-name="Rectangle 189" width="21.207" height="0.448" transform="matrix(-0.769, -0.639, 0.639, -0.769, 326.469, 73.786)" fill="#8ed16f"/>
    <rect id="Rectangle_190" data-name="Rectangle 190" width="21.207" height="0.448" transform="matrix(-0.769, -0.639, 0.639, -0.769, 311.604, 66.652)" fill="#8ed16f"/>
    <rect id="Rectangle_191" data-name="Rectangle 191" width="21.207" height="0.448" transform="translate(316.37 71.271) rotate(180)" fill="#8ed16f"/>
    <rect id="Rectangle_192" data-name="Rectangle 192" width="21.207" height="0.448" transform="translate(316.37 71.271) rotate(180)" opacity="0.1"/>
    <rect id="Rectangle_193" data-name="Rectangle 193" width="21.207" height="0.448" transform="translate(316.37 71.723) rotate(180)" fill="#8ed16f"/>
    <rect id="Rectangle_194" data-name="Rectangle 194" width="21.207" height="0.448" transform="translate(316.37 72.166) rotate(180)" fill="#8ed16f"/>
    <rect id="Rectangle_195" data-name="Rectangle 195" width="21.207" height="0.448" transform="translate(316.37 72.166) rotate(180)" opacity="0.1"/>
    <rect id="Rectangle_196" data-name="Rectangle 196" width="21.207" height="0.448" transform="translate(316.37 72.61) rotate(180)" fill="#8ed16f"/>
    <rect id="Rectangle_197" data-name="Rectangle 197" width="21.207" height="0.448" transform="translate(316.37 73.058) rotate(180)" fill="#8ed16f"/>
    <rect id="Rectangle_198" data-name="Rectangle 198" width="21.207" height="0.448" transform="translate(316.37 73.058) rotate(180)" opacity="0.1"/>
    <rect id="Rectangle_199" data-name="Rectangle 199" width="21.207" height="0.448" transform="translate(316.37 73.501) rotate(180)" fill="#8ed16f"/>
    <rect id="Rectangle_200" data-name="Rectangle 200" width="21.207" height="0.448" transform="translate(316.37 73.949) rotate(180)" fill="#8ed16f"/>
    <rect id="Rectangle_201" data-name="Rectangle 201" width="21.207" height="0.448" transform="translate(316.37 73.949) rotate(180)" opacity="0.1"/>
    <rect id="Rectangle_202" data-name="Rectangle 202" width="7.728" height="15.063" transform="translate(300.074 92.745) rotate(-169.48)" fill="#8ed16f"/>
    <ellipse id="Ellipse_605" data-name="Ellipse 605" cx="3.172" cy="1.584" rx="3.172" ry="1.584" transform="translate(295.619 87.512) rotate(-79.48)" fill="#8ed16f"/>
    <ellipse id="Ellipse_606" data-name="Ellipse 606" cx="3.172" cy="1.584" rx="3.172" ry="1.584" transform="translate(295.619 87.512) rotate(-79.48)" opacity="0.1"/>
    <rect id="Rectangle_203" data-name="Rectangle 203" width="7.728" height="15.063" transform="translate(301.374 124.004) rotate(-169.48)" fill="#8ed16f"/>
    <ellipse id="Ellipse_607" data-name="Ellipse 607" cx="3.172" cy="1.584" rx="3.172" ry="1.584" transform="translate(296.915 118.768) rotate(-79.48)" fill="#8ed16f"/>
    <ellipse id="Ellipse_608" data-name="Ellipse 608" cx="3.172" cy="1.584" rx="3.172" ry="1.584" transform="translate(296.915 118.768) rotate(-79.48)" opacity="0.1"/>
    <rect id="Rectangle_204" data-name="Rectangle 204" width="7.728" height="15.063" transform="matrix(0.476, -0.879, 0.879, 0.476, 262.614, 52.558)" fill="#8ed16f"/>
    <ellipse id="Ellipse_609" data-name="Ellipse 609" cx="1.588" cy="3.179" rx="1.588" ry="3.179" transform="translate(268.816 52.906) rotate(-61.39)" fill="#8ed16f"/>
    <ellipse id="Ellipse_610" data-name="Ellipse 610" cx="1.588" cy="3.179" rx="1.588" ry="3.179" transform="translate(268.816 52.906) rotate(-61.39)" opacity="0.1"/>
    <rect id="Rectangle_205" data-name="Rectangle 205" width="7.728" height="15.063" transform="matrix(0.476, -0.879, 0.879, 0.476, 233.526, 186.693)" fill="#8ed16f"/>
    <ellipse id="Ellipse_611" data-name="Ellipse 611" cx="1.584" cy="3.172" rx="1.584" ry="3.172" transform="matrix(0.476, -0.879, 0.879, 0.476, 238.402, 186.853)" fill="#8ed16f"/>
    <ellipse id="Ellipse_612" data-name="Ellipse 612" cx="1.584" cy="3.172" rx="1.584" ry="3.172" transform="matrix(0.476, -0.879, 0.879, 0.476, 238.402, 186.853)" opacity="0.1"/>
    <rect id="Rectangle_206" data-name="Rectangle 206" width="7.728" height="15.063" transform="matrix(0.476, -0.879, 0.879, 0.476, 215.729, 76)" fill="#8ed16f"/>
    <ellipse id="Ellipse_613" data-name="Ellipse 613" cx="1.584" cy="3.172" rx="1.584" ry="3.172" transform="matrix(0.476, -0.879, 0.879, 0.476, 220.602, 76.154)" fill="#8ed16f"/>
    <ellipse id="Ellipse_614" data-name="Ellipse 614" cx="1.584" cy="3.172" rx="1.584" ry="3.172" transform="matrix(0.476, -0.879, 0.879, 0.476, 220.602, 76.154)" opacity="0.1"/>
    <rect id="Rectangle_207" data-name="Rectangle 207" width="7.728" height="15.063" transform="matrix(0.476, -0.879, 0.879, 0.476, 238.035, 52.556)" fill="#8ed16f"/>
    <ellipse id="Ellipse_615" data-name="Ellipse 615" cx="1.584" cy="3.172" rx="1.584" ry="3.172" transform="matrix(0.476, -0.879, 0.879, 0.476, 242.908, 52.71)" fill="#8ed16f"/>
    <ellipse id="Ellipse_616" data-name="Ellipse 616" cx="1.584" cy="3.172" rx="1.584" ry="3.172" transform="matrix(0.476, -0.879, 0.879, 0.476, 242.908, 52.71)" opacity="0.1"/>
    <rect id="Rectangle_208" data-name="Rectangle 208" width="7.728" height="15.063" transform="matrix(0.994, -0.109, 0.109, 0.994, 256.302, 74.262)" fill="#8ed16f"/>
    <ellipse id="Ellipse_617" data-name="Ellipse 617" cx="1.584" cy="3.172" rx="1.584" ry="3.172" transform="matrix(0.994, -0.109, 0.109, 0.994, 258.941, 78.361)" fill="#8ed16f"/>
    <ellipse id="Ellipse_618" data-name="Ellipse 618" cx="1.584" cy="3.172" rx="1.584" ry="3.172" transform="matrix(0.994, -0.109, 0.109, 0.994, 258.941, 78.361)" opacity="0.1"/>
    <rect id="Rectangle_209" data-name="Rectangle 209" width="7.728" height="15.063" transform="matrix(0.994, -0.109, 0.109, 0.994, 308.974, 156.255)" fill="#8ed16f"/>
    <ellipse id="Ellipse_619" data-name="Ellipse 619" cx="1.584" cy="3.172" rx="1.584" ry="3.172" transform="matrix(0.994, -0.109, 0.109, 0.994, 311.617, 160.354)" fill="#8ed16f"/>
    <ellipse id="Ellipse_620" data-name="Ellipse 620" cx="1.584" cy="3.172" rx="1.584" ry="3.172" transform="matrix(0.994, -0.109, 0.109, 0.994, 311.617, 160.354)" opacity="0.1"/>
    <rect id="Rectangle_210" data-name="Rectangle 210" width="7.728" height="15.063" transform="matrix(0.476, -0.879, 0.879, 0.476, 230.222, 112.026)" fill="#8ed16f"/>
    <ellipse id="Ellipse_621" data-name="Ellipse 621" cx="1.584" cy="3.172" rx="1.584" ry="3.172" transform="matrix(0.476, -0.879, 0.879, 0.476, 235.092, 112.186)" fill="#8ed16f"/>
    <ellipse id="Ellipse_622" data-name="Ellipse 622" cx="1.584" cy="3.172" rx="1.584" ry="3.172" transform="matrix(0.476, -0.879, 0.879, 0.476, 235.092, 112.186)" opacity="0.1"/>
    <rect id="Rectangle_211" data-name="Rectangle 211" width="7.728" height="15.063" transform="matrix(0.476, -0.879, 0.879, 0.476, 196.793, 102.478)" fill="#8ed16f"/>
    <ellipse id="Ellipse_623" data-name="Ellipse 623" cx="1.588" cy="3.179" rx="1.588" ry="3.179" transform="translate(202.757 103.064) rotate(-61.39)" fill="#8ed16f"/>
    <ellipse id="Ellipse_624" data-name="Ellipse 624" cx="1.588" cy="3.179" rx="1.588" ry="3.179" transform="translate(202.757 103.064) rotate(-61.39)" opacity="0.1"/>
    <rect id="Rectangle_212" data-name="Rectangle 212" width="7.728" height="15.063" transform="matrix(0.476, -0.879, 0.879, 0.476, 186.086, 263.224)" fill="#8ed16f"/>
    <ellipse id="Ellipse_625" data-name="Ellipse 625" cx="1.584" cy="3.172" rx="1.584" ry="3.172" transform="matrix(0.476, -0.879, 0.879, 0.476, 190.958, 263.38)" fill="#8ed16f"/>
    <ellipse id="Ellipse_626" data-name="Ellipse 626" cx="1.584" cy="3.172" rx="1.584" ry="3.172" transform="matrix(0.476, -0.879, 0.879, 0.476, 190.958, 263.38)" opacity="0.1"/>
    <rect id="Rectangle_213" data-name="Rectangle 213" width="7.728" height="15.063" transform="translate(178.717 266.647) rotate(-79.49)" fill="#8ed16f"/>
    <rect id="Rectangle_214" data-name="Rectangle 214" width="7.728" height="15.063" transform="translate(178.717 266.647) rotate(-79.49)" opacity="0.05"/>
    <ellipse id="Ellipse_627" data-name="Ellipse 627" cx="1.584" cy="3.172" rx="1.584" ry="3.172" transform="translate(183.404 265.296) rotate(-79.49)" fill="#8ed16f"/>
    <ellipse id="Ellipse_628" data-name="Ellipse 628" cx="1.584" cy="3.172" rx="1.584" ry="3.172" transform="translate(183.404 265.296) rotate(-79.49)" opacity="0.1"/>
    <rect id="Rectangle_215" data-name="Rectangle 215" width="7.728" height="15.063" transform="translate(180.104 271.204) rotate(-79.49)" fill="#8ed16f"/>
    <ellipse id="Ellipse_629" data-name="Ellipse 629" cx="1.584" cy="3.172" rx="1.584" ry="3.172" transform="translate(184.787 269.853) rotate(-79.49)" fill="#8ed16f"/>
    <ellipse id="Ellipse_630" data-name="Ellipse 630" cx="1.584" cy="3.172" rx="1.584" ry="3.172" transform="translate(184.787 269.853) rotate(-79.49)" opacity="0.1"/>
    <rect id="Rectangle_216" data-name="Rectangle 216" width="7.728" height="15.063" transform="matrix(0.476, -0.879, 0.879, 0.476, 201.712, 282.76)" fill="#8ed16f"/>
    <ellipse id="Ellipse_631" data-name="Ellipse 631" cx="1.584" cy="3.172" rx="1.584" ry="3.172" transform="matrix(0.476, -0.879, 0.879, 0.476, 206.589, 282.916)" fill="#8ed16f"/>
    <ellipse id="Ellipse_632" data-name="Ellipse 632" cx="1.584" cy="3.172" rx="1.584" ry="3.172" transform="matrix(0.476, -0.879, 0.879, 0.476, 206.589, 282.916)" opacity="0.1"/>
    <rect id="Rectangle_217" data-name="Rectangle 217" width="7.728" height="15.063" transform="translate(194.346 286.177) rotate(-79.49)" fill="#8ed16f"/>
    <rect id="Rectangle_218" data-name="Rectangle 218" width="7.728" height="15.063" transform="translate(194.346 286.177) rotate(-79.49)" opacity="0.05"/>
    <ellipse id="Ellipse_633" data-name="Ellipse 633" cx="1.584" cy="3.172" rx="1.584" ry="3.172" transform="translate(199.029 284.827) rotate(-79.49)" fill="#8ed16f"/>
    <ellipse id="Ellipse_634" data-name="Ellipse 634" cx="1.584" cy="3.172" rx="1.584" ry="3.172" transform="translate(199.029 284.827) rotate(-79.49)" opacity="0.1"/>
    <rect id="Rectangle_219" data-name="Rectangle 219" width="7.728" height="15.063" transform="translate(195.733 290.739) rotate(-79.49)" fill="#8ed16f"/>
    <ellipse id="Ellipse_635" data-name="Ellipse 635" cx="1.584" cy="3.172" rx="1.584" ry="3.172" transform="translate(200.42 289.389) rotate(-79.49)" fill="#8ed16f"/>
    <ellipse id="Ellipse_636" data-name="Ellipse 636" cx="1.584" cy="3.172" rx="1.584" ry="3.172" transform="translate(200.42 289.389) rotate(-79.49)" opacity="0.1"/>
    <rect id="Rectangle_220" data-name="Rectangle 220" width="7.728" height="15.063" transform="matrix(0.476, -0.879, 0.879, 0.476, 225.157, 270.17)" fill="#8ed16f"/>
    <ellipse id="Ellipse_637" data-name="Ellipse 637" cx="1.584" cy="3.172" rx="1.584" ry="3.172" transform="matrix(0.476, -0.879, 0.879, 0.476, 230.026, 270.324)" fill="#8ed16f"/>
    <ellipse id="Ellipse_638" data-name="Ellipse 638" cx="1.584" cy="3.172" rx="1.584" ry="3.172" transform="matrix(0.476, -0.879, 0.879, 0.476, 230.026, 270.324)" opacity="0.1"/>
    <rect id="Rectangle_221" data-name="Rectangle 221" width="7.728" height="15.063" transform="translate(217.789 273.59) rotate(-79.49)" fill="#8ed16f"/>
    <rect id="Rectangle_222" data-name="Rectangle 222" width="7.728" height="15.063" transform="translate(217.789 273.59) rotate(-79.49)" opacity="0.05"/>
    <ellipse id="Ellipse_639" data-name="Ellipse 639" cx="1.584" cy="3.172" rx="1.584" ry="3.172" transform="translate(222.472 272.24) rotate(-79.49)" fill="#8ed16f"/>
    <ellipse id="Ellipse_640" data-name="Ellipse 640" cx="1.584" cy="3.172" rx="1.584" ry="3.172" transform="translate(222.472 272.24) rotate(-79.49)" opacity="0.1"/>
    <rect id="Rectangle_223" data-name="Rectangle 223" width="7.728" height="15.063" transform="translate(219.176 278.151) rotate(-79.49)" fill="#8ed16f"/>
    <ellipse id="Ellipse_641" data-name="Ellipse 641" cx="1.584" cy="3.172" rx="1.584" ry="3.172" transform="translate(223.863 276.801) rotate(-79.49)" fill="#8ed16f"/>
    <ellipse id="Ellipse_642" data-name="Ellipse 642" cx="1.584" cy="3.172" rx="1.584" ry="3.172" transform="translate(223.863 276.801) rotate(-79.49)" opacity="0.1"/>
  </g>
</svg>
